<?xml version="1.0" encoding="UTF-8"?>
<svg id="Layer_1" data-name="Layer 1" xmlns="http://www.w3.org/2000/svg" viewBox="0 0 342.76 64.41">
  <defs>
    <style>
      .cls-1 {
        fill: #56a4da;
      }
    </style>
  </defs>
  <path class="cls-1" d="M341.03,20.04c-4.96-12.46-18.93-14.38-32.46-16.23C265.32-2.1,221.11.44,177.51,1.18c-51.87.88-103.74,1.77-155.61,2.65C5.51,4.11-1.7,16.35.34,26.93c0,6.26,4.66,14.98,16.63,26.27,13.68,12.91,37.64,10.98,57.81,11.15,21.96.19,43.94-.14,65.9-.45,45.57-.65,91.12-1.98,136.64-3.97,20.18-.89,46.1.98,59.14-14.88,6.2-7.54,8.08-16.24,4.59-25.01ZM303.14,20.24s-.23.01-.55.04c.22-.13.4-.16.55-.04Z"/>
</svg>