<?xml version="1.0" encoding="UTF-8"?>
<svg id="Layer_2" data-name="Layer 2" xmlns="http://www.w3.org/2000/svg" viewBox="0 0 237.29 237.05">
  <defs>
    <style>
      .cls-1 {
        fill: #f15a28;
      }

      .cls-2 {
        fill: #efe1cf;
      }
    </style>
  </defs>
  <g id="Layer_1-2" data-name="Layer 1">
    <path class="cls-2" d="M111.35.27c94.92-6.24,157.98,98.14,108.84,179.72-44.15,73.28-150.99,76.72-199.3,6C-31.16,109.81,19.69,6.3,111.35.27ZM166.46,51.89h-44.43c-1.05,0-7.88,2.85-9.37,3.61-23.3,11.82-15.98,39.85-17.09,61.29h-24.96v34.94h24.96v75.88c11.48,1.63,24.46,1.63,35.94,0v-75.88h31.95v-34.94h-31.95v-25.46c0-1.87,6.41-7.49,8.49-7.49h26.46v-31.95Z"/>
    <path class="cls-1" d="M166.46,51.89v31.95h-26.46c-2.07,0-8.49,5.62-8.49,7.49v25.46h31.95v34.94h-31.95v75.88c-11.48,1.63-24.46,1.63-35.94,0v-75.88h-24.96v-34.94h24.96c1.11-21.44-6.22-49.46,17.09-61.29,1.49-.76,8.32-3.61,9.37-3.61h44.43Z"/>
  </g>
</svg>