<?xml version="1.0" encoding="UTF-8"?>
<svg id="Layer_2" data-name="Layer 2" xmlns="http://www.w3.org/2000/svg" viewBox="0 0 337.21 128.45">
  <defs>
    <style>
      .cls-1 {
        fill: #f15a28;
      }

      .cls-2 {
        fill: #efe1cf;
      }
    </style>
  </defs>
  <g id="Layer_1-2" data-name="Layer 1">
    <ellipse class="cls-1" cx="168.61" cy="64.22" rx="168.61" ry="64.22"/>
    <g>
      <path class="cls-2" d="M115.92,54.75c-.1-.62,0-1.17,1.18-1.54.81-.24,1.67-.44,2.53-.58.42-.07.8-.13,1.18-.15,1.23-.09,1.47.3,1.73,1.93l.37,2.35c.34,2.15.64,4.26.94,6.38,1.35-.21,1.87-.08,2.29.77.23.53.39,1.14.49,1.77.06.38.12.76.12,1.19.04.7-.39,1.37-1.66,1.65l-.69.14c.2,2.13.35,4.42.43,6.75.02,1.03-.36,1.76-1.28,1.98-.34.09-.72.15-1.1.21-.73.12-1.46.2-2.2.21-.99.02-1.57-.28-1.72-1.22-.02-.1-.06-.81-.09-1.48-.14-1.75-.2-3.06-.4-5.23-1.35.25-2.73.47-4.15.69s-2.84.45-4.26.64c.43,2.06.82,3.81,1.16,5.1.11.48.27,1.06.3,1.2.14.87-.2,1.42-.98,1.68-.87.35-1.92.62-2.93.78l-.42.07c-1.25.2-1.8-.35-2.05-1.31-.68-2.27-1.24-4.45-1.76-6.64-1.18.19-1.71-.05-2-.96-.16-.54-.19-.75-.23-.99-.09-.59-.12-1.19-.14-1.79-.03-1.06.44-1.24,1.3-1.45-.53-2.9-1-5.84-1.51-9.06-.24-1.52-.04-2.05.92-2.28.48-.11.96-.22,1.48-.31.93-.15,1.92-.23,2.8-.23s1.2.2,1.47,1.9c.48,2.83.98,5.74,1.5,8.57,2.31-.44,4.76-.86,7.22-1.25l1.63-.26c-.21-1.56-.43-3.16-.69-4.79-.36-2.29-.68-3.83-.78-4.46Z"/>
      <path class="cls-2" d="M143.64,67.15c-1.39,1.67-3.17,2.87-5.35,3.35-4.89,1.08-8.62-1.62-9.64-6.21-1.44-6.5,2.86-12.79,8.33-14,1.11-.25,2.34-.28,3.52-.06-.14-.97.11-1.31.8-1.46.84-.19,2.54-.32,3.84-.25,1.34.06,1.95.29,2.35,2.09,1,4.51,1.97,9.95,2.43,14.75.14,1.53-.16,2.16-1.47,2.61-.44.18-1.02.31-1.59.43-.46.1-.92.2-1.27.24-1.46.12-1.69-.39-1.94-1.5ZM141.67,55.55c-.79-.14-1.65-.2-2.64.02-3.1.69-4.14,4.13-3.69,6.15.42,1.91,1.88,2.87,4.02,2.4,1.26-.28,2.44-1.1,3.37-2.51-.32-1.98-.66-4.07-1.06-6.06Z"/>
      <path class="cls-2" d="M151.34,45.62c1.08-.43,2.65-.78,3.77-.98,1-.18,1.31.21,1.5,1.29,1.26-1.65,3.34-2.73,5.38-3.09,4.63-.81,8.84,1.67,9.99,8.23,1.01,5.75-2.97,10.98-7.83,11.83-1.74.3-3.32.34-4.72.07.34,1.73,1.25,8.36,1.48,9.67s.03,1.74-1.13,2.62c-.88.67-2.53,1.68-3.38,1.82-.69.12-1.22-.18-1.5-1.09-1.24-4.16-2.55-12.83-3.39-17.61-.56-3.2-1.07-6.57-1.52-10.03-.2-1.6.08-2.24,1.35-2.74ZM158.07,55.7l.28,1.62c.81.33,1.58.4,2.62.22,2.55-.45,4.63-2.84,4.21-5.23s-2.08-3.25-4.05-2.91c-1.35.24-2.74.96-3.73,2.32.2,1.36.43,2.67.66,3.98Z"/>
      <path class="cls-2" d="M178.74,40.76c1.16-.03,2.75.18,3.87.38,1,.18,1.16.65.96,1.73,1.75-1.11,4.08-1.41,6.12-1.04,4.62.84,7.72,4.62,6.53,11.18-1.04,5.74-6.58,9.27-11.43,8.39-1.73-.31-3.23-.83-4.45-1.56-.28,1.74-.57,4.24-.81,5.55s-.58,1.65-1.97,2.07c-1.05.33-2.95.7-3.8.54-.69-.13-1.09-.6-1.03-1.54.27-4.33.89-8.87,1.76-13.65.58-3.2,1.27-6.54,2.04-9.94.36-1.57.85-2.07,2.21-2.11ZM181.58,52.54l-.29,1.62c.65.6,1.35.92,2.39,1.11,2.54.46,5.33-1.06,5.76-3.45s-.83-3.77-2.79-4.13c-1.35-.24-2.9-.05-4.3.89-.28,1.34-.52,2.65-.76,3.96Z"/>
      <path class="cls-2" d="M138.36,78.64l.25-1.07c.23-.95.49-1.9.79-2.99.57-1.88,1.2-2.49,5.85-1.39,1.18.28,1.42.98,1.15,2.09-.11.46-.92,3.04-1.44,4.85.86.28,1.72.57,2.59.94.99.4,1.23.94.99,1.93-.12.5-.42,1.43-.71,2.13-.43.95-.96,1.18-2.09.99-.7-.09-1.67-.24-2.06-.33-.68,3.38-1.96,13.67-2.21,14.73-.22.91-.62,1.26-1.73,1.16-.99-.07-2.5-.63-3.47-.91s-1.33-.68-1.19-1.93c.36-3.7,1.63-11,2.25-14.8l-.96-.35c-1.04-.37-1.4-.73-1.24-1.9.09-.54.2-1.2.3-1.58.41-1.71.89-1.88,2.91-1.56Z"/>
      <path class="cls-2" d="M161.53,100.15c-1.51,1.57-3.38,2.63-5.59,2.95-4.96.72-8.48-2.25-9.16-6.9-.96-6.59,3.8-12.54,9.34-13.35,1.12-.16,2.36-.11,3.51.2-.06-.98.21-1.3.9-1.4.85-.12,2.55-.13,3.84.03,1.33.16,1.92.43,2.19,2.25.66,4.57,1.23,10.07,1.33,14.88.03,1.54-.32,2.14-1.66,2.5-.45.15-1.04.23-1.62.31-.47.07-.93.14-1.28.15-1.46.01-1.66-.51-1.82-1.63ZM160.42,88.44c-.78-.2-1.63-.32-2.64-.17-3.14.46-4.43,3.81-4.13,5.86.28,1.94,1.66,3,3.83,2.69,1.28-.19,2.52-.92,3.55-2.26-.17-1.99-.36-4.1-.61-6.12Z"/>
      <path class="cls-2" d="M172.9,84.9c.84-.24,2.05-.42,3.14-.52.47-.04.9-.08,1.29-.09.78-.04.88.18.98,1.23.43,4.68.7,8.51.71,12.93,0,1.35,0,1.81-1.94,1.99-.7.06-1.45.1-2.15.1-1.61.02-1.93-.48-2.11-1.56-.26-1.56-.44-3.09-.58-4.63-.22-2.45-.33-4.92-.37-7.49-.05-1.02,0-1.75,1.04-1.98Z"/>
      <path class="cls-2" d="M183.38,65.68c1.18-.48,2.92-.83,4.01-.92.78-.07,1.16.28,1.29,1.75s.3,2.98.44,4.59c.76,8.71,1.41,19.34,1.51,24.91.03,1.71.07,2.57-1.59,2.91-.31.07-.62.1-.93.13-.43.04-.82.07-1.21.06-1.61.05-1.99-.69-2.24-2.19-.44-2.78-.94-7.12-1.36-11.95-.47-5.35-.82-11.23-.84-16.38-.03-2.14.17-2.59.93-2.89Z"/>
      <path class="cls-2" d="M205.47,82.77c-.53-.11-1.25.05-1.65.06-1.54.05-2.67.44-2.63,1.45.07,1.98,10.27,1.76,10.5,8.57.14,3.95-3.95,6.65-9.49,6.84-2.46.08-4.36-.16-6.14-.8-.8-.28-1.21-.66-1.24-1.41,0-.26.02-.57.1-.93.19-.84.68-1.91.96-2.67.29-.63.5-.94.89-.95.26,0,.62.11,1.15.31,1.12.49,2.44.66,3.32.63,1.32-.05,2.23-.34,2.2-1.13-.07-1.98-9.21-1.88-9.44-8.52-.14-4.22,4.68-7.15,9.69-7.33,2.11-.07,2.67.4,4.5.95.93.28,3.26.63,3.3,1.82"/>
      <g>
        <path class="cls-2" d="M193.98,70.07s-.03-.05-.04-.07c.03.02.05.04.08.07v.02c.03.08.01.07-.03-.02Z"/>
        <path class="cls-2" d="M215.75,45.25c-.7-.08-1.69-.03-2.33.06-1.6.22-2.13.71-2.24,1.72-.06.58-.04,5.71-.39,9.61-1.63.84-3.28,1.13-4.56.99-.98-.11-1.39-.94-1.26-2.15.43-3.93,1.53-8.14,1.65-9.16.1-.89-.23-1.44-1.06-1.81-.67-.35-1.59-.57-2.48-.67-1.67-.19-2.53.04-2.88,1.45-1.11,4.37-1.91,9.09-2.21,11.77-.53,4.79,3.29,5.8,5.43,6.04,2.34.26,4.67-.15,6.77-1.34-.06.03-.09.53-.1.61-.04.23-.08.46-.12.69-.08.44-.17.89-.27,1.33-.11.51-.24,1.02-.37,1.53-.15.59-.74.96-1.34.85-1.07-.2-2.17-.32-3.25-.44-1.47-.16-2.95-.28-4.44-.37-1.3-.08-2.61-.13-3.92-.18-1-.04.49-.06-.51-.04-.88.01-1.95-.01-2.71.48-.73.48-1.15,1.29-1.13,2.16.01.75.08,1.49.11,2.24.03.87.32,1.61,1.15,2.02.79.39,1.66.32,2.51.29,1.82-.06,1.17.06,2.98.15,2.61.13,5.22.33,7.83.42,1.06.03,2.15.1,3.21.03,2.98.02,5.17-1.6,5.65-3.66.66-2.76,1.17-6.29,1.56-9.8.56-5.06.84-10.07.84-12.91,0-1.46-.71-1.77-2.11-1.93ZM193.91,70.94s-.03-.05-.04-.07c.03.02.05.04.08.07v.02c.03.08.01.07-.03-.02Z"/>
        <path class="cls-2" d="M193.98,70.07s-.03-.05-.04-.07c.03.02.05.04.08.07v.02c.03.08.01.07-.03-.02Z"/>
      </g>
      <g>
        <path class="cls-2" d="M173.28,75.07c.9-.2,1.97.05,2.78.47s1.4,1.03,1.91,1.76c.61.88,1.45,2.28.87,3.34-1.14,2.09-6.81,2.69-8.58,1.23-1.58-1.3-.63-3.48.37-4.83.64-.86,1.58-1.73,2.66-1.97Z"/>
        <path class="cls-2" d="M170.14,69.75c2.33-.72,3.66,3.6,1.66,4.35s-3.86-3.39-1.66-4.35Z"/>
        <path class="cls-2" d="M179.75,71.67c.84-.17,1.63.67,1.65,1.51.02.95-.94,2.56-1.88,2.76-.48.1-1.05.11-1.43-.24-1.37-1.26.09-3.71,1.66-4.03Z"/>
        <path class="cls-2" d="M175.24,69.14c.56-.17,1-.05,1.4.36,1.49,1.5-.12,4.87-1.98,4-1.54-.72-1.03-3.87.58-4.36Z"/>
        <path class="cls-2" d="M166.48,73.18c1.2-.39,2.55.4,3.1,1.47.2.39.3.88.08,1.28-.2.36-.57.58-.95.72-.48.18-1.01.24-1.51.09-1.06-.31-1.78-1.68-1.49-2.74.11-.39.38-.69.77-.82Z"/>
      </g>
      <path class="cls-2" d="M205.06,76.93c10.75,1.98,19.11-.66,19.58-9.38.27-4.98-1.75-8.93-3.52-10.99-.29-.33,0-.85.43-.79,2.19.33,4.25,1.61,5.55,4.43.15.32.57.36.78.08l.46-.64c.18-.25.56-.24.74,0,1.21,1.7,1.65,4.96,1.52,8.75-.01.32.31.54.6.43l.89-.33c.31-.11.64.13.6.46-.29,2.77-2.24,5.82-3.97,7.42-.3.27-.1.77.3.78l.89.02c.37,0,.58.44.35.73-1.37,1.66-4.23,3.29-6.68,3.82-.43.09-.49.67-.09.85l.37.16c.35.15.36.64.02.81-5.69,3.04-17.27-.4-20.06-.72l1.24-5.9Z"/>
    </g>
  </g>
</svg>