<?xml version="1.0" encoding="UTF-8"?>
<svg id="Layer_2" data-name="Layer 2" xmlns="http://www.w3.org/2000/svg" viewBox="0 0 243.64 243.34">
  <defs>
    <style>
      .cls-1 {
        fill: #f15a28;
      }

      .cls-2 {
        fill: #efe1cf;
      }
    </style>
  </defs>
  <g id="Layer_1-2" data-name="Layer 1">
    <path class="cls-2" d="M113.32.31c90.88-6.32,156.35,86.28,120.19,170.11-38.22,88.6-161.27,98.78-213.86,17.83C-30.8,110.59,21.43,6.7,113.32.31ZM82.36,48.21c-16.21,1.93-29.92,15.4-34.06,30.84-3.48,13.01-3.02,62.28-1.65,77.2,1.75,19.08,16.77,37.49,36.44,39.44,18.21,1.81,58.65,1.82,76.86,0,17.43-1.74,34.66-17.88,36.44-35.45,1.82-17.97,1.82-58.88,0-76.85-1.73-17.1-18.67-33.38-35.54-35.35-17.1-2-61.36-1.87-78.49.17Z"/>
    <path class="cls-1" d="M82.36,48.21c17.13-2.04,61.39-2.17,78.49-.17,16.87,1.97,33.8,18.24,35.54,35.35,1.82,17.97,1.82,58.89,0,76.85-1.78,17.56-19.01,33.71-36.44,35.45-18.2,1.82-58.64,1.81-76.86,0-19.66-1.95-34.68-20.36-36.44-39.44-1.37-14.92-1.84-64.19,1.65-77.2,4.13-15.44,17.85-28.9,34.06-30.84ZM90.36,63.2c-13.65,1.48-25.57,10.14-27.49,24.42-1.94,14.42-1.71,51.82-.25,66.63,1.56,15.83,14.17,25.3,29.41,26.5,13.38,1.05,58.87,1.63,69.98-1.98,12.78-4.15,18.51-15.83,19.45-28.47,1-13.33,1.62-56.88-1.98-67.99-2.79-8.6-11.04-16.06-19.77-18.16-12.31-2.97-55.71-2.43-69.34-.96Z"/>
    <path class="cls-2" d="M90.36,63.2c13.63-1.48,57.04-2.01,69.34.96,8.74,2.11,16.98,9.56,19.77,18.16,3.61,11.11,2.98,54.66,1.98,67.99-.95,12.64-6.67,24.32-19.45,28.47-11.11,3.6-56.6,3.03-69.98,1.98-15.24-1.2-27.84-10.67-29.41-26.5-1.46-14.81-1.7-52.21.25-66.63,1.93-14.29,13.84-22.95,27.49-24.42ZM158.18,75.09c-6.9,1.51-7.89,12.27-1.47,15.02,14.55,6.24,16.66-18.34,1.47-15.02ZM115.28,83.14c-42.19,5.79-42.98,70.5-.81,77.17,60.58,9.58,61.05-85.44.81-77.17Z"/>
    <path class="cls-1" d="M115.28,83.14c60.24-8.27,59.77,86.74-.81,77.17-42.17-6.67-41.38-71.38.81-77.17ZM104.9,138.43c20.61,20.56,53.56-7.67,35.58-31.09-19.69-25.65-58.77,7.96-35.58,31.09Z"/>
    <path class="cls-1" d="M158.18,75.09c15.19-3.32,13.07,21.26-1.47,15.02-6.41-2.75-5.43-13.51,1.47-15.02Z"/>
    <path class="cls-2" d="M104.9,138.43c-23.18-23.13,15.9-56.74,35.58-31.09,17.98,23.42-14.97,51.65-35.58,31.09Z"/>
  </g>
</svg>