<?xml version="1.0" encoding="UTF-8"?>
<svg id="Layer_2" data-name="Layer 2" xmlns="http://www.w3.org/2000/svg" viewBox="0 0 231.03 194">
  <defs>
    <style>
      .cls-1 {
        fill: #f15a28;
        stroke: #efe1cf;
        stroke-miterlimit: 10;
        stroke-width: 3px;
      }
    </style>
  </defs>
  <g id="Layer_1-2" data-name="Layer 1">
    <g>
      <path class="cls-1" d="M75.62,8.13c33.11-7.74,47.47,53.58,18.97,62.17-28.83,8.69-50.42-50.79-18.97-62.17Z"/>
      <path class="cls-1" d="M201.77,34.58c10.94-4.85,24.21,4.18,27.06,15.57,3.21,12.84-4.97,37.7-17.23,43.24-6.25,2.82-13.97,4.68-20.24,1.09-22.52-12.91-10.05-50.83,10.4-59.9Z"/>
      <path class="cls-1" d="M140.64,3.61c7.36-3.44,13.73-2.64,20.06,2.19,23.44,17.86,7.71,67.54-19.63,59.11-22.73-7.01-21.65-51.4-.43-61.31Z"/>
      <path class="cls-1" d="M23.84,45.67c17.45,2.84,28.96,21.26,28.96,38.05,0,6.13-1.85,12.79-7.19,16.34-4.74,3.15-10.85,3.53-16.35,2.91-7.07-.8-14.07-3.55-19.24-8.54-11.06-10.65-11.36-32.2-.92-43.51,3.78-4.1,9.2-6.14,14.74-5.24Z"/>
    </g>
    <path class="cls-1" d="M115.93,80.33c13.21-2.97,29.1.72,41.05,6.89,11.86,6.12,20.6,15.16,28.14,25.98,9.07,13,21.34,33.7,12.82,49.3-16.89,30.9-100.5,39.63-126.68,18.17-23.34-19.13-9.26-51.32,5.46-71.26,9.38-12.71,23.33-25.51,39.21-29.07Z"/>
  </g>
</svg>