<?xml version="1.0" encoding="UTF-8"?>
<svg id="Layer_2" data-name="Layer 2" xmlns="http://www.w3.org/2000/svg" xmlns:xlink="http://www.w3.org/1999/xlink" viewBox="0 0 587 830">
  <defs>
    <style>
      .cls-1 {
        letter-spacing: -.04em;
      }

      .cls-2 {
        letter-spacing: -.01em;
      }

      .cls-3 {
        letter-spacing: -.06em;
      }

      .cls-4 {
        stroke-width: 2.4px;
      }

      .cls-4, .cls-5, .cls-6, .cls-7, .cls-8, .cls-9 {
        stroke-miterlimit: 10;
      }

      .cls-4, .cls-5, .cls-7, .cls-8, .cls-9 {
        fill: none;
      }

      .cls-4, .cls-7, .cls-8 {
        stroke: #56a4da;
      }

      .cls-10 {
        fill: #231f20;
      }

      .cls-10, .cls-11, .cls-12 {
        font-family: FilsonProLight, 'Filson Pro';
        font-size: 16.89px;
      }

      .cls-13 {
        letter-spacing: -.02em;
      }

      .cls-5 {
        stroke-width: .82px;
      }

      .cls-5, .cls-9 {
        stroke: #f15a28;
      }

      .cls-14 {
        font-size: 23.07px;
      }

      .cls-14, .cls-15, .cls-16, .cls-17, .cls-18, .cls-19 {
        fill: #56a4da;
      }

      .cls-14, .cls-17 {
        font-family: FilsonProBold, 'Filson Pro';
      }

      .cls-20 {
        fill: #f15a28;
      }

      .cls-21 {
        letter-spacing: -.03em;
      }

      .cls-22 {
        letter-spacing: -.03em;
      }

      .cls-23 {
        letter-spacing: 0em;
      }

      .cls-24 {
        letter-spacing: -.02em;
      }

      .cls-25 {
        letter-spacing: 0em;
      }

      .cls-26 {
        letter-spacing: 0em;
      }

      .cls-27 {
        letter-spacing: -.04em;
      }

      .cls-28 {
        letter-spacing: -.01em;
      }

      .cls-29 {
        letter-spacing: -.03em;
      }

      .cls-30 {
        letter-spacing: -.01em;
      }

      .cls-31 {
        letter-spacing: -.02em;
      }

      .cls-32 {
        letter-spacing: -.02em;
      }

      .cls-33 {
        letter-spacing: 0em;
      }

      .cls-6 {
        stroke: #060707;
      }

      .cls-6, .cls-34, .cls-11, .cls-12 {
        fill: #efe1cf;
      }

      .cls-6, .cls-7, .cls-9 {
        stroke-width: .96px;
      }

      .cls-16 {
        font-size: 24px;
      }

      .cls-16, .cls-18, .cls-19 {
        font-family: Snicker-Bold, Snicker;
        font-weight: 700;
      }

      .cls-35 {
        letter-spacing: 0em;
      }

      .cls-36 {
        letter-spacing: -.06em;
      }

      .cls-37 {
        letter-spacing: 0em;
      }

      .cls-38 {
        letter-spacing: -.09em;
      }

      .cls-39 {
        letter-spacing: -.01em;
      }

      .cls-40 {
        letter-spacing: 0em;
      }

      .cls-41 {
        letter-spacing: -.02em;
      }

      .cls-42 {
        letter-spacing: 0em;
      }

      .cls-43 {
        letter-spacing: -.05em;
      }

      .cls-12 {
        letter-spacing: -.05em;
      }

      .cls-17, .cls-18 {
        font-size: 13.46px;
      }

      .cls-44 {
        letter-spacing: -.03em;
      }

      .cls-45 {
        letter-spacing: -.09em;
      }

      .cls-46 {
        letter-spacing: -.01em;
      }

      .cls-47 {
        letter-spacing: -.03em;
      }

      .cls-48 {
        letter-spacing: -.07em;
      }

      .cls-8 {
        stroke-width: 1.68px;
      }

      .cls-19 {
        font-size: 23px;
      }

      .cls-49 {
        letter-spacing: 0em;
      }

      .cls-50 {
        letter-spacing: 0em;
      }
    </style>
  </defs>
  <g id="Layer_1-2" data-name="Layer 1">
    <rect class="cls-34" width="587" height="830"/>
    <g>
      <path class="cls-15" d="M73.91,94.03c-.14-.88-.01-1.65,1.66-2.16,1.15-.33,2.35-.62,3.57-.82.59-.09,1.12-.18,1.67-.21,1.73-.12,2.07.42,2.43,2.72l.53,3.32c.48,3.03.9,6.01,1.33,8.99,1.9-.3,2.63-.12,3.22,1.09.32.75.56,1.61.7,2.49.09.54.17,1.07.17,1.67.06.99-.54,1.94-2.33,2.32l-.97.2c.28,3.01.49,6.23.61,9.51.03,1.45-.51,2.48-1.81,2.79-.48.13-1.02.21-1.55.3-1.02.16-2.06.28-3.11.29-1.4.02-2.21-.4-2.42-1.72-.02-.15-.08-1.14-.13-2.08-.19-2.47-.28-4.31-.57-7.36-1.9.35-3.85.66-5.85.98-2,.32-4,.63-6.01.9.61,2.9,1.15,5.37,1.64,7.19.16.68.39,1.49.42,1.68.19,1.22-.28,2-1.37,2.37-1.22.49-2.71.88-4.13,1.11l-.59.09c-1.76.28-2.53-.5-2.89-1.84-.96-3.2-1.75-6.28-2.49-9.36-1.66.26-2.41-.07-2.82-1.35-.22-.77-.27-1.06-.32-1.4-.13-.83-.17-1.67-.2-2.52-.04-1.49.62-1.75,1.83-2.04-.75-4.08-1.41-8.23-2.13-12.77-.34-2.15-.06-2.89,1.29-3.21.68-.16,1.35-.31,2.08-.43,1.32-.21,2.7-.33,3.95-.33s1.7.28,2.07,2.67c.68,3.99,1.38,8.08,2.11,12.07,3.25-.62,6.71-1.21,10.18-1.76l2.29-.36c-.3-2.2-.61-4.46-.97-6.75-.51-3.22-.96-5.4-1.1-6.28Z"/>
      <path class="cls-15" d="M112.97,111.5c-1.97,2.36-4.47,4.04-7.55,4.73-6.9,1.53-12.15-2.28-13.58-8.75-2.03-9.16,4.03-18.02,11.74-19.73,1.56-.35,3.3-.39,4.96-.08-.19-1.37.16-1.84,1.13-2.06,1.19-.26,3.57-.45,5.41-.35,1.89.09,2.75.41,3.31,2.94,1.41,6.36,2.77,14.03,3.42,20.78.2,2.16-.23,3.05-2.07,3.68-.62.25-1.43.43-2.24.61-.65.14-1.29.29-1.79.34-2.05.17-2.38-.55-2.73-2.11ZM110.2,95.16c-1.12-.2-2.32-.28-3.72.03-4.36.97-5.83,5.82-5.2,8.67.6,2.69,2.65,4.05,5.67,3.38,1.78-.39,3.44-1.55,4.76-3.54-.45-2.78-.93-5.73-1.5-8.54Z"/>
      <path class="cls-15" d="M123.82,81.16c1.52-.6,3.73-1.1,5.31-1.38,1.41-.25,1.84.29,2.11,1.82,1.78-2.33,4.71-3.85,7.59-4.35,6.52-1.14,12.46,2.36,14.08,11.6,1.42,8.1-4.19,15.47-11.04,16.67-2.45.43-4.68.48-6.65.1.48,2.44,1.77,11.78,2.09,13.63s.04,2.46-1.59,3.7c-1.24.94-3.57,2.36-4.76,2.57-.98.17-1.73-.26-2.12-1.53-1.75-5.86-3.6-18.08-4.78-24.82-.79-4.51-1.51-9.26-2.14-14.14-.28-2.25.12-3.16,1.9-3.86ZM133.31,95.36l.4,2.28c1.15.47,2.23.56,3.7.31,3.59-.63,6.53-4,5.94-7.37-.6-3.43-2.93-4.59-5.7-4.1-1.9.33-3.85,1.35-5.25,3.27.28,1.91.6,3.76.93,5.61Z"/>
      <path class="cls-15" d="M162.45,74.31c1.63-.04,3.88.26,5.46.54,1.41.26,1.63.91,1.35,2.43,2.47-1.57,5.75-1.99,8.62-1.46,6.52,1.18,10.88,6.52,9.2,15.75-1.47,8.09-9.27,13.07-16.11,11.83-2.44-.44-4.56-1.16-6.28-2.2-.39,2.45-.8,5.97-1.14,7.81-.33,1.79-.81,2.32-2.77,2.92-1.49.46-4.16.98-5.36.77-.98-.18-1.53-.84-1.46-2.17.38-6.1,1.26-12.5,2.48-19.24.82-4.51,1.78-9.21,2.88-14.01.51-2.21,1.2-2.92,3.12-2.97ZM166.44,90.91l-.41,2.28c.91.84,1.9,1.3,3.36,1.56,3.58.65,7.51-1.5,8.12-4.86.62-3.42-1.17-5.32-3.94-5.82-1.9-.34-4.08-.07-6.06,1.26-.4,1.89-.73,3.74-1.07,5.58Z"/>
      <path class="cls-15" d="M105.54,127.7l.36-1.5c.32-1.34.69-2.67,1.12-4.22.8-2.65,1.69-3.51,8.24-1.95,1.66.4,2,1.38,1.63,2.94-.15.64-1.3,4.29-2.02,6.84,1.21.4,2.42.8,3.66,1.32,1.4.56,1.73,1.32,1.4,2.71-.17.7-.59,2.01-1,3-.6,1.33-1.36,1.66-2.94,1.4-.99-.12-2.36-.33-2.9-.46-.96,4.76-2.76,19.26-3.12,20.76-.31,1.29-.88,1.78-2.43,1.63-1.39-.1-3.52-.89-4.89-1.29s-1.87-.96-1.68-2.72c.5-5.21,2.29-15.5,3.17-20.85l-1.36-.49c-1.47-.52-1.97-1.03-1.74-2.68.13-.76.29-1.69.42-2.23.57-2.42,1.25-2.65,4.1-2.2Z"/>
      <path class="cls-15" d="M138.18,158.01c-2.13,2.21-4.76,3.7-7.87,4.16-6.99,1.02-11.95-3.17-12.9-9.73-1.35-9.29,5.35-17.68,13.16-18.81,1.58-.23,3.32-.15,4.95.28-.09-1.38.29-1.83,1.28-1.97,1.2-.17,3.6-.19,5.42.05,1.87.23,2.71.61,3.08,3.18.94,6.45,1.73,14.19,1.88,20.98.04,2.17-.45,3.02-2.33,3.52-.64.2-1.46.32-2.28.44-.66.1-1.31.19-1.81.21-2.06.02-2.34-.72-2.57-2.3ZM136.62,141.51c-1.1-.29-2.3-.45-3.72-.24-4.42.64-6.25,5.37-5.83,8.26.4,2.73,2.34,4.23,5.4,3.79,1.8-.26,3.55-1.3,5-3.18-.24-2.81-.51-5.78-.86-8.63Z"/>
      <path class="cls-15" d="M154.21,136.51c1.19-.34,2.88-.59,4.42-.73.66-.06,1.26-.12,1.82-.12,1.1-.05,1.24.26,1.38,1.73.6,6.59.99,12,1.01,18.22,0,1.91.01,2.56-2.74,2.81-.99.09-2.04.14-3.04.14-2.27.02-2.72-.68-2.97-2.19-.37-2.2-.62-4.36-.82-6.53-.32-3.46-.47-6.93-.52-10.55-.08-1.43,0-2.46,1.46-2.78Z"/>
      <path class="cls-15" d="M168.98,109.43c1.66-.68,4.11-1.17,5.65-1.3,1.1-.1,1.64.39,1.82,2.46.17,2,.42,4.2.62,6.47,1.07,12.27,1.99,27.25,2.12,35.1.04,2.42.09,3.62-2.25,4.09-.43.11-.87.14-1.31.18-.6.05-1.15.1-1.71.08-2.27.06-2.8-.97-3.15-3.09-.62-3.91-1.32-10.03-1.91-16.84-.66-7.54-1.16-15.83-1.18-23.09-.04-3.02.24-3.65,1.31-4.08Z"/>
      <path class="cls-15" d="M200.1,133.52c-.75-.16-1.77.07-2.32.09-2.17.07-3.76.62-3.71,2.05.1,2.79,14.47,2.48,14.8,12.08.19,5.57-5.57,9.37-13.37,9.63-3.47.12-6.14-.22-8.65-1.13-1.13-.4-1.71-.93-1.74-1.99-.01-.37.03-.81.14-1.31.27-1.19.96-2.7,1.36-3.77.4-.88.7-1.33,1.26-1.34.37-.01.87.16,1.63.44,1.57.69,3.44.94,4.68.89,1.86-.06,3.14-.48,3.11-1.59-.1-2.79-12.98-2.65-13.31-12-.2-5.94,6.6-10.08,13.66-10.32,2.97-.1,3.77.56,6.34,1.34,1.32.39,4.59.89,4.65,2.56"/>
      <g>
        <path class="cls-15" d="M183.95,115.61s-.04-.07-.06-.1c.04.03.07.06.11.1v.03c.04.11.02.1-.05-.03Z"/>
        <path class="cls-15" d="M214.6,80.63c-.99-.11-2.38-.05-3.29.08-2.25.3-3,1-3.16,2.42-.09.82-.06,8.04-.56,13.54-2.3,1.19-4.62,1.6-6.43,1.39-1.37-.15-1.97-1.33-1.77-3.03.61-5.54,2.16-11.47,2.32-12.9.14-1.26-.33-2.04-1.5-2.55-.94-.5-2.24-.8-3.5-.94-2.36-.26-3.56.05-4.06,2.05-1.57,6.16-2.7,12.81-3.12,16.59-.75,6.75,4.64,8.18,7.66,8.52,3.29.36,6.58-.22,9.54-1.88-.09.05-.12.74-.14.86-.06.33-.11.65-.17.97-.12.63-.24,1.25-.38,1.87-.16.72-.33,1.44-.52,2.16-.22.83-1.04,1.35-1.89,1.19-1.51-.28-3.06-.45-4.58-.62-2.08-.23-4.16-.39-6.25-.52-1.84-.11-3.68-.18-5.52-.25-1.41-.06.69-.08-.72-.06-1.24.02-2.75-.02-3.82.68-1.03.67-1.62,1.82-1.6,3.05.02,1.05.12,2.1.15,3.15.05,1.23.45,2.27,1.62,2.84,1.12.55,2.34.44,3.54.4,2.56-.09,1.65.09,4.2.22,3.68.19,7.36.47,11.03.59,1.49.05,3.03.15,4.53.04,4.19.03,7.29-2.25,7.97-5.16.93-3.89,1.65-8.87,2.2-13.81.79-7.13,1.19-14.2,1.19-18.19.01-2.06-1-2.5-2.97-2.72ZM183.95,116.85s-.04-.07-.06-.1c.04.03.07.06.11.1v.03c.04.11.02.1-.05-.03Z"/>
        <path class="cls-15" d="M183.95,115.61s-.04-.07-.06-.1c.04.03.07.06.11.1v.03c.04.11.02.1-.05-.03Z"/>
      </g>
      <g>
        <path class="cls-15" d="M154.75,122.66c1.26-.28,2.78.07,3.92.66,1.13.58,1.97,1.45,2.69,2.48.87,1.24,2.04,3.22,1.22,4.71-1.61,2.95-9.6,3.78-12.1,1.73-2.23-1.83-.88-4.9.52-6.8.9-1.21,2.23-2.44,3.74-2.78Z"/>
        <path class="cls-15" d="M150.32,115.16c3.28-1.01,5.16,5.07,2.34,6.14-2.85,1.08-5.44-4.77-2.34-6.14Z"/>
        <path class="cls-15" d="M163.86,117.87c1.19-.24,2.3.95,2.33,2.13.03,1.34-1.32,3.61-2.65,3.89-.68.14-1.48.15-2.02-.34-1.94-1.77.13-5.23,2.34-5.68Z"/>
        <path class="cls-15" d="M157.5,114.3c.79-.24,1.41-.07,1.98.5,2.1,2.12-.17,6.87-2.79,5.64-2.18-1.02-1.45-5.45.82-6.14Z"/>
        <path class="cls-15" d="M145.16,120c1.7-.56,3.59.56,4.37,2.07.28.55.43,1.23.11,1.8-.28.5-.81.82-1.33,1.02-.67.26-1.43.33-2.12.13-1.49-.44-2.51-2.36-2.1-3.86.15-.54.54-.98,1.08-1.15Z"/>
      </g>
      <path class="cls-15" d="M199.53,125.29c15.15,2.79,26.93-.93,27.59-13.22.38-7.02-2.46-12.58-4.96-15.49-.4-.47,0-1.2.6-1.11,3.08.47,5.99,2.27,7.82,6.24.2.44.81.51,1.09.12l.66-.91c.26-.36.78-.34,1.04.01,1.71,2.39,2.32,6.99,2.15,12.33-.01.45.43.76.85.61l1.25-.46c.44-.16.9.19.85.65-.41,3.91-3.16,8.2-5.6,10.46-.42.39-.14,1.08.42,1.09l1.26.02c.52.01.82.62.49,1.03-1.93,2.34-5.96,4.64-9.42,5.39-.6.13-.69.95-.13,1.2l.52.23c.49.22.5.9.03,1.15-8.02,4.28-24.34-.57-28.27-1.02l1.75-8.32Z"/>
    </g>
    <path class="cls-15" d="M374.6,485.53c7.05,1.76,11.87-1.3,18.04-.56,10.26,1.23,3.29,14.61-.58,19.24-4.31,5.16-8.06,7.74-14.61,9.15-.21-.04-.41-.08-.61-.1.2.05.4.09.61.1-1.39.3-2.67.55-4.06.81-6.46,1.21-8.55.8-13.21,6.09-2.95,3.35-7.06,10.98-6.72-.22.3-9.67,1.55-19.56.85-29.25-.06-.87-.77-5.87-1.44-5.87-.95,1.5-1.31,4.08-1.44,5.87-.38,5.19-.12,11.8,0,17.1.1,4.41,1.34,11.28.84,15.43-.13,1.1-.49,2-1.48,2.6-1.7.29-4.85-5.52-5.98-6.73-5.56-5.92-11.7-4.1-18.55-6.03-8.79-2.49-19.44-14.43-18.29-23.98.83-6.94,11.87-3.31,16.04-3.02,5.13.36,12.89-1.13,15.05-6.52,3.55-8.84-8.19-22.8-15.85-13.82-5.19,6.09-1.9,15.36-12.57,15.87-12.99.62-8.02-15.46-4.77-22.64,7.05-15.48,19.08-28.63,37.23-28.99,7.46-.15,20.06-.43,27.04,1.02,14.1,2.94,23.82,15.21,29.6,27.69,3.58,7.73,8.52,24.59-5.79,22.85-7.37-.89-6.71-5.85-8.77-11.14-8.44-21.71-31.56,9.8-10.58,15.05Z"/>
    <g>
      <path class="cls-20" d="M325.88,334.84c13.66-1.05,27.44-.59,41,1.36,4.82.7,9.76,1.63,13.86,4.27,8.08,5.2,11.02,15.61,12.15,25.21.53,4.48.79,9.08-.37,13.44-2.07,7.79-8.54,13.79-15.82,17.13-7.28,3.34-15.36,4.37-23.31,5.16-6.84.67-13.81,1.18-20.53-.27-6.72-1.45-13.26-5.14-16.7-11.14-2.8-4.87-3.3-10.71-3.55-16.34-.39-9.02-.29-18.06-.18-27.08.03-2.98.25-6.36,2.52-8.27,1.71-1.44,8.7-3.6,10.92-3.47,6.79.37,8.86,4.9,14.18,9.16"/>
      <path class="cls-20" d="M325.88,347.39c9.21-.67,18.43-.73,27.64-.07,3.81.27,8.11.67,11.37,1.18,1.76.28,3.52.59,5.24,1.04.84.22,1.72.46,2.54.76-1.56-.58,1.72.97,1.79,1.01,2.11,1.23.54.5.17.12.53.54,1.05,1.06,1.57,1.61-1.38-1.5-.19-.32.08.16.48.82.98,1.62,1.42,2.47.15.29,1.07,2.49.56,1.14-.52-1.37.28.94.38,1.25.6,1.88,1.07,3.8,1.45,5.74.15.77.28,1.55.41,2.33.34,2.07-.14-2.18.04.31.16,2.27.36,4.49.36,6.77,0,1.65-.09,1.66-.7,3.74.7-2.36-2.18,3.59-.83,1.74-.95,1.29-2.16,2.4-3.34,3.47-1.86,1.7-.77.56-.35.28-.67.45-1.34.9-2.04,1.31s-1.41.79-2.12,1.16c-3.23,1.67.84-.24-1.37.58-1.98.73-4.02,1.3-6.07,1.77-4.37,1.01-5.69,1.11-9.97,1.54-4.63.47-9.3.89-13.95.69-2.93-.13-5.29-.46-8.65-1.84,1.78.73-.08-.1-.36-.27-.69-.43-1.4-.81-2.08-1.26,1.79,1.19-2.75-3.27-1.51-1.4-1.67-2.53-2.06-4.78-2.28-7.51-.37-4.61-.43-9.26-.47-13.89-.05-5.05,0-10.09.06-15.14.01-.9.05-1.82.04-2.73-.03-2.48-.11.03-.55.87-.43.82-3.98,3.47-2.09,2.17,1.91-1.32-2.41.69.32-.09.4-.12,4.61-1.17,4.62-1.26.05-.54-2.97,1.05-1.32.24-1.14-.19-1.29-.18-.45.02.9.27.7.17-.6-.31.45.34,1.88,1.35-.1-.27.66.54,1.27,1.15,1.88,1.73,1.54,1.46,3.03,2.94,4.66,4.3,5.18,4.31,12.52,5.12,17.59,0,4.4-4.44,5.21-13.41,0-17.74-3.6-2.99-6.65-6.66-10.64-9.18-5.35-3.38-11.54-4.2-17.64-3-3.89.77-8.06,2.2-11.47,4.21-6.53,3.87-8.72,11.11-9.1,18.29-.57,11.11-.61,22.81.57,33.87,1.38,12.97,7.14,24.28,19.09,30.28,11.03,5.55,23.15,5.47,35.13,4.22,11.17-1.16,22.74-2.83,32.43-9.04,10.59-6.8,17.62-17.29,18.47-30.07.7-10.63-1.71-22.82-6.77-32.2-6.38-11.83-17.64-16.84-30.31-18.62-14.21-1.99-28.43-2.63-42.75-1.59-6.48.47-12.76,5.43-12.44,12.55.28,6.4,5.49,13.05,12.44,12.55h0Z"/>
    </g>
    <text class="cls-16" transform="translate(41.13 42.56)"><tspan x="0" y="0">logo</tspan></text>
    <text class="cls-16" transform="translate(39.93 206.69)"><tspan x="0" y="0">Colours</tspan></text>
    <text class="cls-16" transform="translate(44.94 448.54)"><tspan class="cls-21" x="0" y="0">F</tspan><tspan x="15.05" y="0">onts</tspan></text>
    <text class="cls-16" transform="translate(46.04 619.63)"><tspan x="0" y="0">photo inspiration</tspan></text>
    <text class="cls-16" transform="translate(303.28 310.04)"><tspan x="0" y="0">elements</tspan></text>
    <text class="cls-19" transform="translate(45.49 474.38)"><tspan x="0" y="0">main - Snicker</tspan></text>
    <text class="cls-18" transform="translate(45.49 500.75)"><tspan x="0" y="0">AaBbCcDdEe</tspan><tspan class="cls-13" x="86.76" y="0">F</tspan><tspan x="95.33" y="0">fGgHhIiJjKKLlMm</tspan><tspan x="0" y="16.15">NnOo</tspan><tspan class="cls-44" x="36.74" y="16.15">P</tspan><tspan x="45.71" y="16.15">pQqRr</tspan><tspan class="cls-30" x="88.57" y="16.15">S</tspan><tspan class="cls-37" x="97.08" y="16.15">s</tspan><tspan class="cls-13" x="102.88" y="16.15">T</tspan><tspan class="cls-23" x="110.73" y="16.15">tUu</tspan><tspan class="cls-1" x="133.22" y="16.15">V</tspan><tspan x="142.21" y="16.15">v</tspan><tspan class="cls-1" x="149.19" y="16.15">W</tspan><tspan class="cls-37" x="162.59" y="16.15">wXx</tspan><tspan class="cls-13" x="188.58" y="16.15">Y</tspan><tspan class="cls-23" x="197.3" y="16.15">y</tspan><tspan class="cls-41" x="204.79" y="16.15">Z</tspan><tspan x="212.72" y="16.15">z</tspan></text>
    <text class="cls-14" transform="translate(45.49 546.67)"><tspan x="0" y="0">se</tspan><tspan class="cls-25" x="25.31" y="0">c</tspan><tspan x="37.82" y="0">ondar</tspan><tspan class="cls-47" x="106.09" y="0">y</tspan><tspan x="119.12" y="0" xml:space="preserve"> - filson p</tspan><tspan class="cls-33" x="224.45" y="0">r</tspan><tspan class="cls-42" x="233.56" y="0">o</tspan></text>
    <text class="cls-17" transform="translate(45.49 565.38)"><tspan class="cls-2" x="0" y="0">A</tspan><tspan class="cls-49" x="9.31" y="0">a</tspan><tspan x="18.1" y="0">Bb</tspan><tspan class="cls-28" x="35.87" y="0">C</tspan><tspan x="45.07" y="0">cD</tspan><tspan class="cls-40" x="62.69" y="0">d</tspan><tspan class="cls-30" x="71.5" y="0">E</tspan><tspan class="cls-49" x="79.37" y="0">e</tspan><tspan class="cls-30" x="87.59" y="0">F</tspan><tspan x="95.33" y="0">fG</tspan><tspan class="cls-40" x="110.61" y="0">gHh</tspan><tspan x="137.53" y="0">IiJjKKLlMm</tspan><tspan class="cls-40" x="0" y="16.15">Nn</tspan><tspan x="18.17" y="16.15">O</tspan><tspan class="cls-50" x="29" y="16.15">o</tspan><tspan class="cls-35" x="37.34" y="16.15">P</tspan><tspan x="45.92" y="16.15">pQ</tspan><tspan class="cls-49" x="65.64" y="16.15">q</tspan><tspan x="74.43" y="16.15">RrS</tspan><tspan class="cls-38" x="97.24" y="16.15">s</tspan><tspan class="cls-36" x="102.56" y="16.15">T</tspan><tspan class="cls-26" x="109.8" y="16.15">tU</tspan><tspan class="cls-43" x="125.59" y="16.15">u</tspan><tspan class="cls-31" x="133.18" y="16.15">V</tspan><tspan class="cls-46" x="142.06" y="16.15">v</tspan><tspan class="cls-2" x="149.98" y="16.15">W</tspan><tspan class="cls-27" x="163.21" y="16.15">w</tspan><tspan x="173.91" y="16.15">X</tspan><tspan class="cls-48" x="183.14" y="16.15">x</tspan><tspan class="cls-3" x="190.27" y="16.15">Y</tspan><tspan class="cls-39" x="199.25" y="16.15">y</tspan><tspan class="cls-23" x="207.06" y="16.15">Zz</tspan></text>
    <text class="cls-16" transform="translate(303.28 42.62)"><tspan x="0" y="0">old log</tspan><tspan class="cls-22" x="75.67" y="0">o</tspan><tspan class="cls-45" x="89.13" y="0">’</tspan><tspan x="94.05" y="0">s</tspan></text>
    <g>
      <path class="cls-20" d="M481.71,526.14c6.28-1.41,13.84.34,19.53,3.28s9.8,7.21,13.39,12.36c4.31,6.19,10.15,16.03,6.1,23.45-8.03,14.7-47.8,18.85-60.26,8.64-11.1-9.1-4.41-24.41,2.6-33.9,4.46-6.05,11.1-12.13,18.65-13.83Z"/>
      <path class="cls-20" d="M459.63,488.82c16.36-5.03,25.69,25.26,11.68,30.56-14.18,5.36-27.08-23.76-11.68-30.56Z"/>
      <path class="cls-20" d="M527.1,502.29c5.91-1.19,11.44,4.71,11.59,10.62.17,6.66-6.57,17.98-13.2,19.36-3.38.7-7.38.77-10.06-1.68-9.65-8.81.63-26.07,11.68-28.29Z"/>
      <path class="cls-20" d="M495.43,484.52c3.91-1.2,7.03-.36,9.85,2.49,10.44,10.54-.87,34.21-13.91,28.1-10.84-5.08-7.2-27.13,4.06-30.59Z"/>
      <path class="cls-20" d="M433.93,512.9c8.46-2.77,17.87,2.81,21.75,10.31,1.42,2.74,2.13,6.15.57,8.97-1.39,2.5-4.03,4.09-6.64,5.08-3.35,1.28-7.11,1.67-10.58.63-7.41-2.21-12.53-11.77-10.48-19.24.74-2.71,2.69-4.88,5.37-5.75Z"/>
    </g>
    <path class="cls-9" d="M40.5,57.5h210v96.23c0,14.23-11.55,25.77-25.77,25.77H40.5V57.5h0Z"/>
    <path class="cls-9" d="M303.5,58.5h210v96.23c0,14.23-11.55,25.77-25.77,25.77h-184.23V58.5h0Z"/>
    <path class="cls-5" d="M303.5,188.5h210v58.81c0,16.11-13.08,29.19-29.19,29.19h-180.81v-88h0Z"/>
    <g>
      <g>
        <path class="cls-15" d="M387.01,141.06c1.61,0,3.71.33,6.39,2.31l-2.07,3.32c-1.52-1.37-3.32-1.55-4.11-1.55-2.65,0-4.41,1.67-4.41,4.05s1.77,4.05,4.41,4.05c.79,0,2.59-.18,4.11-1.55l2.07,3.32c-2.68,1.98-4.78,2.31-6.39,2.31-5.36,0-8.74-3.5-8.74-8.13s3.38-8.13,8.74-8.13Z"/>
        <path class="cls-15" d="M396,157v-22h5v22h-5Z"/>
        <path class="cls-15" d="M420,157h-5v-2.18c-1.26,1.87-2.84,2.53-4.65,2.53-4.21,0-5.35-3.59-5.35-7.64v-8.7h4v8.4c0,2.16.81,3.81,2.95,3.81s3.05-1.67,3.05-3.84v-8.37h5v16Z"/>
        <path class="cls-15" d="M432.75,157.35c-2.28,0-3.78-1-4.75-2.62v2.27h-5v-22h5v8.52c.91-1.43,2.74-2.47,4.84-2.47,4.87,0,7.52,3.68,7.52,8.07s-2.86,8.22-7.61,8.22ZM431.92,144.74c-2.47,0-4.2,1.77-4.2,4.66s1.86,4.26,4.08,4.26c2.5,0,4.02-2.01,4.02-4.51s-1.4-4.41-3.9-4.41Z"/>
      </g>
      <g>
        <path class="cls-15" d="M333.97,107.27l3.46-7.55-7.36-3.38-3.46,7.55-4.29-1.97,8.88-19.37,4.29,1.97-3.86,8.41,7.36,3.38,3.86-8.41,4.29,1.97-8.88,19.37-4.29-1.97Z"/>
        <path class="cls-15" d="M363.88,101.13l-4.61,14.92-4.33-1.34.67-2.18c-1.55,1.21-3.27,1.73-5.46,1.06-4.54-1.4-6.2-5.74-4.85-10.1,1.29-4.19,4.91-6.93,9.57-5.49,2.01.62,3.45,2.15,4.04,3.83l.63-2.04,4.33,1.34ZM352.14,110.35c2.12.66,4.32-.16,5.16-2.87.85-2.76-.28-4.96-2.64-5.69-2.39-.74-4.32.77-5.03,3.07-.74,2.39.13,4.75,2.51,5.49Z"/>
        <path class="cls-15" d="M363.22,124.35l4.19-22.36,4.46.84-.42,2.24c1.4-1.38,3.06-2.09,5.3-1.67,4.67.88,6.81,4.99,5.97,9.48-.81,4.31-4.09,7.44-8.88,6.54-2.07-.39-3.67-1.74-4.45-3.34l-1.71,9.1-4.46-.84ZM375.14,106.85c-2.18-.41-4.27.65-4.8,3.44-.53,2.84.85,4.9,3.27,5.35,2.45.46,4.2-1.26,4.64-3.62.46-2.45-.67-4.71-3.12-5.17Z"/>
        <path class="cls-15" d="M385.11,128.11l1.77-22.67,4.52.35-.18,2.28c1.25-1.52,2.81-2.41,5.09-2.23,4.74.37,7.3,4.24,6.95,8.79-.34,4.37-3.27,7.84-8.13,7.46-2.09-.16-3.83-1.34-4.79-2.85l-.72,9.23-4.52-.35ZM395.08,109.44c-2.22-.17-4.18,1.11-4.4,3.93-.22,2.88,1.37,4.78,3.83,4.97,2.49.19,4.04-1.7,4.23-4.1.19-2.49-1.17-4.61-3.66-4.81Z"/>
        <path class="cls-15" d="M416.86,106l5.03-.09-9.79,23.09-4.53.08,3.33-8.26-6.49-13.81h5.02l3.88,9.38,3.55-10.38Z"/>
        <path class="cls-15" d="M435.78,104.85l4.28-.58.48,3.53-4.28.58.98,7.24c.09.66.46,1.32,1.33,1.2.87-.12,1.08-.88.98-1.61-.06-.45-.27-1.07-.39-1.3l3.56-.48c.35.54.54,1.25.61,1.79.31,2.29-.88,4.82-4.53,5.32-2.72.37-5.5-.23-6.11-4.73l-.93-6.82-2.32.32-.48-3.53,2.65-.36.18-3.9,3.47-.47.52,3.8Z"/>
        <path class="cls-15" d="M459.54,100.07l3.54,15.21-4.42,1.03-.52-2.22c-.73,1.83-1.96,3.14-4.18,3.66-4.63,1.08-8.24-1.83-9.28-6.28-.99-4.27.75-8.46,5.49-9.57,2.05-.48,4.06.12,5.42,1.27l-.48-2.08,4.42-1.03ZM454.05,113.95c2.17-.5,3.65-2.32,3.01-5.08-.66-2.82-2.75-4.14-5.15-3.58-2.43.57-3.34,2.84-2.79,5.18.57,2.43,2.51,4.04,4.94,3.48Z"/>
        <path class="cls-15" d="M463.25,91.73c1.54-.49,3.08.13,3.55,1.58.46,1.42-.44,2.8-1.98,3.29-1.57.5-3.04-.11-3.5-1.53-.47-1.45.37-2.84,1.93-3.34ZM467.89,113.71l-4.79-14.87,4.32-1.39,4.79,14.87-4.32,1.39Z"/>
        <path class="cls-15" d="M476.63,110.77l-7.83-20.57,4.24-1.61,7.83,20.57-4.24,1.61Z"/>
        <path class="cls-15" d="M485.01,101.47c1.17,1.43,2.84,1.26,3.97.73.91-.43,1.68-1.22,1.34-1.94-.22-.47-.65-.67-1.55-.59l-2.97.11c-3.92.39-5.13-1.77-5.43-2.4-1.33-2.84.49-5.5,3.52-6.92,1.63-.76,2.57-1.46,5.08.46l-.93,1.05c-.89-.96-2.16,1.32-2.79,1.62-.77.36-1.37,1.18-1.03,1.89.28.61,1.05.65,1.89.59l2.51-.17c3.79-.59,5.11,1.44,5.55,2.38,1.35,2.9-.63,5.64-3.74,7.09-2.1.98-5.27,1.66-7.62-.84l2.19-3.08Z"/>
      </g>
      <path class="cls-15" d="M485.27,92.74c3.44-1.65,6.16-4.88,5.69-8.88-.36-3.09-1.74-6.01-4.19-7.98-.51-.41-1.06-.84-1.66-1.12l-1.28,2.19c.25.11.48.26.71.41.11.08.22.16.34.24.21.15-.2-.16,0,0,.08.06.16.13.23.19.32.27.62.56.91.87.39.43.5.57.8.99.36.52.67,1.07.95,1.63.65,1.34,1.01,2.81,1.22,4.27v-.67c-.1.67-.19,1.35-.4,2-.03.1-.07.2-.1.3-.03.07-.05.13-.08.2.05-.11.05-.12.01-.03-.16.37-.33.73-.55,1.07-.69,1.13-1.88,2.17-3.01,2.61-.64.25-1.08.85-.89,1.56.17.61.92,1.14,1.56.89,3.54-1.39,6.5-5.4,5.77-9.32-.58-3.13-2.07-6.26-4.58-8.3-.5-.4-1.03-.83-1.62-1.09-.63-.28-1.36-.18-1.74.46-.32.55-.17,1.44.46,1.74.35.16.67.38.99.6.04.03.29.22.14.1s.09.07.12.1c.18.15.36.31.54.48s.36.35.52.54c.19.21.38.44.45.53,1.57,2.13,2.64,5.41,1.27,7.9-.85,1.55-2.32,2.59-3.88,3.34-.62.3-.78,1.18-.46,1.74.37.63,1.12.75,1.74.46h0Z"/>
      <path class="cls-15" d="M483.86,78.13c1.72,1.53,3.23,3.79,3.36,6.08-.88-2.12-2.13-4.14-3.4-6.05,0,0,.04-.03.04-.03h0Z"/>
      <path class="cls-15" d="M483.7,80.03c1.07,1.11,2.01,2.57,2.21,4.08-.57-1.42-1.4-2.78-2.23-4.06,0,0,.02-.01.02-.01h0Z"/>
      <path class="cls-15" d="M487.83,75.63c2.21,1.3,3.69,3.85,3.74,6.41,0,0-.05.01-.05.01-.61-2.42-2.11-4.65-3.69-6.42h0Z"/>
      <path class="cls-15" d="M489.95,76.12c1.23.89,2.19,2.53,2.04,4.05-.22-1.53-1.1-2.92-2.04-4.05h0Z"/>
    </g>
    <g>
      <path class="cls-15" d="M482.48,198.95c10.4,5.06,11.87,19.2,2.96,26.51-.66.55-1.64.46-2.18-.2-.58-.69-.43-1.75.32-2.25,1.83-1.27,3.36-3.03,4.37-5.08,3.4-6.53.55-14.81-5.73-18.47-.33-.16-.07-.68.26-.51h0Z"/>
      <g>
        <path class="cls-15" d="M342.68,241.36l3.14-7.22-7.04-3.06-3.14,7.22-4.1-1.78,8.05-18.51,4.1,1.78-3.49,8.04,7.04,3.06,3.49-8.04,4.1,1.78-8.05,18.51-4.1-1.78Z"/>
        <path class="cls-15" d="M370.89,234.99l-4.08,14.22-4.13-1.19.6-2.08c-1.45,1.17-3.07,1.7-5.15,1.1-4.32-1.24-5.98-5.32-4.78-9.47,1.15-3.99,4.52-6.65,8.96-5.38,1.91.55,3.31,1.97,3.9,3.55l.56-1.94,4.13,1.19ZM359.95,243.94c2.02.58,4.09-.24,4.83-2.81.76-2.63-.36-4.69-2.61-5.34-2.27-.65-4.07.81-4.7,3-.65,2.27.21,4.5,2.48,5.15Z"/>
        <path class="cls-15" d="M370.7,256.99l3.55-21.25,4.24.71-.36,2.13c1.3-1.33,2.86-2.04,4.99-1.68,4.44.74,6.54,4.6,5.83,8.87-.68,4.1-3.73,7.13-8.29,6.37-1.96-.33-3.51-1.58-4.28-3.08l-1.44,8.65-4.24-.71ZM381.67,240.19c-2.08-.35-4.04.7-4.48,3.35-.45,2.7.89,4.62,3.2,5.01,2.33.39,3.96-1.27,4.33-3.52.39-2.33-.72-4.45-3.05-4.84Z"/>
        <path class="cls-15" d="M391.51,260.14l1.25-21.51,4.29.25-.13,2.16c1.15-1.46,2.62-2.33,4.78-2.21,4.49.26,7,3.87,6.75,8.19-.24,4.15-2.95,7.48-7.55,7.22-1.99-.12-3.66-1.19-4.59-2.61l-.51,8.75-4.29-.25ZM400.6,242.26c-2.1-.12-3.94,1.13-4.09,3.81-.16,2.73,1.39,4.5,3.72,4.64,2.36.14,3.8-1.69,3.93-3.96.14-2.36-1.19-4.34-3.55-4.48Z"/>
        <path class="cls-15" d="M421.17,239.11l4.73-.18-8.77,21.89-4.32.16,3.08-8.11-6.58-13.32,4.84-.18,3.86,9.12,3.17-9.38Z"/>
        <path class="cls-15" d="M439.06,237.15l4.05-.63.52,3.33-4.05.63,1.07,6.84c.1.63.46,1.24,1.28,1.11.83-.13,1-.86.9-1.54-.07-.43-.27-1.01-.4-1.22l3.36-.53c.34.5.53,1.17.61,1.68.34,2.17-.74,4.58-4.19,5.12-2.56.4-5.21-.12-5.88-4.36l-1.01-6.44-2.19.34-.52-3.33,2.51-.39.09-3.69,3.28-.51.56,3.59Z"/>
        <path class="cls-15" d="M461.47,232.18l3.64,14.34-4.17,1.06-.53-2.1c-.66,1.74-1.79,3.01-3.89,3.55-4.36,1.11-7.84-1.58-8.91-5.77-1.02-4.03.55-8.03,5.02-9.16,1.93-.49,3.85.03,5.16,1.1l-.5-1.96,4.17-1.06ZM456.53,245.42c2.04-.52,3.41-2.27,2.75-4.87-.67-2.66-2.68-3.87-4.94-3.3-2.29.58-3.11,2.75-2.55,4.96.58,2.29,2.45,3.78,4.74,3.2Z"/>
        <path class="cls-15" d="M464.82,224.21c1.45-.5,2.92.06,3.39,1.43.46,1.34-.37,2.66-1.81,3.16-1.47.51-2.88-.04-3.34-1.38-.47-1.36.29-2.69,1.77-3.2ZM469.64,244.94l-4.81-13.99,4.06-1.4,4.81,13.99-4.06,1.4Z"/>
        <path class="cls-15" d="M477.86,241.98l-7.8-19.34,3.99-1.61,7.8,19.34-3.99,1.61Z"/>
        <path class="cls-15" d="M485.61,233.02c1.14,1.34,2.71,1.14,3.78.62.85-.42,1.57-1.19,1.24-1.86-.22-.44-.63-.62-1.48-.53l-2.81.16c-3.7.44-4.89-1.58-5.18-2.17-1.31-2.67.36-5.22,3.2-6.62,1.53-.75,1.25-3.05,3.67-1.29l-.2.94c-.46,1.28-1.65,2.53-2.15,3.03-.57.57-1.24,1.39-.91,2.06.28.57,1,.6,1.8.53l2.37-.2c3.58-.63,4.87,1.27,5.3,2.15,1.34,2.72-.49,5.35-3.41,6.79-1.97.97-4.96,1.67-7.23-.65l2.02-2.95Z"/>
        <g>
          <path class="cls-8" d="M340.01,219.09l-4.14-1.82c-1.6-.78-3.52-.29-4.19.88s-1.75,1.4-2.65,1l-3.8-1.66c-.43-.19-1.05-.57-1.43.29-2.58,5.91.67,8.29,2.59,9.12s3.5,3.63,2.54,5.82l-.34.77c-.16.36,0,.79.37.95l3.14,1.43"/>
          <path class="cls-4" d="M337.97,218.88l-2,4.63c-.99,2.46,2.34,3.31,2.34,3.31"/>
          <circle class="cls-7" cx="333.5" cy="220.5" r="1"/>
          <path class="cls-15" d="M323.32,221.35c.89.89,1.8,1.75,2.92,2.17,1.13.43,2.46.3,3.71,0-1.17.51-2.49.93-3.89.69-1.39-.25-2.58-1.03-3.67-1.77l.93-1.1h0Z"/>
        </g>
      </g>
      <path class="cls-15" d="M482.54,203.04c4.33,2.02,5.66,8,3.56,12.06,0,0-.09-.02-.09-.02.61-3.19.24-6.66-1.43-9.48-.54-.96-1.31-1.73-2.1-2.48,0,0,.06-.07.06-.07h0Z"/>
      <path class="cls-15" d="M488.61,200.57c4.14,2.33,6.41,7.57,5.45,12.2,0,0-.1,0-.1,0-.19-4.66-2.4-8.91-5.36-12.2h0Z"/>
    </g>
    <path class="cls-6" d="M45.5,219.5h84v59.25c0,13.67-11.08,24.75-24.75,24.75h-59.25v-84Z"/>
    <path class="cls-20" d="M151,219h84v59.25c0,13.66-11.09,24.75-24.75,24.75h-59.25v-84h0Z"/>
    <path class="cls-15" d="M45,329h84v59.25c0,13.66-11.09,24.75-24.75,24.75h-59.25v-84h0Z"/>
    <path d="M151,329h84v59.25c0,13.66-11.09,24.75-24.75,24.75h-59.25v-84h0Z"/>
    <text class="cls-10" transform="translate(52.08 236.68)"><tspan x="0" y="0">#EFE1C</tspan><tspan class="cls-32" x="59.44" y="0">F</tspan></text>
    <text class="cls-11" transform="translate(158.35 237.21)"><tspan x="0" y="0">#F15A28</tspan></text>
    <text class="cls-11" transform="translate(48.15 346.14)"><tspan x="0" y="0">#56A4</tspan><tspan class="cls-24" x="55.33" y="0">D</tspan><tspan class="cls-29" x="67.26" y="0">A</tspan></text>
    <text class="cls-12" transform="translate(154.37 346.14)"><tspan x="0" y="0">#000000</tspan></text>
    <path class="cls-15" d="M430.02,352.37c17.65-.43,35.29-.85,52.94-1.28,16.65-.4,34.21-2.6,50.57,2.01-1.88-2.25-3.75-4.49-5.63-6.74-.11-.3,1.61-5.55,2.08-5.03,0-.01-1.15.16-1.23.15-2.06-.16-4.29.29-6.36.42-4.51.29-9.02.55-13.53.78-8.75.45-17.51.81-26.27,1.06-8.49.25-16.99.4-25.49.46-6.7.05-14.69,1.35-20.69-2.96-8.92-6.4-21.68-1.43-8.14,16.66,4.86,6.5,13.38,5.52,20.55,5.61,7.8.09,15.62-.07,23.42-.23,16.2-.33,32.39-.99,48.56-2,7.17-.45,16.39.49,21.02-7.49,2.2-3.79,2.87-8.17,1.63-12.58-1.76-6.27-6.73-7.24-11.54-8.17-15.37-2.97-31.08-1.7-46.58-1.32-18.44.44-36.87.89-55.31,1.33-10.36.25-10.4,19.54,0,19.29h0Z"/>
    <path class="cls-20" d="M434.32,391.55c16.88-.11,33.76.18,50.63.55,8.12.18,16.28.21,24.38.92,3.55.31,7.04.88,10.51,1.62,2.17.46,4.32.99,6.47,1.53,1.65.42,3.17,1.59,1.87-.14,1.7-3.71,3.39-7.42,5.09-11.13-8.04,1.53-16.47,1.72-24.66,2.18-8.25.46-16.5.77-24.76.94-8.2.17-16.42.25-24.62.07-4.29-.09-8.6-.25-12.87-.71-3.28-.35-7.97-.56-10.93-1.93l3.05,2.72-.3-.53,1.16,3.82c-.16-1.32.03-.09-.45.18,9.22-5.22.69-18.33-8.59-13.08-4.8,2.72-8.07,7.1-8.06,12.29,0,5.84,5.11,8.43,10.79,9.68,11.46,2.52,23.38,2.77,35.12,2.78,11.57.01,23.13-.26,34.68-.8s23.58-.84,34.96-3.01c5.19-.99,8.03-7.2,5.09-11.13-4.89-6.52-15.24-7.95-23.35-9.26-9.19-1.49-18.51-1.81-27.82-2.01-19.12-.43-38.25-.83-57.38-.7-10.95.07-10.98,15.22,0,15.15h0Z"/>
    <path class="cls-15" d="M544,460.31c-.25,16.69-21.38,22.13-29.51,7.49-1.71-2.75-3.73-4.82-7.16-5.01-12.9.26-25.87.79-38.79.2-3.37-.09-6.97-.21-10.11,1.09-5.73,2.39-8.09,9.7-14.17,11.86-8.75,3.83-19.34-1.93-21.14-11.4-1.38-5.86.89-11.6,4.75-15.95,3.33-3.92-1.83-6.91-3.33-10.37-6.56-12.81,5.56-27.93,19.49-22.58,1.91.75,3.63,1.89,5.09,3.31,3.25,3.16,5.32,7.74,9.5,9.62,2.21,1.06,4.75,1.43,7.2,1.61,12.77.64,25.58.53,38.35-.06,12.46-.07,7.47-11.23,20.09-14.98,13.5-3.78,24.21,11.01,17.92,23.13-1.04,2.22-3.19,4.2-3.73,6.4-.51,3.46,2.78,5.27,4.15,8.86.92,2.08,1.39,4.36,1.4,6.64v.14Z"/>
    <image width="4160" height="5547" transform="translate(272 605) scale(.04)" xlink:href="../../../../../../../../Downloads/happy tails_v2/happy tails_v2/Links/pexels-impact-dog-crates-1789722873-28948932.jpg"/>
    <image width="3360" height="5040" transform="translate(427 605) scale(.04)" xlink:href="../../../../../../../../Downloads/happy tails_v2/happy tails_v2/Links/pexels-blue-bird-7210438.jpg"/>
  </g>
</svg>