<?xml version="1.0" encoding="UTF-8"?>
<svg id="Layer_2" data-name="Layer 2" xmlns="http://www.w3.org/2000/svg" xmlns:xlink="http://www.w3.org/1999/xlink" viewBox="0 0 544.3 380.54">
  <defs>
    <style>
      .cls-1 {
        fill: #231f20;
      }

      .cls-2 {
        fill: none;
      }

      .cls-3 {
        fill: #56a4da;
      }

      .cls-4 {
        fill: #efe1cf;
      }

      .cls-5 {
        clip-path: url(#clippath);
      }
    </style>
    <clipPath id="clippath">
      <path class="cls-2" d="M176.09,158.68c-3-27.01-5.8-56.02-20.65-79.61-16.26-25.82-43.63-43.6-74.68-43.39-21.16.12-41.55,16.17-45.65,36.97-10.76,33.85-20.12,68.26-26.54,103.24-8.11,44.31-18.99,98.84,12.84,136.38,21.19,24.99,55.42,29.45,84.07,15.93,16.67-7.85,32.96-19.55,44.99-33.55,18.31-21.37,26.92-45.32,28.29-73.46,1.04-20.74-.39-41.87-2.67-62.5Z"/>
    </clipPath>
  </defs>
  <g id="Layer_1-2" data-name="Layer 1">
    <path class="cls-4" d="M516.02,84.97c-26.2-48.53-72.41-69.12-124.38-76.41C333.33.38,274.97-2.24,216.21,2.02c-1.83.13-3.65.36-5.47.67-5.41.27-10.84.95-16.25,2.02-15.97,3.16-33.06,9.01-47.05,17.3-26.82,15.88-35.81,45.62-37.33,75.07-2.36,45.59-2.51,93.62,2.32,139.02,5.66,53.21,29.32,99.64,78.33,124.29,45.27,22.77,95.03,22.43,144.18,17.31,45.86-4.77,93.35-11.6,133.09-37.12,43.45-27.91,72.33-70.97,75.79-123.43,2.88-43.62-7-93.66-27.79-132.17Z"/>
    <g>
      <path class="cls-3" d="M188.09,76.16l-7.29-17.41-1.54,17.75h-6.46l2.71-29.16h6.5l8.17,19.62,8.16-19.62h6.5l2.71,29.16h-6.46l-1.54-17.75-7.29,17.41h-4.17Z"/>
      <path class="cls-3" d="M234.2,55.12v21.37h-6.21v-3.12c-1.54,2.21-3.58,3.58-6.71,3.58-6.5,0-10.41-5-10.41-11.25s3.62-11.04,10.29-11.04c2.88,0,5.37,1.42,6.83,3.38v-2.92h6.21ZM222.58,71.91c3.04,0,5.58-1.96,5.58-5.83s-2.38-6.37-5.75-6.37-5.33,2.75-5.33,6.04,2.08,6.17,5.5,6.17Z"/>
      <path class="cls-3" d="M245.57,59.79c.71-3.87,4-5.12,5.87-5.12.71,0,.92.04,1.58.17v6.12c-.88-.21-2-.29-2.62-.29-2.33,0-4.67,1.38-4.67,4.21v11.62h-6.21v-21.37h6.04v4.67Z"/>
      <path class="cls-3" d="M259.48,45.91c2.21,0,3.96,1.46,3.96,3.54s-1.75,3.46-3.96,3.46-3.92-1.42-3.92-3.46,1.67-3.54,3.92-3.54ZM256.31,76.49v-21.37h6.21v21.37h-6.21Z"/>
      <path class="cls-3" d="M288.8,72.74c-3.04,3.33-7.08,4.21-9.96,4.21-7.92,0-12.25-4.96-12.25-11.04s4.92-11.25,11.79-11.25c5.92,0,11.58,4.08,11.58,12.58h-17.2c.12,2.67,2.58,4.62,6.54,4.62,2.21,0,4.42-1.12,5.92-2.54l3.58,3.42ZM272.89,63.49h10.71c-.42-2.75-3.21-3.79-5.29-3.79s-4.67.92-5.42,3.79Z"/>
      <path class="cls-3" d="M314.79,84.45l-3.96,2.29c-2.54-2.67-8.21-11.21-8.21-21.45s5.67-18.83,8.21-21.5l3.96,2.29c-2.08,3-5.92,10.75-5.92,19.2s3.83,16.16,5.92,19.16Z"/>
      <path class="cls-3" d="M333.2,66.66c0-2.83-2.46-4.75-5.17-4.75-.62,0-2.29.12-3.87.79l-2.42-3.25,8.33-7h-11.96v-5.12h20.54v3.67l-7.87,6.62c4.62.46,8.75,4.54,8.75,9,0,5.54-4.67,10.33-12.41,10.33-4.29,0-8-1.08-10.66-3.5l3.08-3.96c3.42,2,5.92,2.21,7.67,2.21,3.5,0,6-2.54,6-5.04Z"/>
      <path class="cls-3" d="M361,66.66c0-2.83-1.67-4.75-3.52-4.75-.43,0-1.56.12-2.64.79l-1.65-3.25,5.68-7h-8.15v-5.12h13.99v3.67l-5.36,6.62c3.15.46,5.96,4.54,5.96,9,0,5.54-3.18,10.33-8.46,10.33-2.92,0-5.45-1.08-7.27-3.5l2.1-3.96c2.33,2,4.03,2.21,5.22,2.21,2.38,0,4.09-2.54,4.09-5.04Z"/>
      <path class="cls-3" d="M367.85,46.08l3.96-2.29c2.54,2.67,8.21,11.21,8.21,21.5s-5.67,18.79-8.21,21.45l-3.96-2.29c2.08-3,5.92-10.75,5.92-19.16s-3.83-16.21-5.92-19.2Z"/>
    </g>
    <g class="cls-5">
      <image width="3360" height="5040" transform="translate(-27.93 30.4) scale(.06)" xlink:href="../../../../../../../../Downloads/happy tails_Folder/happy tails_Folder/Links/pexels-blue-bird-7210438.jpg"/>
    </g>
    <g>
      <path class="cls-1" d="M196.91,124.23v-11.9h4.96c2.28,0,3.59,1.73,3.59,3.74,0,1.77-1.02,3.25-2.81,3.59.12,1.29.94,3.31,2.26,3.31.59,0,1.07-.24,1.39-.54l.6,1.16c-.56.58-1.33.83-2.09.83-2.79,0-3.65-3.25-3.77-4.69h-2.43v4.5h-1.7ZM201.51,118.36c1.36,0,2.18-.95,2.18-2.31s-.83-2.33-2.18-2.33h-2.91v4.64h2.91Z"/>
      <path class="cls-1" d="M212.02,115.54c2.46,0,4.47,2.01,4.47,4.44s-2.01,4.44-4.47,4.44-4.45-1.97-4.45-4.44,2.01-4.44,4.45-4.44ZM212.02,122.95c1.56,0,2.82-1.33,2.82-2.96s-1.26-2.99-2.82-2.99-2.8,1.34-2.8,2.99,1.26,2.96,2.8,2.96Z"/>
      <path class="cls-1" d="M224.58,119.43c0-1.8-.83-2.43-1.73-2.43s-2.74.6-2.74,3.28v3.94h-1.65v-8.5h1.65v1.7c.36-1.21,1.46-1.89,2.86-1.89,1.84,0,3.26,1.16,3.26,3.89v4.79h-1.65v-4.79Z"/>
      <path class="cls-1" d="M229.41,115.73h1.65v10.11c0,1.6-1.31,2.38-2.65,2.38-1.65,0-2.52-.95-2.52-2.16,0,0,0-.58.15-.92h1.5c-.12.25-.14.58-.14.7,0,.63.46.93.99.93.56,0,1.02-.32,1.02-1.02v-10.03ZM229.09,112.99c0,.65.49,1.14,1.14,1.14s1.16-.49,1.16-1.14-.51-1.16-1.16-1.16-1.14.51-1.14,1.16Z"/>
      <path class="cls-1" d="M237.32,115.54c1.14,0,2.26.39,3.08,1.55v-1.36h1.65v8.5h-1.65v-1.36c-.82,1.16-1.94,1.55-3.08,1.55-2.55,0-4.22-2-4.22-4.44s1.67-4.44,4.22-4.44ZM237.52,117c-1.77,0-2.77,1.36-2.77,2.97s1,2.98,2.77,2.98,2.89-1.26,2.91-2.98c-.02-1.72-1.19-2.97-2.91-2.97Z"/>
      <path class="cls-1" d="M253.67,115.98h1.39l1.94,6.03,2.21-6.29h1.72l-3.08,8.5h-1.56l-1.92-5.92-1.92,5.92h-1.56l-3.08-8.5h1.72l2.21,6.29,1.94-6.03Z"/>
      <path class="cls-1" d="M265.98,115.54c1.14,0,2.26.39,3.08,1.55v-1.36h1.65v8.5h-1.65v-1.36c-.82,1.16-1.94,1.55-3.08,1.55-2.55,0-4.22-2-4.22-4.44s1.67-4.44,4.22-4.44ZM266.18,117c-1.77,0-2.77,1.36-2.77,2.97s1,2.98,2.77,2.98,2.89-1.26,2.91-2.98c-.02-1.72-1.19-2.97-2.91-2.97Z"/>
      <path class="cls-1" d="M277.15,117.89c-.27-.76-.8-.93-1.33-.93-.77,0-1.26.48-1.26,1.09,0,.56.51.85,1.02,1.02l1.22.41c1.61.49,2.04,1.5,2.04,2.4,0,1.61-1.41,2.55-3.06,2.55-1.5,0-2.89-.76-3.28-2.23l1.46-.36c.2.68.97,1.17,1.84,1.17s1.46-.49,1.46-1.16c0-.58-.48-.87-1.07-1.07l-1.14-.39c-1.36-.41-2.09-1.14-2.09-2.31,0-1.45,1.12-2.53,2.81-2.53,1.19,0,2.36.49,2.84,2.02l-1.46.32Z"/>
      <path class="cls-1" d="M291.42,119.43c0-1.8-.83-2.43-1.73-2.43s-2.74.6-2.74,3.28v3.94h-1.65v-12.29h1.65v5.49c.36-1.21,1.46-1.89,2.86-1.89,1.84,0,3.26,1.16,3.26,3.89v4.79h-1.65v-4.79Z"/>
      <path class="cls-1" d="M299.36,115.54c2.46,0,4.47,2.01,4.47,4.44s-2.01,4.44-4.47,4.44-4.45-1.97-4.45-4.44,2.01-4.44,4.45-4.44ZM299.36,122.95c1.56,0,2.82-1.33,2.82-2.96s-1.26-2.99-2.82-2.99-2.81,1.34-2.81,2.99,1.26,2.96,2.81,2.96Z"/>
      <path class="cls-1" d="M307.32,120.52c0,1.8.83,2.43,1.73,2.43s2.74-.6,2.74-3.28v-3.94h1.65v8.5h-1.65v-1.7c-.36,1.21-1.46,1.89-2.86,1.89-1.84,0-3.26-1.16-3.26-3.89v-4.79h1.65v4.79Z"/>
      <path class="cls-1" d="M319.88,117.89c-.27-.76-.8-.93-1.33-.93-.77,0-1.26.48-1.26,1.09,0,.56.51.85,1.02,1.02l1.22.41c1.61.49,2.04,1.5,2.04,2.4,0,1.61-1.41,2.55-3.06,2.55-1.5,0-2.89-.76-3.28-2.23l1.46-.36c.2.68.97,1.17,1.84,1.17s1.46-.49,1.46-1.16c0-.58-.48-.87-1.07-1.07l-1.14-.39c-1.36-.41-2.09-1.14-2.09-2.31,0-1.45,1.12-2.53,2.8-2.53,1.19,0,2.36.49,2.84,2.02l-1.46.32Z"/>
      <path class="cls-1" d="M331.43,122.83c-1.09,1.22-2.46,1.58-3.72,1.58-2.96,0-4.79-1.99-4.79-4.4s1.94-4.47,4.57-4.47c2.24,0,4.33,1.45,4.33,4.59h-7.26c-.05,1.65,1.27,2.82,3.16,2.82,1.02,0,1.94-.34,2.79-1.07l.92.95ZM324.71,118.86h5.41c-.46-1.55-1.67-1.87-2.6-1.87-1,0-2.24.39-2.8,1.87Z"/>
      <path class="cls-1" d="M341.98,117.89c-.27-.76-.8-.93-1.33-.93-.77,0-1.26.48-1.26,1.09,0,.56.51.85,1.02,1.02l1.22.41c1.61.49,2.04,1.5,2.04,2.4,0,1.61-1.41,2.55-3.06,2.55-1.5,0-2.89-.76-3.28-2.23l1.46-.36c.2.68.97,1.17,1.84,1.17s1.46-.49,1.46-1.16c0-.58-.48-.87-1.07-1.07l-1.14-.39c-1.36-.41-2.09-1.14-2.09-2.31,0-1.45,1.12-2.53,2.8-2.53,1.19,0,2.36.49,2.84,2.02l-1.46.32Z"/>
      <path class="cls-1" d="M346.52,111.83c.65,0,1.16.51,1.16,1.16s-.51,1.14-1.16,1.14-1.14-.49-1.14-1.14.49-1.16,1.14-1.16ZM347.36,115.73h-1.65v8.5h1.65v-8.5Z"/>
      <path class="cls-1" d="M352.08,121.66c0,.93.46,1.31,1.02,1.31.53,0,1.04-.31,1.04-.93,0-.12-.02-.44-.14-.7h1.44c.15.34.15.92.15.92,0,1.21-.87,2.16-2.52,2.16-1.34,0-2.65-.7-2.65-2.87v-4.52h-1.39v-1.29h1.39l.37-2.45h1.27v2.45h2.7v1.29h-2.7v4.64Z"/>
      <path class="cls-1" d="M359.2,121.66c0,.93.46,1.31,1.02,1.31.53,0,1.04-.31,1.04-.93,0-.12-.02-.44-.14-.7h1.44c.15.34.15.92.15.92,0,1.21-.87,2.16-2.52,2.16-1.34,0-2.65-.7-2.65-2.87v-4.52h-1.39v-1.29h1.39l.37-2.45h1.27v2.45h2.7v1.29h-2.7v4.64Z"/>
      <path class="cls-1" d="M365.14,111.83c.65,0,1.16.51,1.16,1.16s-.51,1.14-1.16,1.14-1.14-.49-1.14-1.14.49-1.16,1.14-1.16ZM365.97,115.73h-1.65v8.5h1.65v-8.5Z"/>
      <path class="cls-1" d="M374.76,119.43c0-1.8-.83-2.43-1.73-2.43s-2.74.6-2.74,3.28v3.94h-1.65v-8.5h1.65v1.7c.36-1.21,1.46-1.89,2.86-1.89,1.84,0,3.26,1.16,3.26,3.89v4.79h-1.65v-4.79Z"/>
      <path class="cls-1" d="M387.22,124.16c0,2.82-2.11,4.06-4.44,4.06-1.8,0-2.82-.56-3.64-1.22l.66-1.29c.85.75,1.89,1.07,2.97,1.07,1.65,0,2.79-.95,2.79-2.77v-1.14c-.82,1.16-1.94,1.55-3.08,1.55-2.55,0-4.22-2-4.22-4.44s1.67-4.44,4.22-4.44c1.14,0,2.26.39,3.08,1.55v-1.36h1.65v8.43ZM382.7,117c-1.77,0-2.77,1.36-2.77,2.97s1,2.98,2.77,2.98,2.89-1.26,2.91-2.98c-.02-1.72-1.19-2.97-2.91-2.97Z"/>
      <path class="cls-1" d="M397.91,115.54c1.14,0,2.26.39,3.08,1.55v-1.36h1.65v8.5h-1.65v-1.36c-.82,1.16-1.94,1.55-3.08,1.55-2.55,0-4.22-2-4.22-4.44s1.67-4.44,4.22-4.44ZM398.12,117c-1.77,0-2.77,1.36-2.77,2.97s1,2.98,2.77,2.98,2.89-1.26,2.91-2.98c-.02-1.72-1.19-2.97-2.91-2.97Z"/>
      <path class="cls-1" d="M411.37,119.43c0-1.8-.83-2.43-1.73-2.43s-2.74.6-2.74,3.28v3.94h-1.65v-8.5h1.65v1.7c.36-1.21,1.46-1.89,2.86-1.89,1.84,0,3.26,1.16,3.26,3.89v4.79h-1.65v-4.79Z"/>
      <path class="cls-1" d="M419.13,115.54c1.14,0,2.26.39,3.08,1.55v-5.15h1.65v12.29h-1.65v-1.36c-.82,1.16-1.94,1.55-3.08,1.55-2.55,0-4.22-2-4.22-4.44s1.67-4.44,4.22-4.44ZM419.33,117c-1.77,0-2.77,1.36-2.77,2.97s1,2.98,2.77,2.98,2.89-1.26,2.91-2.98c-.02-1.72-1.19-2.97-2.91-2.97Z"/>
      <path class="cls-1" d="M432.66,124.23h-1.65v-12.29h1.65v12.29Z"/>
      <path class="cls-1" d="M439.13,115.54c2.46,0,4.47,2.01,4.47,4.44s-2.01,4.44-4.47,4.44-4.45-1.97-4.45-4.44,2.01-4.44,4.45-4.44ZM439.13,122.95c1.56,0,2.82-1.33,2.82-2.96s-1.26-2.99-2.82-2.99-2.81,1.34-2.81,2.99,1.26,2.96,2.81,2.96Z"/>
      <path class="cls-1" d="M449.39,115.54c2.46,0,4.47,2.01,4.47,4.44s-2.01,4.44-4.47,4.44-4.45-1.97-4.45-4.44,2.01-4.44,4.45-4.44ZM449.39,122.95c1.56,0,2.82-1.33,2.82-2.96s-1.26-2.99-2.82-2.99-2.81,1.34-2.81,2.99,1.26,2.96,2.81,2.96Z"/>
      <path class="cls-1" d="M460.38,115.73h1.84v.19l-3.11,3.72,1.44,2.19c.49.7.73,1.14,1.5,1.14.19,0,.73-.02,1.1-.32l.56,1.11c-.66.7-1.67.66-1.85.66-1.63,0-2.18-1.1-2.69-1.8l-1.72-2.75v4.37h-1.65v-12.29h1.65v7.36l2.92-3.57Z"/>
      <path class="cls-1" d="M472.39,122.83c-1.09,1.22-2.46,1.58-3.72,1.58-2.96,0-4.79-1.99-4.79-4.4s1.94-4.47,4.57-4.47c2.24,0,4.33,1.45,4.33,4.59h-7.26c-.05,1.65,1.27,2.82,3.16,2.82,1.02,0,1.94-.34,2.79-1.07l.92.95ZM465.67,118.86h5.41c-.46-1.55-1.67-1.87-2.6-1.87-1,0-2.24.39-2.8,1.87Z"/>
      <path class="cls-1" d="M478.23,115.54c1.14,0,2.26.39,3.08,1.55v-5.15h1.65v12.29h-1.65v-1.36c-.82,1.16-1.94,1.55-3.08,1.55-2.55,0-4.22-2-4.22-4.44s1.67-4.44,4.22-4.44ZM478.44,117c-1.77,0-2.77,1.36-2.77,2.97s1,2.98,2.77,2.98,2.89-1.26,2.91-2.98c-.02-1.72-1.19-2.97-2.91-2.97Z"/>
      <path class="cls-1" d="M200.15,135.94c1.14,0,2.26.39,3.08,1.55v-1.36h1.65v8.5h-1.65v-1.36c-.82,1.16-1.94,1.55-3.08,1.55-2.55,0-4.22-2-4.22-4.44s1.67-4.44,4.22-4.44ZM200.36,137.4c-1.77,0-2.77,1.36-2.77,2.97s1,2.98,2.77,2.98,2.89-1.26,2.91-2.98c-.02-1.72-1.19-2.97-2.91-2.97Z"/>
      <path class="cls-1" d="M209.74,136.13h2.23v1.29h-2.23v7.21h-1.7v-7.21h-1.34v-1.29h1.34v-.65c0-2.74,1.48-3.31,2.82-3.31,1.65,0,2.53.94,2.53,2.14,0,0,0,.22-.08.46h-1.41c.02-.12.03-.17.03-.29,0-.68-.53-.87-1.05-.87-.56,0-1.14.37-1.14,1.65v.87Z"/>
      <path class="cls-1" d="M215.88,142.06c0,.93.46,1.31,1.02,1.31.53,0,1.04-.31,1.04-.93,0-.12-.02-.44-.14-.7h1.44c.15.34.15.92.15.92,0,1.21-.87,2.16-2.52,2.16-1.34,0-2.65-.7-2.65-2.87v-4.52h-1.39v-1.29h1.39l.37-2.45h1.27v2.45h2.7v1.29h-2.7v4.64Z"/>
      <path class="cls-1" d="M228.82,143.23c-1.09,1.22-2.46,1.58-3.72,1.58-2.96,0-4.79-1.99-4.79-4.4s1.94-4.47,4.57-4.47c2.24,0,4.33,1.45,4.33,4.59h-7.26c-.05,1.65,1.27,2.82,3.16,2.82,1.02,0,1.94-.34,2.79-1.07l.92.95ZM222.1,139.25h5.41c-.46-1.55-1.67-1.87-2.6-1.87-1,0-2.24.39-2.8,1.87Z"/>
      <path class="cls-1" d="M232.71,138.05c.29-1.34,1.22-2.11,2.28-2.11.31,0,.54.08.78.19v1.61c-.27-.15-.6-.22-.9-.22-.56,0-2.16.27-2.16,3.89v3.21h-1.65v-8.5h1.65v1.92Z"/>
      <path class="cls-1" d="M247.14,139.83c0-1.8-.83-2.43-1.73-2.43s-2.41.6-2.41,3.28v3.94h-1.65v-8.5h1.65v1.7c.36-1.24,1.46-1.89,2.72-1.89.82,0,2.04.27,2.7,1.79.7-1.48,1.87-1.79,2.89-1.79,2.01,0,3.28,1.16,3.28,3.89v4.79h-1.65v-4.79c0-1.8-.83-2.43-1.73-2.43-.8,0-2.33.49-2.41,3.09v4.13h-1.65v-4.79Z"/>
      <path class="cls-1" d="M262.73,136.13h1.92l-5.22,12.31h-1.6l1.58-4.1-3.59-8.21h1.89l2.6,6.34,2.41-6.34Z"/>
      <path class="cls-1" d="M273.85,135.94c1.14,0,2.26.39,3.08,1.55v-5.15h1.65v12.29h-1.65v-1.36c-.82,1.16-1.94,1.55-3.08,1.55-2.55,0-4.22-2-4.22-4.44s1.67-4.44,4.22-4.44ZM274.05,137.4c-1.77,0-2.77,1.36-2.77,2.97s1,2.98,2.77,2.98,2.89-1.26,2.91-2.98c-.02-1.72-1.19-2.97-2.91-2.97Z"/>
      <path class="cls-1" d="M285,135.94c2.46,0,4.47,2.01,4.47,4.44s-2.01,4.44-4.47,4.44-4.45-1.97-4.45-4.44,2.01-4.44,4.45-4.44ZM285,143.35c1.56,0,2.82-1.33,2.82-2.96s-1.26-2.99-2.82-2.99-2.8,1.34-2.8,2.99,1.26,2.96,2.8,2.96Z"/>
      <path class="cls-1" d="M299.76,144.56c0,2.82-2.11,4.06-4.44,4.06-1.8,0-2.82-.56-3.64-1.22l.66-1.29c.85.75,1.89,1.07,2.97,1.07,1.65,0,2.79-.95,2.79-2.77v-1.14c-.82,1.16-1.94,1.55-3.08,1.55-2.55,0-4.22-2-4.22-4.44s1.67-4.44,4.22-4.44c1.14,0,2.26.39,3.08,1.55v-1.36h1.65v8.43ZM295.23,137.4c-1.77,0-2.77,1.36-2.77,2.97s1,2.98,2.77,2.98,2.89-1.26,2.91-2.98c-.02-1.72-1.19-2.97-2.91-2.97Z"/>
      <path class="cls-1" d="M309.11,136.13h2.23v1.29h-2.23v7.21h-1.7v-7.21h-1.34v-1.29h1.34v-.65c0-2.74,1.48-3.31,2.82-3.31,1.65,0,2.53.94,2.53,2.14,0,0,0,.22-.08.46h-1.41c.02-.12.03-.17.03-.29,0-.68-.53-.87-1.05-.87-.56,0-1.14.37-1.14,1.65v.87Z"/>
      <path class="cls-1" d="M316.57,135.94c2.46,0,4.47,2.01,4.47,4.44s-2.01,4.44-4.47,4.44-4.45-1.97-4.45-4.44,2.01-4.44,4.45-4.44ZM316.57,143.35c1.56,0,2.82-1.33,2.82-2.96s-1.26-2.99-2.82-2.99-2.8,1.34-2.8,2.99,1.26,2.96,2.8,2.96Z"/>
      <path class="cls-1" d="M324.66,138.05c.29-1.34,1.22-2.11,2.28-2.11.31,0,.54.08.78.19v1.61c-.27-.15-.6-.22-.9-.22-.56,0-2.16.27-2.16,3.89v3.21h-1.65v-8.5h1.65v1.92Z"/>
      <path class="cls-1" d="M337.12,138.29c-.27-.76-.8-.93-1.33-.93-.77,0-1.26.48-1.26,1.09,0,.56.51.85,1.02,1.02l1.22.41c1.61.49,2.04,1.5,2.04,2.4,0,1.61-1.41,2.55-3.06,2.55-1.5,0-2.89-.76-3.28-2.23l1.46-.36c.2.68.97,1.17,1.84,1.17s1.46-.49,1.46-1.16c0-.58-.48-.87-1.07-1.07l-1.14-.39c-1.36-.41-2.09-1.14-2.09-2.31,0-1.45,1.12-2.53,2.81-2.53,1.19,0,2.36.49,2.84,2.02l-1.46.32Z"/>
      <path class="cls-1" d="M348.66,143.23c-1.09,1.22-2.46,1.58-3.72,1.58-2.96,0-4.79-1.99-4.79-4.4s1.94-4.47,4.57-4.47c2.24,0,4.33,1.45,4.33,4.59h-7.26c-.05,1.65,1.27,2.82,3.16,2.82,1.02,0,1.94-.34,2.79-1.07l.92.95ZM341.95,139.25h5.41c-.46-1.55-1.67-1.87-2.6-1.87-1,0-2.24.39-2.8,1.87Z"/>
      <path class="cls-1" d="M354.8,144.63h-1.87l-3.28-8.5h1.73l2.48,6.68,2.48-6.68h1.73l-3.28,8.5Z"/>
      <path class="cls-1" d="M367.33,143.23c-1.09,1.22-2.46,1.58-3.72,1.58-2.96,0-4.79-1.99-4.79-4.4s1.94-4.47,4.57-4.47c2.24,0,4.33,1.45,4.33,4.59h-7.26c-.05,1.65,1.27,2.82,3.16,2.82,1.02,0,1.94-.34,2.79-1.07l.92.95ZM360.61,139.25h5.41c-.46-1.55-1.67-1.87-2.6-1.87-1,0-2.24.39-2.8,1.87Z"/>
      <path class="cls-1" d="M371.22,138.05c.29-1.34,1.22-2.11,2.28-2.11.31,0,.54.08.78.19v1.61c-.27-.15-.6-.22-.9-.22-.56,0-2.16.27-2.16,3.89v3.21h-1.65v-8.5h1.65v1.92Z"/>
      <path class="cls-1" d="M379.23,135.94c1.14,0,2.26.39,3.08,1.55v-1.36h1.65v8.5h-1.65v-1.36c-.82,1.16-1.94,1.55-3.08,1.55-2.55,0-4.22-2-4.22-4.44s1.67-4.44,4.22-4.44ZM379.43,137.4c-1.77,0-2.77,1.36-2.77,2.97s1,2.98,2.77,2.98,2.89-1.26,2.91-2.98c-.02-1.72-1.19-2.97-2.91-2.97Z"/>
      <path class="cls-1" d="M388.27,144.63h-1.65v-12.29h1.65v12.29Z"/>
      <path class="cls-1" d="M399.03,135.94c1.14,0,2.26.39,3.08,1.55v-5.15h1.65v12.29h-1.65v-1.36c-.82,1.16-1.94,1.55-3.08,1.55-2.55,0-4.22-2-4.22-4.44s1.67-4.44,4.22-4.44ZM399.24,137.4c-1.77,0-2.77,1.36-2.77,2.97s1,2.98,2.77,2.98,2.89-1.26,2.91-2.98c-.02-1.72-1.19-2.97-2.91-2.97Z"/>
      <path class="cls-1" d="M409.96,135.94c1.14,0,2.26.39,3.08,1.55v-1.36h1.65v8.5h-1.65v-1.36c-.82,1.16-1.94,1.55-3.08,1.55-2.55,0-4.22-2-4.22-4.44s1.67-4.44,4.22-4.44ZM410.17,137.4c-1.77,0-2.77,1.36-2.77,2.97s1,2.98,2.77,2.98,2.89-1.26,2.91-2.98c-.02-1.72-1.19-2.97-2.91-2.97Z"/>
      <path class="cls-1" d="M423.21,136.13h1.92l-5.22,12.31h-1.6l1.58-4.1-3.59-8.21h1.89l2.6,6.34,2.41-6.34Z"/>
      <path class="cls-1" d="M430.26,138.29c-.27-.76-.8-.93-1.33-.93-.77,0-1.26.48-1.26,1.09,0,.56.51.85,1.02,1.02l1.22.41c1.61.49,2.04,1.5,2.04,2.4,0,1.61-1.41,2.55-3.06,2.55-1.5,0-2.89-.76-3.28-2.23l1.46-.36c.2.68.97,1.17,1.84,1.17s1.46-.49,1.46-1.16c0-.58-.48-.87-1.07-1.07l-1.14-.39c-1.36-.41-2.09-1.14-2.09-2.31,0-1.45,1.12-2.53,2.81-2.53,1.19,0,2.36.49,2.84,2.02l-1.46.32Z"/>
      <path class="cls-1" d="M434.82,142.31c.7,0,1.26.56,1.26,1.26s-.56,1.24-1.26,1.24-1.24-.54-1.24-1.24.54-1.26,1.24-1.26Z"/>
      <path class="cls-1" d="M443.68,141.43c.2.99,1.27,1.87,2.75,1.87,1.56,0,2.52-.78,2.52-1.82,0-.94-.78-1.51-1.75-1.87l-1.78-.61c-2.35-.77-2.75-2.14-2.75-3.18,0-2.04,1.8-3.28,3.82-3.28,2.12,0,3.54,1.17,3.89,2.82l-1.53.46c-.29-1.19-1.14-1.75-2.36-1.75-1.14,0-2.11.63-2.11,1.72,0,.51.15,1.17,1.55,1.7l1.8.68c1.95.61,2.89,1.94,2.89,3.2,0,2.11-1.67,3.45-4.15,3.45s-3.98-1.33-4.39-2.97l1.6-.41Z"/>
      <path class="cls-1" d="M458.8,139.83c0-1.8-.83-2.43-1.73-2.43s-2.74.6-2.74,3.28v3.94h-1.65v-12.29h1.65v5.49c.36-1.21,1.46-1.89,2.86-1.89,1.84,0,3.26,1.16,3.26,3.89v4.79h-1.65v-4.79Z"/>
      <path class="cls-1" d="M470.81,143.23c-1.09,1.22-2.46,1.58-3.72,1.58-2.96,0-4.79-1.99-4.79-4.4s1.94-4.47,4.57-4.47c2.24,0,4.33,1.45,4.33,4.59h-7.26c-.05,1.65,1.27,2.82,3.16,2.82,1.02,0,1.94-.34,2.79-1.07l.92.95ZM464.09,139.25h5.41c-.46-1.55-1.67-1.87-2.6-1.87-1,0-2.24.39-2.8,1.87Z"/>
      <path class="cls-1" d="M478.41,132.23c.65,0,1.16.51,1.16,1.16s-.51,1.14-1.16,1.14-1.14-.49-1.14-1.14.49-1.16,1.14-1.16ZM479.24,136.13h-1.65v8.5h1.65v-8.5Z"/>
      <path class="cls-1" d="M485.73,138.29c-.27-.76-.8-.93-1.33-.93-.77,0-1.26.48-1.26,1.09,0,.56.51.85,1.02,1.02l1.22.41c1.61.49,2.04,1.5,2.04,2.4,0,1.61-1.41,2.55-3.06,2.55-1.5,0-2.89-.76-3.28-2.23l1.46-.36c.2.68.97,1.17,1.84,1.17s1.46-.49,1.46-1.16c0-.58-.48-.87-1.07-1.07l-1.14-.39c-1.36-.41-2.09-1.14-2.09-2.31,0-1.45,1.12-2.53,2.81-2.53,1.19,0,2.36.49,2.84,2.02l-1.46.32Z"/>
      <path class="cls-1" d="M200.8,165.03h-1.87l-3.28-8.5h1.73l2.48,6.68,2.48-6.68h1.73l-3.28,8.5Z"/>
      <path class="cls-1" d="M213.33,163.63c-1.09,1.22-2.46,1.58-3.72,1.58-2.96,0-4.79-1.99-4.79-4.4s1.94-4.47,4.57-4.47c2.24,0,4.33,1.45,4.33,4.59h-7.26c-.05,1.65,1.27,2.82,3.16,2.82,1.02,0,1.94-.34,2.79-1.07l.92.95ZM206.61,159.66h5.41c-.46-1.55-1.67-1.87-2.6-1.87-1,0-2.24.39-2.8,1.87Z"/>
      <path class="cls-1" d="M217.22,158.45c.29-1.34,1.22-2.11,2.28-2.11.31,0,.54.08.78.19v1.61c-.27-.15-.6-.22-.9-.22-.56,0-2.16.27-2.16,3.89v3.21h-1.65v-8.5h1.65v1.92Z"/>
      <path class="cls-1" d="M227.69,156.53h1.92l-5.22,12.31h-1.6l1.58-4.1-3.59-8.21h1.89l2.6,6.34,2.41-6.34Z"/>
      <path class="cls-1" d="M236.86,158.45c.29-1.34,1.22-2.11,2.28-2.11.31,0,.54.08.78.19v1.61c-.27-.15-.6-.22-.9-.22-.56,0-2.16.27-2.16,3.89v3.21h-1.65v-8.5h1.65v1.92Z"/>
      <path class="cls-1" d="M249.11,163.63c-1.09,1.22-2.46,1.58-3.72,1.58-2.96,0-4.79-1.99-4.79-4.4s1.94-4.47,4.57-4.47c2.24,0,4.33,1.45,4.33,4.59h-7.26c-.05,1.65,1.27,2.82,3.16,2.82,1.02,0,1.94-.34,2.79-1.07l.92.95ZM242.4,159.66h5.41c-.46-1.55-1.67-1.87-2.6-1.87-1,0-2.24.39-2.8,1.87Z"/>
      <path class="cls-1" d="M253.06,165.03h-1.65v-12.29h1.65v12.29Z"/>
      <path class="cls-1" d="M256.59,152.63c.65,0,1.16.51,1.16,1.16s-.51,1.14-1.16,1.14-1.14-.49-1.14-1.14.49-1.16,1.14-1.16ZM257.43,156.53h-1.65v8.5h1.65v-8.5Z"/>
      <path class="cls-1" d="M263.68,156.34c1.14,0,2.26.39,3.08,1.55v-1.36h1.65v8.5h-1.65v-1.36c-.82,1.16-1.94,1.55-3.08,1.55-2.55,0-4.22-2-4.22-4.44s1.67-4.44,4.22-4.44ZM263.89,157.8c-1.77,0-2.77,1.36-2.77,2.97s1,2.98,2.77,2.98,2.89-1.26,2.91-2.98c-.02-1.72-1.19-2.97-2.91-2.97Z"/>
      <path class="cls-1" d="M275.75,165.21c-1.14,0-2.26-.39-3.08-1.55v1.36h-1.65v-12.29h1.65v5.15c.82-1.16,1.94-1.55,3.08-1.55,2.55,0,4.22,2.01,4.22,4.44s-1.67,4.44-4.22,4.44ZM275.55,163.75c1.77,0,2.77-1.36,2.77-2.98s-1-2.97-2.77-2.97-2.89,1.26-2.91,2.97c.02,1.72,1.19,2.98,2.91,2.98Z"/>
      <path class="cls-1" d="M283.67,165.03h-1.65v-12.29h1.65v12.29Z"/>
      <path class="cls-1" d="M294.21,163.63c-1.09,1.22-2.46,1.58-3.72,1.58-2.96,0-4.79-1.99-4.79-4.4s1.94-4.47,4.57-4.47c2.24,0,4.33,1.45,4.33,4.59h-7.26c-.05,1.65,1.27,2.82,3.16,2.82,1.02,0,1.94-.34,2.79-1.07l.92.95ZM287.5,159.66h5.41c-.46-1.55-1.67-1.87-2.6-1.87-1,0-2.24.39-2.8,1.87Z"/>
      <path class="cls-1" d="M296.1,166.62c1-.34,1.33-1.24,1.33-1.89-.82.27-1.27-.29-1.29-.85-.02-.58.37-1.09,1.19-1.09.95,0,1.17.93,1.17,1.39,0,1.39-.71,2.62-2.07,3.04l-.32-.61Z"/>
      <path class="cls-1" d="M306.93,158.45c.29-1.34,1.22-2.11,2.28-2.11.31,0,.54.08.78.19v1.61c-.27-.15-.6-.22-.9-.22-.56,0-2.16.27-2.16,3.89v3.21h-1.65v-8.5h1.65v1.92Z"/>
      <path class="cls-1" d="M319.19,163.63c-1.09,1.22-2.46,1.58-3.72,1.58-2.96,0-4.79-1.99-4.79-4.4s1.94-4.47,4.57-4.47c2.24,0,4.33,1.45,4.33,4.59h-7.26c-.05,1.65,1.27,2.82,3.16,2.82,1.02,0,1.94-.34,2.79-1.07l.92.95ZM312.47,159.66h5.41c-.46-1.55-1.67-1.87-2.6-1.87-1,0-2.24.39-2.8,1.87Z"/>
      <path class="cls-1" d="M325.25,158.69c-.27-.76-.8-.93-1.33-.93-.77,0-1.26.48-1.26,1.09,0,.56.51.85,1.02,1.02l1.22.41c1.61.49,2.04,1.5,2.04,2.4,0,1.61-1.41,2.55-3.06,2.55-1.5,0-2.89-.76-3.28-2.23l1.46-.36c.2.68.97,1.17,1.84,1.17s1.46-.49,1.46-1.16c0-.58-.48-.87-1.07-1.07l-1.14-.39c-1.36-.41-2.09-1.14-2.09-2.31,0-1.45,1.12-2.53,2.81-2.53,1.19,0,2.36.49,2.84,2.02l-1.46.32Z"/>
      <path class="cls-1" d="M333.65,165.21c-1.14,0-2.26-.39-3.08-1.55v5.17h-1.65v-12.31h1.65v1.36c.82-1.16,1.94-1.55,3.08-1.55,2.55,0,4.22,2.01,4.22,4.44s-1.67,4.44-4.22,4.44ZM333.45,163.75c1.77,0,2.77-1.36,2.77-2.98s-1-2.97-2.77-2.97-2.89,1.26-2.91,2.97c.02,1.72,1.19,2.98,2.91,2.98Z"/>
      <path class="cls-1" d="M343.67,156.34c2.46,0,4.47,2.01,4.47,4.44s-2.01,4.44-4.47,4.44-4.45-1.97-4.45-4.44,2.01-4.44,4.45-4.44ZM343.67,163.75c1.56,0,2.82-1.33,2.82-2.96s-1.26-2.99-2.82-2.99-2.8,1.34-2.8,2.99,1.26,2.96,2.8,2.96Z"/>
      <path class="cls-1" d="M356.23,160.23c0-1.8-.83-2.43-1.73-2.43s-2.74.6-2.74,3.28v3.94h-1.65v-8.5h1.65v1.7c.36-1.21,1.46-1.89,2.86-1.89,1.84,0,3.26,1.16,3.26,3.89v4.79h-1.65v-4.79Z"/>
      <path class="cls-1" d="M364.2,158.69c-.27-.76-.8-.93-1.33-.93-.77,0-1.26.48-1.26,1.09,0,.56.51.85,1.02,1.02l1.22.41c1.61.49,2.04,1.5,2.04,2.4,0,1.61-1.41,2.55-3.06,2.55-1.5,0-2.89-.76-3.28-2.23l1.46-.36c.2.68.97,1.17,1.84,1.17s1.46-.49,1.46-1.16c0-.58-.48-.87-1.07-1.07l-1.14-.39c-1.36-.41-2.09-1.14-2.09-2.31,0-1.45,1.12-2.53,2.81-2.53,1.19,0,2.36.49,2.84,2.02l-1.46.32Z"/>
      <path class="cls-1" d="M368.74,152.63c.65,0,1.16.51,1.16,1.16s-.51,1.14-1.16,1.14-1.14-.49-1.14-1.14.49-1.16,1.14-1.16ZM369.57,156.53h-1.65v8.5h1.65v-8.5Z"/>
      <path class="cls-1" d="M376.97,165.21c-1.14,0-2.26-.39-3.08-1.55v1.36h-1.65v-12.29h1.65v5.15c.82-1.16,1.94-1.55,3.08-1.55,2.55,0,4.22,2.01,4.22,4.44s-1.67,4.44-4.22,4.44ZM376.76,163.75c1.77,0,2.77-1.36,2.77-2.98s-1-2.97-2.77-2.97-2.89,1.26-2.91,2.97c.02,1.72,1.19,2.98,2.91,2.98Z"/>
      <path class="cls-1" d="M384.89,165.03h-1.65v-12.29h1.65v12.29Z"/>
      <path class="cls-1" d="M395.43,163.63c-1.09,1.22-2.46,1.58-3.72,1.58-2.96,0-4.79-1.99-4.79-4.4s1.94-4.47,4.57-4.47c2.24,0,4.33,1.45,4.33,4.59h-7.26c-.05,1.65,1.27,2.82,3.16,2.82,1.02,0,1.94-.34,2.79-1.07l.92.95ZM388.71,159.66h5.41c-.46-1.55-1.67-1.87-2.6-1.87-1,0-2.24.39-2.8,1.87Z"/>
      <path class="cls-1" d="M405.75,156.34c1.14,0,2.26.39,3.08,1.55v-1.36h1.65v8.5h-1.65v-1.36c-.82,1.16-1.94,1.55-3.08,1.55-2.55,0-4.22-2-4.22-4.44s1.67-4.44,4.22-4.44ZM405.95,157.8c-1.77,0-2.77,1.36-2.77,2.97s1,2.98,2.77,2.98,2.89-1.26,2.91-2.98c-.02-1.72-1.19-2.97-2.91-2.97Z"/>
      <path class="cls-1" d="M419.21,160.23c0-1.8-.83-2.43-1.73-2.43s-2.74.6-2.74,3.28v3.94h-1.65v-8.5h1.65v1.7c.36-1.21,1.46-1.89,2.86-1.89,1.84,0,3.26,1.16,3.26,3.89v4.79h-1.65v-4.79Z"/>
      <path class="cls-1" d="M426.96,156.34c1.14,0,2.26.39,3.08,1.55v-5.15h1.65v12.29h-1.65v-1.36c-.82,1.16-1.94,1.55-3.08,1.55-2.55,0-4.22-2-4.22-4.44s1.67-4.44,4.22-4.44ZM427.17,157.8c-1.77,0-2.77,1.36-2.77,2.97s1,2.98,2.77,2.98,2.89-1.26,2.91-2.98c-.02-1.72-1.19-2.97-2.91-2.97Z"/>
      <path class="cls-1" d="M200.15,176.74c1.14,0,2.26.39,3.08,1.55v-1.36h1.65v8.5h-1.65v-1.36c-.82,1.16-1.94,1.55-3.08,1.55-2.55,0-4.22-2-4.22-4.44s1.67-4.44,4.22-4.44ZM200.36,178.2c-1.77,0-2.77,1.36-2.77,2.97s1,2.98,2.77,2.98,2.89-1.26,2.91-2.98c-.02-1.72-1.19-2.97-2.91-2.97Z"/>
      <path class="cls-1" d="M209.55,182.86c0,.93.46,1.31,1.02,1.31.53,0,1.04-.31,1.04-.93,0-.12-.02-.44-.14-.7h1.44c.15.34.15.92.15.92,0,1.21-.87,2.16-2.52,2.16-1.34,0-2.65-.7-2.65-2.87v-4.52h-1.39v-1.29h1.39l.37-2.45h1.27v2.45h2.7v1.29h-2.7v4.64Z"/>
      <path class="cls-1" d="M216.68,182.86c0,.93.46,1.31,1.02,1.31.53,0,1.04-.31,1.04-.93,0-.12-.02-.44-.14-.7h1.44c.15.34.15.92.15.92,0,1.21-.87,2.16-2.52,2.16-1.34,0-2.65-.7-2.65-2.87v-4.52h-1.39v-1.29h1.39l.37-2.45h1.27v2.45h2.7v1.29h-2.7v4.64Z"/>
      <path class="cls-1" d="M229.61,184.03c-1.09,1.22-2.46,1.58-3.72,1.58-2.96,0-4.79-1.99-4.79-4.4s1.94-4.47,4.57-4.47c2.24,0,4.33,1.45,4.33,4.59h-7.26c-.05,1.65,1.27,2.82,3.16,2.82,1.02,0,1.94-.34,2.79-1.07l.92.95ZM222.9,180.06h5.41c-.46-1.55-1.67-1.87-2.6-1.87-1,0-2.24.39-2.8,1.87Z"/>
      <path class="cls-1" d="M237.98,180.63c0-1.8-.83-2.43-1.73-2.43s-2.74.6-2.74,3.28v3.94h-1.65v-8.5h1.65v1.7c.36-1.21,1.46-1.89,2.86-1.89,1.84,0,3.26,1.16,3.26,3.89v4.79h-1.65v-4.79Z"/>
      <path class="cls-1" d="M244.08,182.86c0,.93.46,1.31,1.02,1.31.53,0,1.04-.31,1.04-.93,0-.12-.02-.44-.14-.7h1.44c.15.34.15.92.15.92,0,1.21-.87,2.16-2.52,2.16-1.34,0-2.65-.7-2.65-2.87v-4.52h-1.39v-1.29h1.39l.37-2.45h1.27v2.45h2.7v1.29h-2.7v4.64Z"/>
      <path class="cls-1" d="M250.01,173.04c.65,0,1.16.51,1.16,1.16s-.51,1.14-1.16,1.14-1.14-.49-1.14-1.14.49-1.16,1.14-1.16ZM250.85,176.93h-1.65v8.5h1.65v-8.5Z"/>
      <path class="cls-1" d="M257.75,185.43h-1.87l-3.28-8.5h1.73l2.48,6.68,2.48-6.68h1.73l-3.28,8.5Z"/>
      <path class="cls-1" d="M270.28,184.03c-1.09,1.22-2.46,1.58-3.72,1.58-2.96,0-4.79-1.99-4.79-4.4s1.94-4.47,4.57-4.47c2.24,0,4.33,1.45,4.33,4.59h-7.26c-.05,1.65,1.27,2.82,3.16,2.82,1.02,0,1.94-.34,2.79-1.07l.92.95ZM263.56,180.06h5.41c-.46-1.55-1.67-1.87-2.6-1.87-1,0-2.24.39-2.8,1.87Z"/>
      <path class="cls-1" d="M273.41,183.12c.7,0,1.26.56,1.26,1.26s-.56,1.24-1.26,1.24-1.24-.54-1.24-1.24.54-1.26,1.24-1.26Z"/>
      <path class="cls-1" d="M283.47,185.43h-1.7v-11.9h1.7v11.9Z"/>
      <path class="cls-1" d="M292.63,185.43h-1.65v-12.29h1.65v12.29Z"/>
      <path class="cls-1" d="M303.17,184.03c-1.09,1.22-2.46,1.58-3.72,1.58-2.96,0-4.79-1.99-4.79-4.4s1.94-4.47,4.57-4.47c2.24,0,4.33,1.45,4.33,4.59h-7.26c-.05,1.65,1.27,2.82,3.16,2.82,1.02,0,1.94-.34,2.79-1.07l.92.95ZM296.46,180.06h5.41c-.46-1.55-1.67-1.87-2.6-1.87-1,0-2.24.39-2.8,1.87Z"/>
      <path class="cls-1" d="M307.56,176.93h2.23v1.29h-2.23v7.21h-1.7v-7.21h-1.34v-1.29h1.34v-.65c0-2.74,1.48-3.31,2.82-3.31,1.65,0,2.53.94,2.53,2.14,0,0,0,.22-.08.46h-1.41c.02-.12.03-.17.03-.29,0-.68-.53-.87-1.05-.87-.56,0-1.14.37-1.14,1.65v.87Z"/>
      <path class="cls-1" d="M313.69,182.86c0,.93.46,1.31,1.02,1.31.53,0,1.04-.31,1.04-.93,0-.12-.02-.44-.14-.7h1.44c.15.34.15.92.15.92,0,1.21-.87,2.16-2.52,2.16-1.34,0-2.65-.7-2.65-2.87v-4.52h-1.39v-1.29h1.39l.37-2.45h1.27v2.45h2.7v1.29h-2.7v4.64Z"/>
      <path class="cls-1" d="M329.04,180.63c0-1.8-.83-2.43-1.73-2.43s-2.41.6-2.41,3.28v3.94h-1.65v-8.5h1.65v1.7c.36-1.24,1.46-1.89,2.72-1.89.82,0,2.04.27,2.7,1.79.7-1.48,1.87-1.79,2.89-1.79,2.01,0,3.28,1.16,3.28,3.89v4.79h-1.65v-4.79c0-1.8-.83-2.43-1.73-2.43-.8,0-2.33.49-2.41,3.09v4.13h-1.65v-4.79Z"/>
      <path class="cls-1" d="M344.63,176.93h1.92l-5.22,12.31h-1.6l1.58-4.1-3.59-8.21h1.89l2.6,6.34,2.41-6.34Z"/>
      <path class="cls-1" d="M355.75,176.74c1.14,0,2.26.39,3.08,1.55v-5.15h1.65v12.29h-1.65v-1.36c-.82,1.16-1.94,1.55-3.08,1.55-2.55,0-4.22-2-4.22-4.44s1.67-4.44,4.22-4.44ZM355.96,178.2c-1.77,0-2.77,1.36-2.77,2.97s1,2.98,2.77,2.98,2.89-1.26,2.91-2.98c-.02-1.72-1.19-2.97-2.91-2.97Z"/>
      <path class="cls-1" d="M366.9,176.74c2.46,0,4.47,2.01,4.47,4.44s-2.01,4.44-4.47,4.44-4.45-1.97-4.45-4.44,2.01-4.44,4.45-4.44ZM366.9,184.15c1.56,0,2.82-1.33,2.82-2.96s-1.26-2.99-2.82-2.99-2.8,1.34-2.8,2.99,1.26,2.96,2.8,2.96Z"/>
      <path class="cls-1" d="M381.66,185.36c0,2.82-2.11,4.06-4.44,4.06-1.8,0-2.82-.56-3.64-1.22l.66-1.29c.85.75,1.89,1.07,2.97,1.07,1.65,0,2.79-.95,2.79-2.77v-1.14c-.82,1.16-1.94,1.55-3.08,1.55-2.55,0-4.22-2-4.22-4.44s1.67-4.44,4.22-4.44c1.14,0,2.26.39,3.08,1.55v-1.36h1.65v8.43ZM377.14,178.2c-1.77,0-2.77,1.36-2.77,2.97s1,2.98,2.77,2.98,2.89-1.26,2.91-2.98c-.02-1.72-1.19-2.97-2.91-2.97Z"/>
      <path class="cls-1" d="M389.63,173.04c.65,0,1.16.51,1.16,1.16s-.51,1.14-1.16,1.14-1.14-.49-1.14-1.14.49-1.16,1.14-1.16ZM390.46,176.93h-1.65v8.5h1.65v-8.5Z"/>
      <path class="cls-1" d="M399.25,180.63c0-1.8-.83-2.43-1.73-2.43s-2.74.6-2.74,3.28v3.94h-1.65v-8.5h1.65v1.7c.36-1.21,1.46-1.89,2.86-1.89,1.84,0,3.26,1.16,3.26,3.89v4.79h-1.65v-4.79Z"/>
      <path class="cls-1" d="M414.01,180.63c0-1.8-.83-2.43-1.73-2.43s-2.74.6-2.74,3.28v3.94h-1.65v-12.29h1.65v5.49c.36-1.21,1.46-1.89,2.86-1.89,1.84,0,3.26,1.16,3.26,3.89v4.79h-1.65v-4.79Z"/>
      <path class="cls-1" d="M426.01,184.03c-1.09,1.22-2.46,1.58-3.72,1.58-2.96,0-4.79-1.99-4.79-4.4s1.94-4.47,4.57-4.47c2.24,0,4.33,1.45,4.33,4.59h-7.26c-.05,1.65,1.27,2.82,3.16,2.82,1.02,0,1.94-.34,2.79-1.07l.92.95ZM419.3,180.06h5.41c-.46-1.55-1.67-1.87-2.6-1.87-1,0-2.24.39-2.8,1.87Z"/>
      <path class="cls-1" d="M429.9,178.85c.29-1.34,1.22-2.11,2.28-2.11.31,0,.54.08.78.19v1.61c-.27-.15-.6-.22-.9-.22-.56,0-2.16.27-2.16,3.89v3.21h-1.65v-8.5h1.65v1.92Z"/>
      <path class="cls-1" d="M442.69,176.74c.76,0,1.9.19,3.04,1.04l-.78,1.12c-.9-.68-1.97-.7-2.19-.7-1.84,0-3.2,1.22-3.2,2.97s1.36,2.98,3.2,2.98c.22,0,1.29-.02,2.19-.7l.78,1.12c-1.14.85-2.28,1.04-3.04,1.04-3.01,0-4.78-1.92-4.78-4.33s1.68-4.54,4.78-4.54Z"/>
      <path class="cls-1" d="M450.93,176.74c1.14,0,2.26.39,3.08,1.55v-1.36h1.65v8.5h-1.65v-1.36c-.82,1.16-1.94,1.55-3.08,1.55-2.55,0-4.22-2-4.22-4.44s1.67-4.44,4.22-4.44ZM451.14,178.2c-1.77,0-2.77,1.36-2.77,2.97s1,2.98,2.77,2.98,2.89-1.26,2.91-2.98c-.02-1.72-1.19-2.97-2.91-2.97Z"/>
      <path class="cls-1" d="M459.92,178.85c.29-1.34,1.22-2.11,2.28-2.11.31,0,.54.08.78.19v1.61c-.27-.15-.6-.22-.9-.22-.56,0-2.16.27-2.16,3.89v3.21h-1.65v-8.5h1.65v1.92Z"/>
      <path class="cls-1" d="M472.18,184.03c-1.09,1.22-2.46,1.58-3.72,1.58-2.96,0-4.79-1.99-4.79-4.4s1.94-4.47,4.57-4.47c2.24,0,4.33,1.45,4.33,4.59h-7.26c-.05,1.65,1.27,2.82,3.16,2.82,1.02,0,1.94-.34,2.79-1.07l.92.95ZM465.47,180.06h5.41c-.46-1.55-1.67-1.87-2.6-1.87-1,0-2.24.39-2.8,1.87Z"/>
      <path class="cls-1" d="M201.55,197.58h1.39l1.94,6.03,2.21-6.29h1.72l-3.08,8.5h-1.56l-1.92-5.92-1.92,5.92h-1.56l-3.08-8.5h1.72l2.21,6.29,1.94-6.03Z"/>
      <path class="cls-1" d="M211.41,193.43c.65,0,1.16.51,1.16,1.16s-.51,1.14-1.16,1.14-1.14-.49-1.14-1.14.49-1.16,1.14-1.16ZM212.24,197.33h-1.65v8.5h1.65v-8.5Z"/>
      <path class="cls-1" d="M216.97,203.26c0,.93.46,1.31,1.02,1.31.53,0,1.04-.31,1.04-.93,0-.12-.02-.44-.14-.7h1.44c.15.34.15.92.15.92,0,1.21-.87,2.16-2.52,2.16-1.34,0-2.65-.7-2.65-2.87v-4.52h-1.39v-1.29h1.39l.37-2.45h1.27v2.45h2.7v1.29h-2.7v4.64Z"/>
      <path class="cls-1" d="M228.15,201.03c0-1.8-.83-2.43-1.73-2.43s-2.74.6-2.74,3.28v3.94h-1.65v-12.29h1.65v5.49c.36-1.21,1.46-1.89,2.86-1.89,1.84,0,3.26,1.16,3.26,3.89v4.79h-1.65v-4.79Z"/>
      <path class="cls-1" d="M241.5,206.01c-1.14,0-2.26-.39-3.08-1.55v5.17h-1.65v-12.31h1.65v1.36c.82-1.16,1.94-1.55,3.08-1.55,2.55,0,4.22,2.01,4.22,4.44s-1.67,4.44-4.22,4.44ZM241.29,204.55c1.77,0,2.77-1.36,2.77-2.98s-1-2.97-2.77-2.97-2.89,1.26-2.91,2.97c.02,1.72,1.19,2.98,2.91,2.98Z"/>
      <path class="cls-1" d="M255.57,204.43c-1.09,1.22-2.46,1.58-3.72,1.58-2.96,0-4.79-1.99-4.79-4.4s1.94-4.47,4.57-4.47c2.24,0,4.33,1.45,4.33,4.59h-7.26c-.05,1.65,1.27,2.82,3.16,2.82,1.02,0,1.94-.34,2.79-1.07l.92.95ZM248.86,200.45h5.41c-.46-1.55-1.67-1.87-2.6-1.87-1,0-2.24.39-2.8,1.87Z"/>
      <path class="cls-1" d="M261.4,197.14c1.14,0,2.26.39,3.08,1.55v-1.36h1.65v8.5h-1.65v-1.36c-.82,1.16-1.94,1.55-3.08,1.55-2.55,0-4.22-2-4.22-4.44s1.67-4.44,4.22-4.44ZM261.61,198.6c-1.77,0-2.77,1.36-2.77,2.97s1,2.98,2.77,2.98,2.89-1.26,2.91-2.98c-.02-1.72-1.19-2.97-2.91-2.97Z"/>
      <path class="cls-1" d="M272.9,197.14c.76,0,1.9.19,3.04,1.04l-.78,1.12c-.9-.68-1.97-.7-2.19-.7-1.84,0-3.2,1.22-3.2,2.97s1.36,2.98,3.2,2.98c.22,0,1.29-.02,2.19-.7l.78,1.12c-1.14.85-2.28,1.04-3.04,1.04-3.01,0-4.78-1.92-4.78-4.33s1.68-4.54,4.78-4.54Z"/>
      <path class="cls-1" d="M285.41,204.43c-1.09,1.22-2.46,1.58-3.72,1.58-2.96,0-4.79-1.99-4.79-4.4s1.94-4.47,4.57-4.47c2.24,0,4.33,1.45,4.33,4.59h-7.26c-.05,1.65,1.27,2.82,3.16,2.82,1.02,0,1.94-.34,2.79-1.07l.92.95ZM278.69,200.45h5.41c-.46-1.55-1.67-1.87-2.6-1.87-1,0-2.24.39-2.8,1.87Z"/>
      <path class="cls-1" d="M295.95,197.14c2.46,0,4.47,2.01,4.47,4.44s-2.01,4.44-4.47,4.44-4.45-1.97-4.45-4.44,2.01-4.44,4.45-4.44ZM295.95,204.55c1.56,0,2.82-1.33,2.82-2.96s-1.26-2.99-2.82-2.99-2.81,1.34-2.81,2.99,1.26,2.96,2.81,2.96Z"/>
      <path class="cls-1" d="M304.46,197.33h2.23v1.29h-2.23v7.21h-1.7v-7.21h-1.34v-1.29h1.34v-.65c0-2.74,1.48-3.31,2.82-3.31,1.65,0,2.53.94,2.53,2.14,0,0,0,.22-.08.46h-1.41c.02-.12.03-.17.03-.29,0-.68-.53-.87-1.05-.87-.56,0-1.14.37-1.14,1.65v.87Z"/>
      <path class="cls-1" d="M318.22,201.03c0-1.8-.83-2.43-1.73-2.43s-2.41.6-2.41,3.28v3.94h-1.65v-8.5h1.65v1.7c.36-1.24,1.46-1.89,2.72-1.89.82,0,2.04.27,2.7,1.79.7-1.48,1.87-1.79,2.89-1.79,2.01,0,3.28,1.16,3.28,3.89v4.79h-1.65v-4.79c0-1.8-.83-2.43-1.73-2.43-.8,0-2.33.49-2.41,3.09v4.13h-1.65v-4.79Z"/>
      <path class="cls-1" d="M329.03,193.43c.65,0,1.16.51,1.16,1.16s-.51,1.14-1.16,1.14-1.14-.49-1.14-1.14.49-1.16,1.14-1.16ZM329.86,197.33h-1.65v8.5h1.65v-8.5Z"/>
      <path class="cls-1" d="M338.65,201.03c0-1.8-.83-2.43-1.73-2.43s-2.74.6-2.74,3.28v3.94h-1.65v-8.5h1.65v1.7c.36-1.21,1.46-1.89,2.86-1.89,1.84,0,3.26,1.16,3.26,3.89v4.79h-1.65v-4.79Z"/>
      <path class="cls-1" d="M346.4,197.14c1.14,0,2.26.39,3.08,1.55v-5.15h1.65v12.29h-1.65v-1.36c-.82,1.16-1.94,1.55-3.08,1.55-2.55,0-4.22-2-4.22-4.44s1.67-4.44,4.22-4.44ZM346.61,198.6c-1.77,0-2.77,1.36-2.77,2.97s1,2.98,2.77,2.98,2.89-1.26,2.91-2.98c-.02-1.72-1.19-2.97-2.91-2.97Z"/>
      <path class="cls-1" d="M361.82,197.14c1.14,0,2.26.39,3.08,1.55v-1.36h1.65v8.5h-1.65v-1.36c-.82,1.16-1.94,1.55-3.08,1.55-2.55,0-4.22-2-4.22-4.44s1.67-4.44,4.22-4.44ZM362.02,198.6c-1.77,0-2.77,1.36-2.77,2.97s1,2.98,2.77,2.98,2.89-1.26,2.91-2.98c-.02-1.72-1.19-2.97-2.91-2.97Z"/>
      <path class="cls-1" d="M375.28,201.03c0-1.8-.83-2.43-1.73-2.43s-2.74.6-2.74,3.28v3.94h-1.65v-8.5h1.65v1.7c.36-1.21,1.46-1.89,2.86-1.89,1.84,0,3.26,1.16,3.26,3.89v4.79h-1.65v-4.79Z"/>
      <path class="cls-1" d="M383.04,197.14c1.14,0,2.26.39,3.08,1.55v-5.15h1.65v12.29h-1.65v-1.36c-.82,1.16-1.94,1.55-3.08,1.55-2.55,0-4.22-2-4.22-4.44s1.67-4.44,4.22-4.44ZM383.24,198.6c-1.77,0-2.77,1.36-2.77,2.97s1,2.98,2.77,2.98,2.89-1.26,2.91-2.98c-.02-1.72-1.19-2.97-2.91-2.97Z"/>
      <path class="cls-1" d="M395.21,205.83v-11.9h4.96c2.28,0,3.59,1.73,3.59,3.74,0,1.77-1.02,3.25-2.81,3.59.12,1.29.94,3.31,2.26,3.31.59,0,1.07-.24,1.39-.54l.6,1.16c-.56.58-1.33.83-2.09.83-2.79,0-3.65-3.25-3.77-4.69h-2.43v4.5h-1.7ZM399.81,199.96c1.36,0,2.18-.95,2.18-2.31s-.83-2.33-2.18-2.33h-2.91v4.64h2.91Z"/>
      <path class="cls-1" d="M410.32,197.14c2.46,0,4.47,2.01,4.47,4.44s-2.01,4.44-4.47,4.44-4.45-1.97-4.45-4.44,2.01-4.44,4.45-4.44ZM410.32,204.55c1.56,0,2.82-1.33,2.82-2.96s-1.26-2.99-2.82-2.99-2.8,1.34-2.8,2.99,1.26,2.96,2.8,2.96Z"/>
      <path class="cls-1" d="M422.88,201.03c0-1.8-.83-2.43-1.73-2.43s-2.74.6-2.74,3.28v3.94h-1.65v-8.5h1.65v1.7c.36-1.21,1.46-1.89,2.86-1.89,1.84,0,3.26,1.16,3.26,3.89v4.79h-1.65v-4.79Z"/>
      <path class="cls-1" d="M427.71,197.33h1.65v10.11c0,1.6-1.31,2.38-2.65,2.38-1.65,0-2.52-.95-2.52-2.16,0,0,0-.58.15-.92h1.5c-.12.25-.14.58-.14.7,0,.63.46.93.99.93.56,0,1.02-.32,1.02-1.02v-10.03ZM427.39,194.59c0,.65.49,1.14,1.14,1.14s1.16-.49,1.16-1.14-.51-1.16-1.16-1.16-1.14.51-1.14,1.16Z"/>
      <path class="cls-1" d="M435.62,197.14c1.14,0,2.26.39,3.08,1.55v-1.36h1.65v8.5h-1.65v-1.36c-.82,1.16-1.94,1.55-3.08,1.55-2.55,0-4.22-2-4.22-4.44s1.67-4.44,4.22-4.44ZM435.82,198.6c-1.77,0-2.77,1.36-2.77,2.97s1,2.98,2.77,2.98,2.89-1.26,2.91-2.98c-.02-1.72-1.19-2.97-2.91-2.97Z"/>
      <path class="cls-1" d="M452,197.33h1.84v.19l-3.11,3.72,1.44,2.19c.49.7.73,1.14,1.5,1.14.19,0,.73-.02,1.1-.32l.56,1.11c-.66.7-1.67.66-1.85.66-1.63,0-2.18-1.1-2.69-1.8l-1.72-2.75v4.37h-1.65v-12.29h1.65v7.36l2.92-3.57Z"/>
      <path class="cls-1" d="M464,204.43c-1.09,1.22-2.46,1.58-3.72,1.58-2.96,0-4.79-1.99-4.79-4.4s1.94-4.47,4.57-4.47c2.24,0,4.33,1.45,4.33,4.59h-7.26c-.05,1.65,1.27,2.82,3.16,2.82,1.02,0,1.94-.34,2.79-1.07l.92.95ZM457.29,200.45h5.41c-.46-1.55-1.67-1.87-2.6-1.87-1,0-2.24.39-2.8,1.87Z"/>
      <path class="cls-1" d="M470.97,206.01c-1.14,0-2.26-.39-3.08-1.55v5.17h-1.65v-12.31h1.65v1.36c.82-1.16,1.94-1.55,3.08-1.55,2.55,0,4.22,2.01,4.22,4.44s-1.67,4.44-4.22,4.44ZM470.77,204.55c1.77,0,2.77-1.36,2.77-2.98s-1-2.97-2.77-2.97-2.89,1.26-2.91,2.97c.02,1.72,1.19,2.98,2.91,2.98Z"/>
      <path class="cls-1" d="M479.12,203.26c0,.93.46,1.31,1.02,1.31.53,0,1.04-.31,1.04-.93,0-.12-.02-.44-.14-.7h1.44c.15.34.15.92.15.92,0,1.21-.87,2.16-2.52,2.16-1.34,0-2.65-.7-2.65-2.87v-4.52h-1.39v-1.29h1.39l.37-2.45h1.27v2.45h2.7v1.29h-2.7v4.64Z"/>
      <path class="cls-1" d="M202.36,221.43c0-1.8-.83-2.43-1.73-2.43s-2.41.6-2.41,3.28v3.94h-1.65v-8.5h1.65v1.7c.36-1.24,1.46-1.89,2.72-1.89.82,0,2.04.27,2.7,1.79.7-1.48,1.87-1.79,2.89-1.79,2.01,0,3.28,1.16,3.28,3.89v4.79h-1.65v-4.79c0-1.8-.83-2.43-1.73-2.43-.8,0-2.33.49-2.41,3.09v4.13h-1.65v-4.79Z"/>
      <path class="cls-1" d="M220.18,224.83c-1.09,1.22-2.46,1.58-3.72,1.58-2.96,0-4.79-1.99-4.79-4.4s1.94-4.47,4.57-4.47c2.24,0,4.33,1.45,4.33,4.59h-7.26c-.05,1.65,1.27,2.82,3.16,2.82,1.02,0,1.94-.34,2.79-1.07l.92.95ZM213.46,220.86h5.41c-.46-1.55-1.67-1.87-2.6-1.87-1,0-2.24.39-2.8,1.87Z"/>
      <path class="cls-1" d="M228.42,222.52c0,1.8.83,2.43,1.73,2.43s2.74-.6,2.74-3.28v-3.94h1.65v8.5h-1.65v-1.7c-.36,1.21-1.46,1.89-2.86,1.89-1.84,0-3.26-1.16-3.26-3.89v-4.79h1.65v4.79Z"/>
      <path class="cls-1" d="M241.89,226.41c-1.14,0-2.26-.39-3.08-1.55v5.17h-1.65v-12.31h1.65v1.36c.82-1.16,1.94-1.55,3.08-1.55,2.55,0,4.22,2.01,4.22,4.44s-1.67,4.44-4.22,4.44ZM241.68,224.95c1.77,0,2.77-1.36,2.77-2.98s-1-2.97-2.77-2.97-2.89,1.26-2.91,2.97c.02,1.72,1.19,2.98,2.91,2.98Z"/>
      <path class="cls-1" d="M251.7,217.54c1.14,0,2.26.39,3.08,1.55v-5.15h1.65v12.29h-1.65v-1.36c-.82,1.16-1.94,1.55-3.08,1.55-2.55,0-4.22-2-4.22-4.44s1.67-4.44,4.22-4.44ZM251.9,219c-1.77,0-2.77,1.36-2.77,2.97s1,2.98,2.77,2.98,2.89-1.26,2.91-2.98c-.02-1.72-1.19-2.97-2.91-2.97Z"/>
      <path class="cls-1" d="M262.63,217.54c1.14,0,2.26.39,3.08,1.55v-1.36h1.65v8.5h-1.65v-1.36c-.82,1.16-1.94,1.55-3.08,1.55-2.55,0-4.22-2-4.22-4.44s1.67-4.44,4.22-4.44ZM262.83,219c-1.77,0-2.77,1.36-2.77,2.97s1,2.98,2.77,2.98,2.89-1.26,2.91-2.98c-.02-1.72-1.19-2.97-2.91-2.97Z"/>
      <path class="cls-1" d="M272.03,223.66c0,.93.46,1.31,1.02,1.31.53,0,1.04-.31,1.04-.93,0-.12-.02-.44-.14-.7h1.44c.15.34.15.92.15.92,0,1.21-.87,2.16-2.52,2.16-1.34,0-2.65-.7-2.65-2.87v-4.52h-1.39v-1.29h1.39l.37-2.45h1.27v2.45h2.7v1.29h-2.7v4.64Z"/>
      <path class="cls-1" d="M284.96,224.83c-1.09,1.22-2.46,1.58-3.72,1.58-2.96,0-4.79-1.99-4.79-4.4s1.94-4.47,4.57-4.47c2.24,0,4.33,1.45,4.33,4.59h-7.26c-.05,1.65,1.27,2.82,3.16,2.82,1.02,0,1.94-.34,2.79-1.07l.92.95ZM278.25,220.86h5.41c-.46-1.55-1.67-1.87-2.6-1.87-1,0-2.24.39-2.8,1.87Z"/>
      <path class="cls-1" d="M290.81,217.54c1.14,0,2.26.39,3.08,1.55v-5.15h1.65v12.29h-1.65v-1.36c-.82,1.16-1.94,1.55-3.08,1.55-2.55,0-4.22-2-4.22-4.44s1.67-4.44,4.22-4.44ZM291.02,219c-1.77,0-2.77,1.36-2.77,2.97s1,2.98,2.77,2.98,2.89-1.26,2.91-2.98c-.02-1.72-1.19-2.97-2.91-2.97Z"/>
      <path class="cls-1" d="M306.23,217.54c1.14,0,2.26.39,3.08,1.55v-1.36h1.65v8.5h-1.65v-1.36c-.82,1.16-1.94,1.55-3.08,1.55-2.55,0-4.22-2-4.22-4.44s1.67-4.44,4.22-4.44ZM306.44,219c-1.77,0-2.77,1.36-2.77,2.97s1,2.98,2.77,2.98,2.89-1.26,2.91-2.98c-.02-1.72-1.19-2.97-2.91-2.97Z"/>
      <path class="cls-1" d="M317.4,219.89c-.27-.76-.8-.93-1.33-.93-.77,0-1.26.48-1.26,1.09,0,.56.51.85,1.02,1.02l1.22.41c1.61.49,2.04,1.5,2.04,2.4,0,1.61-1.41,2.55-3.06,2.55-1.5,0-2.89-.76-3.28-2.23l1.46-.36c.2.68.97,1.17,1.84,1.17s1.46-.49,1.46-1.16c0-.58-.48-.87-1.07-1.07l-1.14-.39c-1.36-.41-2.09-1.14-2.09-2.31,0-1.45,1.12-2.53,2.81-2.53,1.19,0,2.36.49,2.84,2.02l-1.46.32Z"/>
      <path class="cls-1" d="M331.36,221.43c0-1.8-.83-2.43-1.73-2.43s-2.41.6-2.41,3.28v3.94h-1.65v-8.5h1.65v1.7c.36-1.24,1.46-1.89,2.72-1.89.82,0,2.04.27,2.7,1.79.7-1.48,1.87-1.79,2.89-1.79,2.01,0,3.28,1.16,3.28,3.89v4.79h-1.65v-4.79c0-1.8-.83-2.43-1.73-2.43-.8,0-2.33.49-2.41,3.09v4.13h-1.65v-4.79Z"/>
      <path class="cls-1" d="M342.82,222.52c0,1.8.83,2.43,1.73,2.43s2.74-.6,2.74-3.28v-3.94h1.65v8.5h-1.65v-1.7c-.36,1.21-1.46,1.89-2.86,1.89-1.84,0-3.26-1.16-3.26-3.89v-4.79h1.65v4.79Z"/>
      <path class="cls-1" d="M355.7,217.54c.76,0,1.9.19,3.04,1.04l-.78,1.12c-.9-.68-1.97-.7-2.19-.7-1.84,0-3.2,1.22-3.2,2.97s1.36,2.98,3.2,2.98c.22,0,1.29-.02,2.19-.7l.78,1.12c-1.14.85-2.28,1.04-3.04,1.04-3.01,0-4.78-1.92-4.78-4.33s1.68-4.54,4.78-4.54Z"/>
      <path class="cls-1" d="M366.65,221.43c0-1.8-.83-2.43-1.73-2.43s-2.74.6-2.74,3.28v3.94h-1.65v-12.29h1.65v5.49c.36-1.21,1.46-1.89,2.86-1.89,1.84,0,3.26,1.16,3.26,3.89v4.79h-1.65v-4.79Z"/>
      <path class="cls-1" d="M378.85,217.54c1.14,0,2.26.39,3.08,1.55v-1.36h1.65v8.5h-1.65v-1.36c-.82,1.16-1.94,1.55-3.08,1.55-2.55,0-4.22-2-4.22-4.44s1.67-4.44,4.22-4.44ZM379.06,219c-1.77,0-2.77,1.36-2.77,2.97s1,2.98,2.77,2.98,2.89-1.26,2.91-2.98c-.02-1.72-1.19-2.97-2.91-2.97Z"/>
      <path class="cls-1" d="M390.02,219.89c-.27-.76-.8-.93-1.33-.93-.77,0-1.26.48-1.26,1.09,0,.56.51.85,1.02,1.02l1.22.41c1.61.49,2.04,1.5,2.04,2.4,0,1.61-1.41,2.55-3.06,2.55-1.5,0-2.89-.76-3.28-2.23l1.46-.36c.2.68.97,1.17,1.84,1.17s1.46-.49,1.46-1.16c0-.58-.48-.87-1.07-1.07l-1.14-.39c-1.36-.41-2.09-1.14-2.09-2.31,0-1.45,1.12-2.53,2.81-2.53,1.19,0,2.36.49,2.84,2.02l-1.46.32Z"/>
      <path class="cls-1" d="M400.24,226.23h-1.7v-11.9h1.7v11.9Z"/>
      <path class="cls-1" d="M409.4,226.23h-1.65v-12.29h1.65v12.29Z"/>
      <path class="cls-1" d="M412.94,213.83c.65,0,1.16.51,1.16,1.16s-.51,1.14-1.16,1.14-1.14-.49-1.14-1.14.49-1.16,1.14-1.16ZM413.77,217.73h-1.65v8.5h1.65v-8.5Z"/>
      <path class="cls-1" d="M421,217.73h1.84v.19l-3.11,3.72,1.44,2.19c.49.7.73,1.14,1.5,1.14.19,0,.73-.02,1.1-.32l.56,1.11c-.66.7-1.67.66-1.85.66-1.63,0-2.18-1.1-2.69-1.8l-1.72-2.75v4.37h-1.65v-12.29h1.65v7.36l2.92-3.57Z"/>
      <path class="cls-1" d="M433,224.83c-1.09,1.22-2.46,1.58-3.72,1.58-2.96,0-4.79-1.99-4.79-4.4s1.94-4.47,4.57-4.47c2.24,0,4.33,1.45,4.33,4.59h-7.26c-.05,1.65,1.27,2.82,3.16,2.82,1.02,0,1.94-.34,2.79-1.07l.92.95ZM426.28,220.86h5.41c-.46-1.55-1.67-1.87-2.6-1.87-1,0-2.24.39-2.8,1.87Z"/>
      <path class="cls-1" d="M438.85,217.54c1.14,0,2.26.39,3.08,1.55v-5.15h1.65v12.29h-1.65v-1.36c-.82,1.16-1.94,1.55-3.08,1.55-2.55,0-4.22-2-4.22-4.44s1.67-4.44,4.22-4.44ZM439.05,219c-1.77,0-2.77,1.36-2.77,2.97s1,2.98,2.77,2.98,2.89-1.26,2.91-2.98c-.02-1.72-1.19-2.97-2.91-2.97Z"/>
      <path class="cls-1" d="M447.07,223.91c.7,0,1.26.56,1.26,1.26s-.56,1.24-1.26,1.24-1.24-.54-1.24-1.24.54-1.26,1.24-1.26Z"/>
      <path class="cls-1" d="M457.44,216.84l-.82,9.38h-1.72l1.12-11.9h1.9l3.96,9.48,3.96-9.48h1.9l1.12,11.9h-1.72l-.82-9.38-3.82,9.23h-1.26l-3.82-9.23Z"/>
      <path class="cls-1" d="M477.03,217.73h1.92l-5.22,12.31h-1.6l1.58-4.1-3.59-8.21h1.89l2.6,6.34,2.41-6.34Z"/>
      <path class="cls-1" d="M200.17,237.94c1.14,0,2.26.39,3.08,1.55v-5.15h1.65v12.29h-1.65v-1.36c-.82,1.16-1.94,1.55-3.08,1.55-2.55,0-4.22-2-4.22-4.44s1.67-4.44,4.22-4.44ZM200.38,239.4c-1.77,0-2.77,1.36-2.77,2.97s1,2.98,2.77,2.98,2.89-1.26,2.91-2.98c-.02-1.72-1.19-2.97-2.91-2.97Z"/>
      <path class="cls-1" d="M211.32,237.94c2.46,0,4.47,2.01,4.47,4.44s-2.01,4.44-4.47,4.44-4.45-1.97-4.45-4.44,2.01-4.44,4.45-4.44ZM211.32,245.35c1.56,0,2.82-1.33,2.82-2.96s-1.26-2.99-2.82-2.99-2.8,1.34-2.8,2.99,1.26,2.96,2.8,2.96Z"/>
      <path class="cls-1" d="M226.08,246.56c0,2.82-2.11,4.06-4.44,4.06-1.8,0-2.82-.56-3.64-1.22l.66-1.29c.85.75,1.89,1.07,2.97,1.07,1.65,0,2.79-.95,2.79-2.77v-1.14c-.82,1.16-1.94,1.55-3.08,1.55-2.55,0-4.22-2-4.22-4.44s1.67-4.44,4.22-4.44c1.14,0,2.26.39,3.08,1.55v-1.36h1.65v8.43ZM221.56,239.4c-1.77,0-2.77,1.36-2.77,2.97s1,2.98,2.77,2.98,2.89-1.26,2.91-2.98c-.02-1.72-1.19-2.97-2.91-2.97Z"/>
      <path class="cls-1" d="M236.77,237.94c1.14,0,2.26.39,3.08,1.55v-1.36h1.65v8.5h-1.65v-1.36c-.82,1.16-1.94,1.55-3.08,1.55-2.55,0-4.22-2-4.22-4.44s1.67-4.44,4.22-4.44ZM236.98,239.4c-1.77,0-2.77,1.36-2.77,2.97s1,2.98,2.77,2.98,2.89-1.26,2.91-2.98c-.02-1.72-1.19-2.97-2.91-2.97Z"/>
      <path class="cls-1" d="M248.84,246.81c-1.14,0-2.26-.39-3.08-1.55v1.36h-1.65v-12.29h1.65v5.15c.82-1.16,1.94-1.55,3.08-1.55,2.55,0,4.22,2.01,4.22,4.44s-1.67,4.44-4.22,4.44ZM248.64,245.35c1.77,0,2.77-1.36,2.77-2.98s-1-2.97-2.77-2.97-2.89,1.26-2.91,2.97c.02,1.72,1.19,2.98,2.91,2.98Z"/>
      <path class="cls-1" d="M258.89,240.29c-.27-.76-.8-.93-1.33-.93-.77,0-1.26.48-1.26,1.09,0,.56.51.85,1.02,1.02l1.22.41c1.61.49,2.04,1.5,2.04,2.4,0,1.61-1.41,2.55-3.06,2.55-1.5,0-2.89-.76-3.28-2.23l1.46-.36c.2.68.97,1.17,1.84,1.17s1.46-.49,1.46-1.16c0-.58-.48-.87-1.07-1.07l-1.14-.39c-1.36-.41-2.09-1.14-2.09-2.31,0-1.45,1.12-2.53,2.81-2.53,1.19,0,2.36.49,2.84,2.02l-1.46.32Z"/>
      <path class="cls-1" d="M266.37,237.94c2.46,0,4.47,2.01,4.47,4.44s-2.01,4.44-4.47,4.44-4.45-1.97-4.45-4.44,2.01-4.44,4.45-4.44ZM266.37,245.35c1.56,0,2.82-1.33,2.82-2.96s-1.26-2.99-2.82-2.99-2.8,1.34-2.8,2.99,1.26,2.96,2.8,2.96Z"/>
      <path class="cls-1" d="M274.51,246.63h-1.65v-12.29h1.65v12.29Z"/>
      <path class="cls-1" d="M278.69,242.92c0,1.8.83,2.43,1.73,2.43s2.74-.6,2.74-3.28v-3.94h1.65v8.5h-1.65v-1.7c-.36,1.21-1.46,1.89-2.86,1.89-1.84,0-3.26-1.16-3.26-3.89v-4.79h1.65v4.79Z"/>
      <path class="cls-1" d="M289.49,244.06c0,.93.46,1.31,1.02,1.31.53,0,1.04-.31,1.04-.93,0-.12-.02-.44-.14-.7h1.44c.15.34.15.92.15.92,0,1.21-.87,2.16-2.52,2.16-1.34,0-2.65-.7-2.65-2.87v-4.52h-1.39v-1.29h1.39l.37-2.45h1.27v2.45h2.7v1.29h-2.7v4.64Z"/>
      <path class="cls-1" d="M302.42,245.23c-1.09,1.22-2.46,1.58-3.72,1.58-2.96,0-4.79-1.99-4.79-4.4s1.94-4.47,4.57-4.47c2.24,0,4.33,1.45,4.33,4.59h-7.26c-.05,1.65,1.27,2.82,3.16,2.82,1.02,0,1.94-.34,2.79-1.07l.92.95ZM295.71,241.25h5.41c-.46-1.55-1.67-1.87-2.6-1.87-1,0-2.24.39-2.8,1.87Z"/>
      <path class="cls-1" d="M306.37,246.63h-1.65v-12.29h1.65v12.29Z"/>
      <path class="cls-1" d="M314.94,238.13h1.92l-5.22,12.31h-1.6l1.58-4.1-3.59-8.21h1.89l2.6,6.34,2.41-6.34Z"/>
      <path class="cls-1" d="M324.15,246.63h-1.65v-12.29h1.65v12.29Z"/>
      <path class="cls-1" d="M330.63,237.94c2.46,0,4.47,2.01,4.47,4.44s-2.01,4.44-4.47,4.44-4.45-1.97-4.45-4.44,2.01-4.44,4.45-4.44ZM330.63,245.35c1.56,0,2.82-1.33,2.82-2.96s-1.26-2.99-2.82-2.99-2.8,1.34-2.8,2.99,1.26,2.96,2.8,2.96Z"/>
      <path class="cls-1" d="M340.98,246.63h-1.87l-3.28-8.5h1.73l2.48,6.68,2.48-6.68h1.73l-3.28,8.5Z"/>
      <path class="cls-1" d="M353.51,245.23c-1.09,1.22-2.46,1.58-3.72,1.58-2.96,0-4.79-1.99-4.79-4.4s1.94-4.47,4.57-4.47c2.24,0,4.33,1.45,4.33,4.59h-7.26c-.05,1.65,1.27,2.82,3.16,2.82,1.02,0,1.94-.34,2.79-1.07l.92.95ZM346.79,241.25h5.41c-.46-1.55-1.67-1.87-2.6-1.87-1,0-2.24.39-2.8,1.87Z"/>
      <path class="cls-1" d="M359.58,240.29c-.27-.76-.8-.93-1.33-.93-.77,0-1.26.48-1.26,1.09,0,.56.51.85,1.02,1.02l1.22.41c1.61.49,2.04,1.5,2.04,2.4,0,1.61-1.41,2.55-3.06,2.55-1.5,0-2.89-.76-3.28-2.23l1.46-.36c.2.68.97,1.17,1.84,1.17s1.46-.49,1.46-1.16c0-.58-.48-.87-1.07-1.07l-1.14-.39c-1.36-.41-2.09-1.14-2.09-2.31,0-1.45,1.12-2.53,2.81-2.53,1.19,0,2.36.49,2.84,2.02l-1.46.32Z"/>
      <path class="cls-1" d="M368.08,246.63v-11.9h4.96c2.28,0,3.59,1.73,3.59,3.74,0,1.77-1.02,3.25-2.81,3.59.12,1.29.94,3.31,2.26,3.31.59,0,1.07-.24,1.39-.54l.6,1.16c-.56.58-1.33.83-2.09.83-2.79,0-3.65-3.25-3.77-4.69h-2.43v4.5h-1.7ZM372.68,240.76c1.36,0,2.18-.95,2.18-2.31s-.83-2.33-2.18-2.33h-2.91v4.64h2.91Z"/>
      <path class="cls-1" d="M383.19,237.94c2.46,0,4.47,2.01,4.47,4.44s-2.01,4.44-4.47,4.44-4.45-1.97-4.45-4.44,2.01-4.44,4.45-4.44ZM383.19,245.35c1.56,0,2.82-1.33,2.82-2.96s-1.26-2.99-2.82-2.99-2.8,1.34-2.8,2.99,1.26,2.96,2.8,2.96Z"/>
      <path class="cls-1" d="M395.75,241.83c0-1.8-.83-2.43-1.73-2.43s-2.74.6-2.74,3.28v3.94h-1.65v-8.5h1.65v1.7c.36-1.21,1.46-1.89,2.86-1.89,1.84,0,3.26,1.16,3.26,3.89v4.79h-1.65v-4.79Z"/>
      <path class="cls-1" d="M400.58,238.13h1.65v10.11c0,1.6-1.31,2.38-2.65,2.38-1.65,0-2.52-.95-2.52-2.16,0,0,0-.58.15-.92h1.5c-.12.25-.14.58-.14.7,0,.63.46.93.99.93.56,0,1.02-.32,1.02-1.02v-10.03ZM400.26,235.39c0,.65.49,1.14,1.14,1.14s1.16-.49,1.16-1.14-.51-1.16-1.16-1.16-1.14.51-1.14,1.16Z"/>
      <path class="cls-1" d="M408.49,237.94c1.14,0,2.26.39,3.08,1.55v-1.36h1.65v8.5h-1.65v-1.36c-.82,1.16-1.94,1.55-3.08,1.55-2.55,0-4.22-2-4.22-4.44s1.67-4.44,4.22-4.44ZM408.69,239.4c-1.77,0-2.77,1.36-2.77,2.97s1,2.98,2.77,2.98,2.89-1.26,2.91-2.98c-.02-1.72-1.19-2.97-2.91-2.97Z"/>
      <path class="cls-1" d="M416.71,244.31c.7,0,1.26.56,1.26,1.26s-.56,1.24-1.26,1.24-1.24-.54-1.24-1.24.54-1.26,1.24-1.26Z"/>
      <path class="cls-1" d="M423.19,234.91v-.19h1.87l3.47,5.56,3.5-5.56h1.87v.19l-4.5,6.82v4.9h-1.7v-4.9l-4.5-6.82Z"/>
      <path class="cls-1" d="M437.66,237.94c2.46,0,4.47,2.01,4.47,4.44s-2.01,4.44-4.47,4.44-4.45-1.97-4.45-4.44,2.01-4.44,4.45-4.44ZM437.66,245.35c1.56,0,2.82-1.33,2.82-2.96s-1.26-2.99-2.82-2.99-2.81,1.34-2.81,2.99,1.26,2.96,2.81,2.96Z"/>
      <path class="cls-1" d="M445.61,242.92c0,1.8.83,2.43,1.73,2.43s2.74-.6,2.74-3.28v-3.94h1.65v8.5h-1.65v-1.7c-.36,1.21-1.46,1.89-2.86,1.89-1.84,0-3.26-1.16-3.26-3.89v-4.79h1.65v4.79Z"/>
      <path class="cls-1" d="M462.99,237.94c.76,0,1.9.19,3.04,1.04l-.78,1.12c-.9-.68-1.97-.7-2.19-.7-1.84,0-3.2,1.22-3.2,2.97s1.36,2.98,3.2,2.98c.22,0,1.29-.02,2.19-.7l.78,1.12c-1.14.85-2.28,1.04-3.04,1.04-3.01,0-4.78-1.92-4.78-4.33s1.68-4.54,4.78-4.54Z"/>
      <path class="cls-1" d="M471.23,237.94c1.14,0,2.26.39,3.08,1.55v-1.36h1.65v8.5h-1.65v-1.36c-.82,1.16-1.94,1.55-3.08,1.55-2.55,0-4.22-2-4.22-4.44s1.67-4.44,4.22-4.44ZM471.44,239.4c-1.77,0-2.77,1.36-2.77,2.97s1,2.98,2.77,2.98,2.89-1.26,2.91-2.98c-.02-1.72-1.19-2.97-2.91-2.97Z"/>
      <path class="cls-1" d="M484.7,241.83c0-1.8-.83-2.43-1.73-2.43s-2.74.6-2.74,3.28v3.94h-1.65v-8.5h1.65v1.7c.36-1.21,1.46-1.89,2.86-1.89,1.84,0,3.26,1.16,3.26,3.89v4.79h-1.65v-4.79Z"/>
      <path class="cls-1" d="M200.39,260.69c-.27-.76-.8-.93-1.33-.93-.77,0-1.26.48-1.26,1.09,0,.56.51.85,1.02,1.02l1.22.41c1.61.49,2.04,1.5,2.04,2.4,0,1.61-1.41,2.55-3.06,2.55-1.5,0-2.89-.76-3.28-2.23l1.46-.36c.2.68.97,1.17,1.84,1.17s1.46-.49,1.46-1.16c0-.58-.48-.87-1.07-1.07l-1.14-.39c-1.36-.41-2.09-1.14-2.09-2.31,0-1.45,1.12-2.53,2.8-2.53,1.19,0,2.36.49,2.84,2.02l-1.46.32Z"/>
      <path class="cls-1" d="M211.93,265.63c-1.09,1.22-2.46,1.58-3.72,1.58-2.96,0-4.79-1.99-4.79-4.4s1.94-4.47,4.57-4.47c2.24,0,4.33,1.45,4.33,4.59h-7.26c-.05,1.65,1.27,2.82,3.16,2.82,1.02,0,1.94-.34,2.79-1.07l.92.95ZM205.22,261.66h5.41c-.46-1.55-1.67-1.87-2.6-1.87-1,0-2.24.39-2.8,1.87Z"/>
      <path class="cls-1" d="M222.05,265.63c-1.09,1.22-2.46,1.58-3.72,1.58-2.96,0-4.79-1.99-4.79-4.4s1.94-4.47,4.57-4.47c2.24,0,4.33,1.45,4.33,4.59h-7.26c-.05,1.65,1.27,2.82,3.16,2.82,1.02,0,1.94-.34,2.79-1.07l.92.95ZM215.34,261.66h5.41c-.46-1.55-1.67-1.87-2.6-1.87-1,0-2.24.39-2.8,1.87Z"/>
      <path class="cls-1" d="M230.84,264.46c0,.93.46,1.31,1.02,1.31.53,0,1.04-.31,1.04-.93,0-.12-.02-.44-.14-.7h1.44c.15.34.15.92.15.92,0,1.21-.87,2.16-2.52,2.16-1.34,0-2.65-.7-2.65-2.87v-4.52h-1.39v-1.29h1.39l.37-2.45h1.27v2.45h2.7v1.29h-2.7v4.64Z"/>
      <path class="cls-1" d="M242.02,262.23c0-1.8-.83-2.43-1.73-2.43s-2.74.6-2.74,3.28v3.94h-1.65v-12.29h1.65v5.49c.36-1.21,1.46-1.89,2.86-1.89,1.84,0,3.26,1.16,3.26,3.89v4.79h-1.65v-4.79Z"/>
      <path class="cls-1" d="M254.03,265.63c-1.09,1.22-2.46,1.58-3.72,1.58-2.96,0-4.79-1.99-4.79-4.4s1.94-4.47,4.57-4.47c2.24,0,4.33,1.45,4.33,4.59h-7.26c-.05,1.65,1.27,2.82,3.16,2.82,1.02,0,1.94-.34,2.79-1.07l.92.95ZM247.31,261.66h5.41c-.46-1.55-1.67-1.87-2.6-1.87-1,0-2.24.39-2.8,1.87Z"/>
      <path class="cls-1" d="M261.83,258.53h1.92l-5.22,12.31h-1.6l1.58-4.1-3.59-8.21h1.89l2.6,6.34,2.41-6.34Z"/>
      <path class="cls-1" d="M275.46,262.23c0-1.8-.83-2.43-1.73-2.43s-2.74.6-2.74,3.28v3.94h-1.65v-12.29h1.65v5.49c.36-1.21,1.46-1.89,2.86-1.89,1.84,0,3.26,1.16,3.26,3.89v4.79h-1.65v-4.79Z"/>
      <path class="cls-1" d="M283.18,258.34c1.14,0,2.26.39,3.08,1.55v-1.36h1.65v8.5h-1.65v-1.36c-.82,1.16-1.94,1.55-3.08,1.55-2.55,0-4.22-2-4.22-4.44s1.67-4.44,4.22-4.44ZM283.39,259.8c-1.77,0-2.77,1.36-2.77,2.97s1,2.98,2.77,2.98,2.89-1.26,2.91-2.98c-.02-1.72-1.19-2.97-2.91-2.97Z"/>
      <path class="cls-1" d="M294.76,267.03h-1.87l-3.28-8.5h1.73l2.48,6.68,2.48-6.68h1.73l-3.28,8.5Z"/>
      <path class="cls-1" d="M307.29,265.63c-1.09,1.22-2.46,1.58-3.72,1.58-2.96,0-4.79-1.99-4.79-4.4s1.94-4.47,4.57-4.47c2.24,0,4.33,1.45,4.33,4.59h-7.26c-.05,1.65,1.27,2.82,3.16,2.82,1.02,0,1.94-.34,2.79-1.07l.92.95ZM300.57,261.66h5.41c-.46-1.55-1.67-1.87-2.6-1.87-1,0-2.24.39-2.8,1.87Z"/>
      <path class="cls-1" d="M317.61,258.34c1.14,0,2.26.39,3.08,1.55v-1.36h1.65v8.5h-1.65v-1.36c-.82,1.16-1.94,1.55-3.08,1.55-2.55,0-4.22-2-4.22-4.44s1.67-4.44,4.22-4.44ZM317.81,259.8c-1.77,0-2.77,1.36-2.77,2.97s1,2.98,2.77,2.98,2.89-1.26,2.91-2.98c-.02-1.72-1.19-2.97-2.91-2.97Z"/>
      <path class="cls-1" d="M331.09,260.45c.29-1.34,1.22-2.11,2.28-2.11.31,0,.54.08.78.19v1.61c-.27-.15-.6-.22-.9-.22-.56,0-2.16.27-2.16,3.89v3.21h-1.65v-8.5h1.65v1.92Z"/>
      <path class="cls-1" d="M343.34,265.63c-1.09,1.22-2.46,1.58-3.72,1.58-2.96,0-4.79-1.99-4.79-4.4s1.94-4.47,4.57-4.47c2.24,0,4.33,1.45,4.33,4.59h-7.26c-.05,1.65,1.27,2.82,3.16,2.82,1.02,0,1.94-.34,2.79-1.07l.92.95ZM336.63,261.66h5.41c-.46-1.55-1.67-1.87-2.6-1.87-1,0-2.24.39-2.8,1.87Z"/>
      <path class="cls-1" d="M349.17,258.34c1.14,0,2.26.39,3.08,1.55v-1.36h1.65v8.5h-1.65v-1.36c-.82,1.16-1.94,1.55-3.08,1.55-2.55,0-4.22-2-4.22-4.44s1.67-4.44,4.22-4.44ZM349.38,259.8c-1.77,0-2.77,1.36-2.77,2.97s1,2.98,2.77,2.98,2.89-1.26,2.91-2.98c-.02-1.72-1.19-2.97-2.91-2.97Z"/>
      <path class="cls-1" d="M358.22,267.03h-1.65v-12.29h1.65v12.29Z"/>
      <path class="cls-1" d="M370.1,267.21c-1.14,0-2.26-.39-3.08-1.55v1.36h-1.65v-12.29h1.65v5.15c.82-1.16,1.94-1.55,3.08-1.55,2.55,0,4.22,2.01,4.22,4.44s-1.67,4.44-4.22,4.44ZM369.9,265.75c1.77,0,2.77-1.36,2.77-2.98s-1-2.97-2.77-2.97-2.89,1.26-2.91,2.97c.02,1.72,1.19,2.98,2.91,2.98Z"/>
      <path class="cls-1" d="M380.13,258.34c2.46,0,4.47,2.01,4.47,4.44s-2.01,4.44-4.47,4.44-4.45-1.97-4.45-4.44,2.01-4.44,4.45-4.44ZM380.13,265.75c1.56,0,2.82-1.33,2.82-2.96s-1.26-2.99-2.82-2.99-2.81,1.34-2.81,2.99,1.26,2.96,2.81,2.96Z"/>
      <path class="cls-1" d="M392.69,262.23c0-1.8-.83-2.43-1.73-2.43s-2.74.6-2.74,3.28v3.94h-1.65v-8.5h1.65v1.7c.36-1.21,1.46-1.89,2.86-1.89,1.84,0,3.26,1.16,3.26,3.89v4.79h-1.65v-4.79Z"/>
      <path class="cls-1" d="M400.44,258.34c1.14,0,2.26.39,3.08,1.55v-5.15h1.65v12.29h-1.65v-1.36c-.82,1.16-1.94,1.55-3.08,1.55-2.55,0-4.22-2-4.22-4.44s1.67-4.44,4.22-4.44ZM400.65,259.8c-1.77,0-2.77,1.36-2.77,2.97s1,2.98,2.77,2.98,2.89-1.26,2.91-2.98c-.02-1.72-1.19-2.97-2.91-2.97Z"/>
      <path class="cls-1" d="M416.8,258.78h1.39l1.94,6.03,2.21-6.29h1.72l-3.08,8.5h-1.56l-1.92-5.92-1.92,5.92h-1.56l-3.08-8.5h1.72l2.21,6.29,1.94-6.03Z"/>
      <path class="cls-1" d="M431.91,262.23c0-1.8-.83-2.43-1.73-2.43s-2.74.6-2.74,3.28v3.94h-1.65v-12.29h1.65v5.49c.36-1.21,1.46-1.89,2.86-1.89,1.84,0,3.26,1.16,3.26,3.89v4.79h-1.65v-4.79Z"/>
      <path class="cls-1" d="M436.91,254.63c.65,0,1.16.51,1.16,1.16s-.51,1.14-1.16,1.14-1.14-.49-1.14-1.14.49-1.16,1.14-1.16ZM437.74,258.53h-1.65v8.5h1.65v-8.5Z"/>
      <path class="cls-1" d="M444.56,258.34c.76,0,1.9.19,3.04,1.04l-.78,1.12c-.9-.68-1.97-.7-2.19-.7-1.84,0-3.2,1.22-3.2,2.97s1.36,2.98,3.2,2.98c.22,0,1.29-.02,2.19-.7l.78,1.12c-1.14.85-2.28,1.04-3.04,1.04-3.01,0-4.78-1.92-4.78-4.33s1.68-4.54,4.78-4.54Z"/>
      <path class="cls-1" d="M455.51,262.23c0-1.8-.83-2.43-1.73-2.43s-2.74.6-2.74,3.28v3.94h-1.65v-12.29h1.65v5.49c.36-1.21,1.46-1.89,2.86-1.89,1.84,0,3.26,1.16,3.26,3.89v4.79h-1.65v-4.79Z"/>
      <path class="cls-1" d="M464.99,254.63c.65,0,1.16.51,1.16,1.16s-.51,1.14-1.16,1.14-1.14-.49-1.14-1.14.49-1.16,1.14-1.16ZM465.83,258.53h-1.65v8.5h1.65v-8.5Z"/>
      <path class="cls-1" d="M472.32,260.69c-.27-.76-.8-.93-1.33-.93-.77,0-1.26.48-1.26,1.09,0,.56.51.85,1.02,1.02l1.22.41c1.61.49,2.04,1.5,2.04,2.4,0,1.61-1.41,2.55-3.06,2.55-1.5,0-2.89-.76-3.28-2.23l1.46-.36c.2.68.97,1.17,1.84,1.17s1.46-.49,1.46-1.16c0-.58-.48-.87-1.07-1.07l-1.14-.39c-1.36-.41-2.09-1.14-2.09-2.31,0-1.45,1.12-2.53,2.8-2.53,1.19,0,2.36.49,2.84,2.02l-1.46.32Z"/>
      <path class="cls-1" d="M201.55,279.18h1.39l1.94,6.03,2.21-6.29h1.72l-3.08,8.5h-1.56l-1.92-5.92-1.92,5.92h-1.56l-3.08-8.5h1.72l2.21,6.29,1.94-6.03Z"/>
      <path class="cls-1" d="M214.06,278.74c2.46,0,4.47,2.01,4.47,4.44s-2.01,4.44-4.47,4.44-4.45-1.97-4.45-4.44,2.01-4.44,4.45-4.44ZM214.06,286.15c1.56,0,2.82-1.33,2.82-2.96s-1.26-2.99-2.82-2.99-2.81,1.34-2.81,2.99,1.26,2.96,2.81,2.96Z"/>
      <path class="cls-1" d="M226.62,282.63c0-1.8-.83-2.43-1.73-2.43s-2.74.6-2.74,3.28v3.94h-1.65v-8.5h1.65v1.7c.36-1.21,1.46-1.89,2.86-1.89,1.84,0,3.26,1.16,3.26,3.89v4.79h-1.65v-4.79Z"/>
      <path class="cls-1" d="M234.37,278.74c1.14,0,2.26.39,3.08,1.55v-5.15h1.65v12.29h-1.65v-1.36c-.82,1.16-1.94,1.55-3.08,1.55-2.55,0-4.22-2-4.22-4.44s1.67-4.44,4.22-4.44ZM234.58,280.2c-1.77,0-2.77,1.36-2.77,2.97s1,2.98,2.77,2.98,2.89-1.26,2.91-2.98c-.02-1.72-1.19-2.97-2.91-2.97Z"/>
      <path class="cls-1" d="M249.59,286.03c-1.09,1.22-2.46,1.58-3.72,1.58-2.96,0-4.79-1.99-4.79-4.4s1.94-4.47,4.57-4.47c2.24,0,4.33,1.45,4.33,4.59h-7.26c-.05,1.65,1.27,2.82,3.16,2.82,1.02,0,1.94-.34,2.79-1.07l.92.95ZM242.87,282.06h5.41c-.46-1.55-1.67-1.87-2.6-1.87-1,0-2.24.39-2.8,1.87Z"/>
      <path class="cls-1" d="M253.48,280.85c.29-1.34,1.22-2.11,2.28-2.11.31,0,.54.08.78.19v1.61c-.27-.15-.6-.22-.9-.22-.56,0-2.16.27-2.16,3.89v3.21h-1.65v-8.5h1.65v1.92Z"/>
      <path class="cls-1" d="M260.3,278.93h2.23v1.29h-2.23v7.21h-1.7v-7.21h-1.34v-1.29h1.34v-.65c0-2.74,1.48-3.31,2.82-3.31,1.65,0,2.53.94,2.53,2.14,0,0,0,.22-.09.46h-1.41c.02-.12.03-.17.03-.29,0-.68-.53-.87-1.05-.87-.56,0-1.14.37-1.14,1.65v.87Z"/>
      <path class="cls-1" d="M265.89,283.72c0,1.8.83,2.43,1.73,2.43s2.74-.6,2.74-3.28v-3.94h1.65v8.5h-1.65v-1.7c-.36,1.21-1.46,1.89-2.86,1.89-1.84,0-3.26-1.16-3.26-3.89v-4.79h1.65v4.79Z"/>
      <path class="cls-1" d="M276.33,287.43h-1.65v-12.29h1.65v12.29Z"/>
      <path class="cls-1" d="M279.88,285.12c.7,0,1.26.56,1.26,1.26s-.56,1.24-1.26,1.24-1.24-.54-1.24-1.24.54-1.26,1.24-1.26Z"/>
      <path class="cls-1" d="M289.95,287.43h-1.7v-11.9h1.7v11.9Z"/>
      <path class="cls-1" d="M303.53,282.63c0-1.8-.83-2.43-1.73-2.43s-2.74.6-2.74,3.28v3.94h-1.65v-12.29h1.65v5.49c.36-1.21,1.46-1.89,2.86-1.89,1.84,0,3.26,1.16,3.26,3.89v4.79h-1.65v-4.79Z"/>
      <path class="cls-1" d="M308.53,275.04c.65,0,1.16.51,1.16,1.16s-.51,1.14-1.16,1.14-1.14-.49-1.14-1.14.49-1.16,1.14-1.16ZM309.36,278.93h-1.65v8.5h1.65v-8.5Z"/>
      <path class="cls-1" d="M320.34,287.36c0,2.82-2.11,4.06-4.44,4.06-1.8,0-2.82-.56-3.64-1.22l.66-1.29c.85.75,1.89,1.07,2.97,1.07,1.65,0,2.79-.95,2.79-2.77v-1.14c-.82,1.16-1.94,1.55-3.08,1.55-2.55,0-4.22-2-4.22-4.44s1.67-4.44,4.22-4.44c1.14,0,2.26.39,3.08,1.55v-1.36h1.65v8.43ZM315.82,280.2c-1.77,0-2.77,1.36-2.77,2.97s1,2.98,2.77,2.98,2.89-1.26,2.91-2.98c-.02-1.72-1.19-2.97-2.91-2.97Z"/>
      <path class="cls-1" d="M329.08,282.63c0-1.8-.83-2.43-1.73-2.43s-2.74.6-2.74,3.28v3.94h-1.65v-12.29h1.65v5.49c.36-1.21,1.46-1.89,2.86-1.89,1.84,0,3.26,1.16,3.26,3.89v4.79h-1.65v-4.79Z"/>
      <path class="cls-1" d="M334.91,287.43h-1.65v-12.29h1.65v12.29Z"/>
      <path class="cls-1" d="M343.48,278.93h1.92l-5.22,12.31h-1.6l1.58-4.1-3.59-8.21h1.89l2.6,6.34,2.41-6.34Z"/>
      <path class="cls-1" d="M352.64,280.85c.29-1.34,1.22-2.11,2.28-2.11.31,0,.54.08.78.19v1.61c-.27-.15-.6-.22-.9-.22-.56,0-2.16.27-2.16,3.89v3.21h-1.65v-8.5h1.65v1.92Z"/>
      <path class="cls-1" d="M364.9,286.03c-1.09,1.22-2.46,1.58-3.72,1.58-2.96,0-4.79-1.99-4.79-4.4s1.94-4.47,4.57-4.47c2.24,0,4.33,1.45,4.33,4.59h-7.26c-.05,1.65,1.27,2.82,3.16,2.82,1.02,0,1.94-.34,2.79-1.07l.92.95ZM358.18,282.06h5.41c-.46-1.55-1.67-1.87-2.6-1.87-1,0-2.24.39-2.8,1.87Z"/>
      <path class="cls-1" d="M371.29,278.74c.76,0,1.9.19,3.04,1.04l-.78,1.12c-.9-.68-1.97-.7-2.19-.7-1.84,0-3.2,1.22-3.2,2.97s1.36,2.98,3.2,2.98c.22,0,1.29-.02,2.19-.7l.78,1.12c-1.14.85-2.28,1.04-3.04,1.04-3.01,0-4.78-1.92-4.78-4.33s1.68-4.54,4.78-4.54Z"/>
      <path class="cls-1" d="M379.74,278.74c2.46,0,4.47,2.01,4.47,4.44s-2.01,4.44-4.47,4.44-4.45-1.97-4.45-4.44,2.01-4.44,4.45-4.44ZM379.74,286.15c1.56,0,2.82-1.33,2.82-2.96s-1.26-2.99-2.82-2.99-2.8,1.34-2.8,2.99,1.26,2.96,2.8,2.96Z"/>
      <path class="cls-1" d="M391.98,282.63c0-1.8-.83-2.43-1.73-2.43s-2.41.6-2.41,3.28v3.94h-1.65v-8.5h1.65v1.7c.36-1.24,1.46-1.89,2.72-1.89.82,0,2.04.27,2.7,1.79.7-1.48,1.87-1.79,2.89-1.79,2.01,0,3.28,1.16,3.28,3.89v4.79h-1.65v-4.79c0-1.8-.83-2.43-1.73-2.43-.8,0-2.33.49-2.41,3.09v4.13h-1.65v-4.79Z"/>
      <path class="cls-1" d="M407.72,282.63c0-1.8-.83-2.43-1.73-2.43s-2.41.6-2.41,3.28v3.94h-1.65v-8.5h1.65v1.7c.36-1.24,1.46-1.89,2.72-1.89.82,0,2.04.27,2.7,1.79.7-1.48,1.87-1.79,2.89-1.79,2.01,0,3.28,1.16,3.28,3.89v4.79h-1.65v-4.79c0-1.8-.83-2.43-1.73-2.43-.8,0-2.33.49-2.41,3.09v4.13h-1.65v-4.79Z"/>
      <path class="cls-1" d="M425.54,286.03c-1.09,1.22-2.46,1.58-3.72,1.58-2.96,0-4.79-1.99-4.79-4.4s1.94-4.47,4.57-4.47c2.24,0,4.33,1.45,4.33,4.59h-7.26c-.05,1.65,1.27,2.82,3.16,2.82,1.02,0,1.94-.34,2.79-1.07l.92.95ZM418.82,282.06h5.41c-.46-1.55-1.67-1.87-2.6-1.87-1,0-2.24.39-2.8,1.87Z"/>
      <path class="cls-1" d="M433.9,282.63c0-1.8-.83-2.43-1.73-2.43s-2.74.6-2.74,3.28v3.94h-1.65v-8.5h1.65v1.7c.36-1.21,1.46-1.89,2.86-1.89,1.84,0,3.26,1.16,3.26,3.89v4.79h-1.65v-4.79Z"/>
      <path class="cls-1" d="M441.65,278.74c1.14,0,2.26.39,3.08,1.55v-5.15h1.65v12.29h-1.65v-1.36c-.82,1.16-1.94,1.55-3.08,1.55-2.55,0-4.22-2-4.22-4.44s1.67-4.44,4.22-4.44ZM441.86,280.2c-1.77,0-2.77,1.36-2.77,2.97s1,2.98,2.77,2.98,2.89-1.26,2.91-2.98c-.02-1.72-1.19-2.97-2.91-2.97Z"/>
      <path class="cls-1" d="M453.82,287.43v-11.9h4.96c2.28,0,3.59,1.73,3.59,3.74,0,1.77-1.02,3.25-2.81,3.59.12,1.29.94,3.31,2.26,3.31.59,0,1.07-.24,1.39-.54l.6,1.16c-.56.58-1.33.83-2.09.83-2.79,0-3.65-3.25-3.77-4.69h-2.43v4.5h-1.7ZM458.43,281.56c1.36,0,2.18-.95,2.18-2.31s-.83-2.33-2.18-2.33h-2.91v4.64h2.91Z"/>
      <path class="cls-1" d="M468.94,278.74c2.46,0,4.47,2.01,4.47,4.44s-2.01,4.44-4.47,4.44-4.45-1.97-4.45-4.44,2.01-4.44,4.45-4.44ZM468.94,286.15c1.56,0,2.82-1.33,2.82-2.96s-1.26-2.99-2.82-2.99-2.8,1.34-2.8,2.99,1.26,2.96,2.8,2.96Z"/>
      <path class="cls-1" d="M481.5,282.63c0-1.8-.83-2.43-1.73-2.43s-2.74.6-2.74,3.28v3.94h-1.65v-8.5h1.65v1.7c.36-1.21,1.46-1.89,2.86-1.89,1.84,0,3.26,1.16,3.26,3.89v4.79h-1.65v-4.79Z"/>
      <path class="cls-1" d="M486.33,278.93h1.65v10.11c0,1.6-1.31,2.38-2.65,2.38-1.65,0-2.52-.95-2.52-2.16,0,0,0-.58.15-.92h1.5c-.12.25-.14.58-.14.7,0,.63.46.93.99.93.56,0,1.02-.32,1.02-1.02v-10.03ZM486,276.19c0,.65.49,1.14,1.14,1.14s1.16-.49,1.16-1.14-.51-1.16-1.16-1.16-1.14.51-1.14,1.16Z"/>
      <path class="cls-1" d="M494.23,278.74c1.14,0,2.26.39,3.08,1.55v-1.36h1.65v8.5h-1.65v-1.36c-.82,1.16-1.94,1.55-3.08,1.55-2.55,0-4.22-2-4.22-4.44s1.67-4.44,4.22-4.44ZM494.44,280.2c-1.77,0-2.77,1.36-2.77,2.97s1,2.98,2.77,2.98,2.89-1.26,2.91-2.98c-.02-1.72-1.19-2.97-2.91-2.97Z"/>
      <path class="cls-1" d="M200.15,299.14c1.14,0,2.26.39,3.08,1.55v-1.36h1.65v8.5h-1.65v-1.36c-.82,1.16-1.94,1.55-3.08,1.55-2.55,0-4.22-2-4.22-4.44s1.67-4.44,4.22-4.44ZM200.36,300.6c-1.77,0-2.77,1.36-2.77,2.97s1,2.98,2.77,2.98,2.89-1.26,2.91-2.98c-.02-1.72-1.19-2.97-2.91-2.97Z"/>
      <path class="cls-1" d="M213.62,303.03c0-1.8-.83-2.43-1.73-2.43s-2.74.6-2.74,3.28v3.94h-1.65v-8.5h1.65v1.7c.36-1.21,1.46-1.89,2.86-1.89,1.84,0,3.26,1.16,3.26,3.89v4.79h-1.65v-4.79Z"/>
      <path class="cls-1" d="M221.37,299.14c1.14,0,2.26.39,3.08,1.55v-5.15h1.65v12.29h-1.65v-1.36c-.82,1.16-1.94,1.55-3.08,1.55-2.55,0-4.22-2-4.22-4.44s1.67-4.44,4.22-4.44ZM221.57,300.6c-1.77,0-2.77,1.36-2.77,2.97s1,2.98,2.77,2.98,2.89-1.26,2.91-2.98c-.02-1.72-1.19-2.97-2.91-2.97Z"/>
      <path class="cls-1" d="M235.26,307.83h-1.7v-11.9h1.7v11.9Z"/>
      <path class="cls-1" d="M247.24,299.58h1.39l1.94,6.03,2.21-6.29h1.72l-3.08,8.5h-1.56l-1.92-5.92-1.92,5.92h-1.56l-3.08-8.5h1.72l2.21,6.29,1.94-6.03Z"/>
      <path class="cls-1" d="M257.1,295.43c.65,0,1.16.51,1.16,1.16s-.51,1.14-1.16,1.14-1.14-.49-1.14-1.14.49-1.16,1.14-1.16ZM257.94,299.33h-1.65v8.5h1.65v-8.5Z"/>
      <path class="cls-1" d="M262.3,307.83h-1.65v-12.29h1.65v12.29Z"/>
      <path class="cls-1" d="M266.67,307.83h-1.65v-12.29h1.65v12.29Z"/>
      <path class="cls-1" d="M278.55,308.01c-1.14,0-2.26-.39-3.08-1.55v1.36h-1.65v-12.29h1.65v5.15c.82-1.16,1.94-1.55,3.08-1.55,2.55,0,4.22,2.01,4.22,4.44s-1.67,4.44-4.22,4.44ZM278.35,306.55c1.77,0,2.77-1.36,2.77-2.98s-1-2.97-2.77-2.97-2.89,1.26-2.91,2.97c.02,1.72,1.19,2.98,2.91,2.98Z"/>
      <path class="cls-1" d="M292.65,306.43c-1.09,1.22-2.46,1.58-3.72,1.58-2.96,0-4.79-1.99-4.79-4.4s1.94-4.47,4.57-4.47c2.24,0,4.33,1.45,4.33,4.59h-7.26c-.05,1.65,1.27,2.82,3.16,2.82,1.02,0,1.94-.34,2.79-1.07l.92.95ZM285.93,302.45h5.41c-.46-1.55-1.67-1.87-2.6-1.87-1,0-2.24.39-2.8,1.87Z"/>
      <path class="cls-1" d="M303.2,301.49c-.27-.76-.8-.93-1.33-.93-.77,0-1.26.48-1.26,1.09,0,.56.51.85,1.02,1.02l1.22.41c1.61.49,2.04,1.5,2.04,2.4,0,1.61-1.41,2.55-3.06,2.55-1.5,0-2.89-.76-3.28-2.23l1.46-.36c.2.68.97,1.17,1.84,1.17s1.46-.49,1.46-1.16c0-.58-.48-.87-1.07-1.07l-1.14-.39c-1.36-.41-2.09-1.14-2.09-2.31,0-1.45,1.12-2.53,2.81-2.53,1.19,0,2.36.49,2.84,2.02l-1.46.32Z"/>
      <path class="cls-1" d="M308.39,304.12c0,1.8.83,2.43,1.73,2.43s2.74-.6,2.74-3.28v-3.94h1.65v8.5h-1.65v-1.7c-.36,1.21-1.46,1.89-2.86,1.89-1.84,0-3.26-1.16-3.26-3.89v-4.79h1.65v4.79Z"/>
      <path class="cls-1" d="M318.78,301.25c.29-1.34,1.22-2.11,2.28-2.11.31,0,.54.08.78.19v1.61c-.27-.15-.6-.22-.9-.22-.56,0-2.16.27-2.16,3.89v3.21h-1.65v-8.5h1.65v1.92Z"/>
      <path class="cls-1" d="M331.03,306.43c-1.09,1.22-2.46,1.58-3.72,1.58-2.96,0-4.79-1.99-4.79-4.4s1.94-4.47,4.57-4.47c2.24,0,4.33,1.45,4.33,4.59h-7.26c-.05,1.65,1.27,2.82,3.16,2.82,1.02,0,1.94-.34,2.79-1.07l.92.95ZM324.32,302.45h5.41c-.46-1.55-1.67-1.87-2.6-1.87-1,0-2.24.39-2.8,1.87Z"/>
      <path class="cls-1" d="M339.82,305.26c0,.93.46,1.31,1.02,1.31.53,0,1.04-.31,1.04-.93,0-.12-.02-.44-.14-.7h1.44c.15.34.15.92.15.92,0,1.21-.87,2.16-2.52,2.16-1.34,0-2.65-.7-2.65-2.87v-4.52h-1.39v-1.29h1.39l.37-2.45h1.27v2.45h2.7v1.29h-2.7v4.64Z"/>
      <path class="cls-1" d="M348.7,299.14c2.46,0,4.47,2.01,4.47,4.44s-2.01,4.44-4.47,4.44-4.45-1.97-4.45-4.44,2.01-4.44,4.45-4.44ZM348.7,306.55c1.56,0,2.82-1.33,2.82-2.96s-1.26-2.99-2.82-2.99-2.81,1.34-2.81,2.99,1.26,2.96,2.81,2.96Z"/>
      <path class="cls-1" d="M363.21,299.14c1.14,0,2.26.39,3.08,1.55v-1.36h1.65v8.5h-1.65v-1.36c-.82,1.16-1.94,1.55-3.08,1.55-2.55,0-4.22-2-4.22-4.44s1.67-4.44,4.22-4.44ZM363.42,300.6c-1.77,0-2.77,1.36-2.77,2.97s1,2.98,2.77,2.98,2.89-1.26,2.91-2.98c-.02-1.72-1.19-2.97-2.91-2.97Z"/>
      <path class="cls-1" d="M374.38,301.49c-.27-.76-.8-.93-1.33-.93-.77,0-1.26.48-1.26,1.09,0,.56.51.85,1.02,1.02l1.22.41c1.61.49,2.04,1.5,2.04,2.4,0,1.61-1.41,2.55-3.06,2.55-1.5,0-2.89-.76-3.28-2.23l1.46-.36c.2.68.97,1.17,1.84,1.17s1.46-.49,1.46-1.16c0-.58-.48-.87-1.07-1.07l-1.14-.39c-1.36-.41-2.09-1.14-2.09-2.31,0-1.45,1.12-2.53,2.81-2.53,1.19,0,2.36.49,2.84,2.02l-1.46.32Z"/>
      <path class="cls-1" d="M382.61,299.33h1.84v.19l-3.11,3.72,1.44,2.19c.49.7.73,1.14,1.5,1.14.19,0,.73-.02,1.1-.32l.56,1.11c-.66.7-1.67.66-1.85.66-1.63,0-2.18-1.1-2.69-1.8l-1.72-2.75v4.37h-1.65v-12.29h1.65v7.36l2.92-3.57Z"/>
      <path class="cls-1" d="M397.62,303.03c0-1.8-.83-2.43-1.73-2.43s-2.74.6-2.74,3.28v3.94h-1.65v-12.29h1.65v5.49c.36-1.21,1.46-1.89,2.86-1.89,1.84,0,3.26,1.16,3.26,3.89v4.79h-1.65v-4.79Z"/>
      <path class="cls-1" d="M409.62,306.43c-1.09,1.22-2.46,1.58-3.72,1.58-2.96,0-4.79-1.99-4.79-4.4s1.94-4.47,4.57-4.47c2.24,0,4.33,1.45,4.33,4.59h-7.26c-.05,1.65,1.27,2.82,3.16,2.82,1.02,0,1.94-.34,2.79-1.07l.92.95ZM402.91,302.45h5.41c-.46-1.55-1.67-1.87-2.6-1.87-1,0-2.24.39-2.8,1.87Z"/>
      <path class="cls-1" d="M413.52,301.25c.29-1.34,1.22-2.11,2.28-2.11.31,0,.54.08.78.19v1.61c-.27-.15-.6-.22-.9-.22-.56,0-2.16.27-2.16,3.89v3.21h-1.65v-8.5h1.65v1.92Z"/>
      <path class="cls-1" d="M424.21,305.26c0,.93.46,1.31,1.02,1.31.53,0,1.04-.31,1.04-.93,0-.12-.02-.44-.14-.7h1.44c.15.34.15.92.15.92,0,1.21-.87,2.16-2.52,2.16-1.34,0-2.65-.7-2.65-2.87v-4.52h-1.39v-1.29h1.39l.37-2.45h1.27v2.45h2.7v1.29h-2.7v4.64Z"/>
      <path class="cls-1" d="M433.08,299.14c2.46,0,4.47,2.01,4.47,4.44s-2.01,4.44-4.47,4.44-4.45-1.97-4.45-4.44,2.01-4.44,4.45-4.44ZM433.08,306.55c1.56,0,2.82-1.33,2.82-2.96s-1.26-2.99-2.82-2.99-2.81,1.34-2.81,2.99,1.26,2.96,2.81,2.96Z"/>
      <path class="cls-1" d="M445.71,307.83h-1.65v-12.29h1.65v12.29Z"/>
      <path class="cls-1" d="M452.19,299.14c2.46,0,4.47,2.01,4.47,4.44s-2.01,4.44-4.47,4.44-4.45-1.97-4.45-4.44,2.01-4.44,4.45-4.44ZM452.19,306.55c1.56,0,2.82-1.33,2.82-2.96s-1.26-2.99-2.82-2.99-2.81,1.34-2.81,2.99,1.26,2.96,2.81,2.96Z"/>
      <path class="cls-1" d="M462.44,299.14c2.46,0,4.47,2.01,4.47,4.44s-2.01,4.44-4.47,4.44-4.45-1.97-4.45-4.44,2.01-4.44,4.45-4.44ZM462.44,306.55c1.56,0,2.82-1.33,2.82-2.96s-1.26-2.99-2.82-2.99-2.81,1.34-2.81,2.99,1.26,2.96,2.81,2.96Z"/>
      <path class="cls-1" d="M473.44,299.33h1.84v.19l-3.11,3.72,1.44,2.19c.49.7.73,1.14,1.5,1.14.19,0,.73-.02,1.1-.32l.56,1.11c-.66.7-1.67.66-1.85.66-1.63,0-2.18-1.1-2.69-1.8l-1.72-2.75v4.37h-1.65v-12.29h1.65v7.36l2.92-3.57Z"/>
      <path class="cls-1" d="M200.15,319.54c1.14,0,2.26.39,3.08,1.55v-1.36h1.65v8.5h-1.65v-1.36c-.82,1.16-1.94,1.55-3.08,1.55-2.55,0-4.22-2-4.22-4.44s1.67-4.44,4.22-4.44ZM200.36,321c-1.77,0-2.77,1.36-2.77,2.97s1,2.98,2.77,2.98,2.89-1.26,2.91-2.98c-.02-1.72-1.19-2.97-2.91-2.97Z"/>
      <path class="cls-1" d="M209.74,319.73h2.23v1.29h-2.23v7.21h-1.7v-7.21h-1.34v-1.29h1.34v-.65c0-2.74,1.48-3.31,2.82-3.31,1.65,0,2.53.94,2.53,2.14,0,0,0,.22-.08.46h-1.41c.02-.12.03-.17.03-.29,0-.68-.53-.87-1.05-.87-.56,0-1.14.37-1.14,1.65v.87Z"/>
      <path class="cls-1" d="M215.88,325.66c0,.93.46,1.31,1.02,1.31.53,0,1.04-.31,1.04-.93,0-.12-.02-.44-.14-.7h1.44c.15.34.15.92.15.92,0,1.21-.87,2.16-2.52,2.16-1.34,0-2.65-.7-2.65-2.87v-4.52h-1.39v-1.29h1.39l.37-2.45h1.27v2.45h2.7v1.29h-2.7v4.64Z"/>
      <path class="cls-1" d="M228.82,326.83c-1.09,1.22-2.46,1.58-3.72,1.58-2.96,0-4.79-1.99-4.79-4.4s1.94-4.47,4.57-4.47c2.24,0,4.33,1.45,4.33,4.59h-7.26c-.05,1.65,1.27,2.82,3.16,2.82,1.02,0,1.94-.34,2.79-1.07l.92.95ZM222.1,322.86h5.41c-.46-1.55-1.67-1.87-2.6-1.87-1,0-2.24.39-2.8,1.87Z"/>
      <path class="cls-1" d="M232.71,321.65c.29-1.34,1.22-2.11,2.28-2.11.31,0,.54.08.78.19v1.61c-.27-.15-.6-.22-.9-.22-.56,0-2.16.27-2.16,3.89v3.21h-1.65v-8.5h1.65v1.92Z"/>
      <path class="cls-1" d="M247.14,323.43c0-1.8-.83-2.43-1.73-2.43s-2.41.6-2.41,3.28v3.94h-1.65v-8.5h1.65v1.7c.36-1.24,1.46-1.89,2.72-1.89.82,0,2.04.27,2.7,1.79.7-1.48,1.87-1.79,2.89-1.79,2.01,0,3.28,1.16,3.28,3.89v4.79h-1.65v-4.79c0-1.8-.83-2.43-1.73-2.43-.8,0-2.33.49-2.41,3.09v4.13h-1.65v-4.79Z"/>
      <path class="cls-1" d="M262.73,319.73h1.92l-5.22,12.31h-1.6l1.58-4.1-3.59-8.21h1.89l2.6,6.34,2.41-6.34Z"/>
      <path class="cls-1" d="M276.36,323.43c0-1.8-.83-2.43-1.73-2.43s-2.74.6-2.74,3.28v3.94h-1.65v-12.29h1.65v5.49c.36-1.21,1.46-1.89,2.86-1.89,1.84,0,3.26,1.16,3.26,3.89v4.79h-1.65v-4.79Z"/>
      <path class="cls-1" d="M284.3,319.54c2.46,0,4.47,2.01,4.47,4.44s-2.01,4.44-4.47,4.44-4.45-1.97-4.45-4.44,2.01-4.44,4.45-4.44ZM284.3,326.95c1.56,0,2.82-1.33,2.82-2.96s-1.26-2.99-2.82-2.99-2.81,1.34-2.81,2.99,1.26,2.96,2.81,2.96Z"/>
      <path class="cls-1" d="M292.26,324.52c0,1.8.83,2.43,1.73,2.43s2.74-.6,2.74-3.28v-3.94h1.65v8.5h-1.65v-1.7c-.36,1.21-1.46,1.89-2.86,1.89-1.84,0-3.26-1.16-3.26-3.89v-4.79h1.65v4.79Z"/>
      <path class="cls-1" d="M304.82,321.89c-.27-.76-.8-.93-1.33-.93-.77,0-1.26.48-1.26,1.09,0,.56.51.85,1.02,1.02l1.22.41c1.61.49,2.04,1.5,2.04,2.4,0,1.61-1.41,2.55-3.06,2.55-1.5,0-2.89-.76-3.28-2.23l1.46-.36c.2.68.97,1.17,1.84,1.17s1.46-.49,1.46-1.16c0-.58-.48-.87-1.07-1.07l-1.14-.39c-1.36-.41-2.09-1.14-2.09-2.31,0-1.45,1.12-2.53,2.8-2.53,1.19,0,2.36.49,2.84,2.02l-1.46.32Z"/>
      <path class="cls-1" d="M316.36,326.83c-1.09,1.22-2.46,1.58-3.72,1.58-2.96,0-4.79-1.99-4.79-4.4s1.94-4.47,4.57-4.47c2.24,0,4.33,1.45,4.33,4.59h-7.26c-.05,1.65,1.27,2.82,3.16,2.82,1.02,0,1.94-.34,2.79-1.07l.92.95ZM309.65,322.86h5.41c-.46-1.55-1.67-1.87-2.6-1.87-1,0-2.24.39-2.8,1.87Z"/>
      <path class="cls-1" d="M326.68,319.54c1.14,0,2.26.39,3.08,1.55v-1.36h1.65v8.5h-1.65v-1.36c-.82,1.16-1.94,1.55-3.08,1.55-2.55,0-4.22-2-4.22-4.44s1.67-4.44,4.22-4.44ZM326.89,321c-1.77,0-2.77,1.36-2.77,2.97s1,2.98,2.77,2.98,2.89-1.26,2.91-2.98c-.02-1.72-1.19-2.97-2.91-2.97Z"/>
      <path class="cls-1" d="M340.15,323.43c0-1.8-.83-2.43-1.73-2.43s-2.74.6-2.74,3.28v3.94h-1.65v-8.5h1.65v1.7c.36-1.21,1.46-1.89,2.86-1.89,1.84,0,3.26,1.16,3.26,3.89v4.79h-1.65v-4.79Z"/>
      <path class="cls-1" d="M347.9,319.54c1.14,0,2.26.39,3.08,1.55v-5.15h1.65v12.29h-1.65v-1.36c-.82,1.16-1.94,1.55-3.08,1.55-2.55,0-4.22-2-4.22-4.44s1.67-4.44,4.22-4.44ZM348.1,321c-1.77,0-2.77,1.36-2.77,2.97s1,2.98,2.77,2.98,2.89-1.26,2.91-2.98c-.02-1.72-1.19-2.97-2.91-2.97Z"/>
      <path class="cls-1" d="M363.33,319.54c1.14,0,2.26.39,3.08,1.55v-5.15h1.65v12.29h-1.65v-1.36c-.82,1.16-1.94,1.55-3.08,1.55-2.55,0-4.22-2-4.22-4.44s1.67-4.44,4.22-4.44ZM363.54,321c-1.77,0-2.77,1.36-2.77,2.97s1,2.98,2.77,2.98,2.89-1.26,2.91-2.98c-.02-1.72-1.19-2.97-2.91-2.97Z"/>
      <path class="cls-1" d="M374.49,319.54c2.46,0,4.47,2.01,4.47,4.44s-2.01,4.44-4.47,4.44-4.45-1.97-4.45-4.44,2.01-4.44,4.45-4.44ZM374.49,326.95c1.56,0,2.82-1.33,2.82-2.96s-1.26-2.99-2.82-2.99-2.8,1.34-2.8,2.99,1.26,2.96,2.8,2.96Z"/>
      <path class="cls-1" d="M389.24,328.16c0,2.82-2.11,4.06-4.44,4.06-1.8,0-2.82-.56-3.64-1.22l.66-1.29c.85.75,1.89,1.07,2.97,1.07,1.65,0,2.79-.95,2.79-2.77v-1.14c-.82,1.16-1.94,1.55-3.08,1.55-2.55,0-4.22-2-4.22-4.44s1.67-4.44,4.22-4.44c1.14,0,2.26.39,3.08,1.55v-1.36h1.65v8.43ZM384.72,321c-1.77,0-2.77,1.36-2.77,2.97s1,2.98,2.77,2.98,2.89-1.26,2.91-2.98c-.02-1.72-1.19-2.97-2.91-2.97Z"/>
      <path class="cls-1" d="M399.93,319.54c1.14,0,2.26.39,3.08,1.55v-1.36h1.65v8.5h-1.65v-1.36c-.82,1.16-1.94,1.55-3.08,1.55-2.55,0-4.22-2-4.22-4.44s1.67-4.44,4.22-4.44ZM400.14,321c-1.77,0-2.77,1.36-2.77,2.97s1,2.98,2.77,2.98,2.89-1.26,2.91-2.98c-.02-1.72-1.19-2.97-2.91-2.97Z"/>
      <path class="cls-1" d="M415.59,328.16c0,2.82-2.11,4.06-4.44,4.06-1.8,0-2.82-.56-3.64-1.22l.66-1.29c.85.75,1.89,1.07,2.97,1.07,1.65,0,2.79-.95,2.79-2.77v-1.14c-.82,1.16-1.94,1.55-3.08,1.55-2.55,0-4.22-2-4.22-4.44s1.67-4.44,4.22-4.44c1.14,0,2.26.39,3.08,1.55v-1.36h1.65v8.43ZM411.07,321c-1.77,0-2.77,1.36-2.77,2.97s1,2.98,2.77,2.98,2.89-1.26,2.91-2.98c-.02-1.72-1.19-2.97-2.91-2.97Z"/>
      <path class="cls-1" d="M421.8,319.54c1.14,0,2.26.39,3.08,1.55v-1.36h1.65v8.5h-1.65v-1.36c-.82,1.16-1.94,1.55-3.08,1.55-2.55,0-4.22-2-4.22-4.44s1.67-4.44,4.22-4.44ZM422,321c-1.77,0-2.77,1.36-2.77,2.97s1,2.98,2.77,2.98,2.89-1.26,2.91-2.98c-.02-1.72-1.19-2.97-2.91-2.97Z"/>
      <path class="cls-1" d="M430.01,315.83c.65,0,1.16.51,1.16,1.16s-.51,1.14-1.16,1.14-1.14-.49-1.14-1.14.49-1.16,1.14-1.16ZM430.84,319.73h-1.65v8.5h1.65v-8.5Z"/>
      <path class="cls-1" d="M439.63,323.43c0-1.8-.83-2.43-1.73-2.43s-2.74.6-2.74,3.28v3.94h-1.65v-8.5h1.65v1.7c.36-1.21,1.46-1.89,2.86-1.89,1.84,0,3.26,1.16,3.26,3.89v4.79h-1.65v-4.79Z"/>
      <path class="cls-1" d="M444.66,325.91c.7,0,1.26.56,1.26,1.26s-.56,1.24-1.26,1.24-1.24-.54-1.24-1.24.54-1.26,1.24-1.26Z"/>
    </g>
  </g>
</svg>