<?xml version="1.0" encoding="UTF-8"?>
<svg id="Layer_2" data-name="Layer 2" xmlns="http://www.w3.org/2000/svg" viewBox="0 0 160.69 152.13">
  <defs>
    <style>
      .cls-1 {
        fill: #56a4da;
      }
    </style>
  </defs>
  <g id="Layer_1-2" data-name="Layer 1">
    <path class="cls-1" d="M114.8,88.11c11.17,2.79,18.81-2.07,28.59-.89,16.26,1.94,5.22,23.15-.91,30.49-6.84,8.18-12.77,12.27-23.16,14.51-.33-.07-.66-.13-.97-.16.31.08.63.14.97.16-2.2.47-4.22.87-6.44,1.29-10.23,1.91-13.55,1.27-20.93,9.64-4.68,5.31-11.19,17.4-10.64-.34.47-15.32,2.45-30.99,1.34-46.35-.1-1.37-1.22-9.3-2.28-9.3-1.51,2.37-2.07,6.47-2.28,9.3-.6,8.23-.19,18.69,0,27.09.15,6.99,2.12,17.88,1.33,24.45-.21,1.74-.77,3.17-2.35,4.11-2.7.46-7.68-8.74-9.48-10.66-8.81-9.38-18.54-6.49-29.4-9.56-13.93-3.94-30.8-22.86-28.98-38.01,1.31-11,18.81-5.25,25.42-4.79,8.13.57,20.42-1.8,23.84-10.33,5.62-14.01-12.97-36.13-25.11-21.9-8.23,9.65-3.01,24.34-19.92,25.14-20.59.98-12.72-24.5-7.55-35.87C17.05,21.61,36.12.78,64.88.2c11.83-.24,31.79-.68,42.85,1.62,22.34,4.66,37.74,24.1,46.9,43.88,5.67,12.25,13.51,38.97-9.17,36.21-11.67-1.41-10.64-9.26-13.9-17.65-13.38-34.4-50.01,15.54-16.76,23.84Z"/>
  </g>
</svg>