<?xml version="1.0" encoding="UTF-8"?>
<svg id="Layer_2" data-name="Layer 2" xmlns="http://www.w3.org/2000/svg" viewBox="0 0 337.21 128.45">
  <defs>
    <style>
      .cls-1 {
        fill: #f15a28;
      }

      .cls-2 {
        fill: #efe1cf;
      }
    </style>
  </defs>
  <g id="Layer_1-2" data-name="Layer 1">
    <ellipse class="cls-1" cx="168.61" cy="64.22" rx="168.61" ry="64.22"/>
    <g>
      <path class="cls-2" d="M129.26,67.37c-.07-.45,0-.85.86-1.12.59-.17,1.22-.32,1.85-.42.3-.05.58-.09.86-.11.89-.06,1.07.22,1.26,1.4l.27,1.71c.25,1.56.47,3.11.69,4.65.98-.16,1.36-.06,1.67.56.16.39.29.83.36,1.29.04.28.09.55.09.87.03.51-.28,1-1.21,1.2l-.5.11c.14,1.55.25,3.22.31,4.91.02.75-.26,1.28-.93,1.44-.25.07-.53.11-.8.15-.53.08-1.06.14-1.6.15-.72.01-1.14-.21-1.25-.89-.01-.08-.04-.59-.07-1.08-.1-1.28-.15-2.23-.29-3.81-.98.18-1.99.34-3.02.51s-2.07.33-3.11.47c.32,1.5.6,2.78.85,3.72.08.35.2.77.22.87.1.63-.15,1.03-.71,1.22-.63.26-1.4.46-2.13.57l-.3.05c-.91.14-1.31-.26-1.5-.95-.5-1.65-.9-3.24-1.28-4.84-.86.14-1.25-.03-1.46-.7-.11-.4-.14-.55-.17-.72-.07-.43-.09-.87-.1-1.3-.02-.77.32-.9.94-1.05-.39-2.11-.73-4.25-1.1-6.6-.18-1.11-.03-1.49.67-1.66.35-.08.7-.16,1.08-.22.68-.11,1.39-.17,2.04-.17s.88.15,1.07,1.38c.35,2.06.71,4.18,1.09,6.24,1.68-.32,3.47-.63,5.26-.91l1.19-.19c-.15-1.14-.31-2.3-.5-3.49-.26-1.66-.49-2.79-.57-3.25Z"/>
      <path class="cls-2" d="M149.45,76.4c-1.02,1.22-2.31,2.09-3.9,2.44-3.56.79-6.28-1.18-7.02-4.52-1.05-4.73,2.08-9.31,6.07-10.2.81-.18,1.71-.2,2.56-.04-.1-.71.08-.95.58-1.06.61-.14,1.85-.23,2.79-.18.97.05,1.42.21,1.71,1.52.73,3.29,1.43,7.25,1.77,10.74.1,1.12-.12,1.57-1.07,1.9-.32.13-.74.22-1.16.31-.33.07-.67.15-.93.18-1.06.09-1.23-.28-1.41-1.09ZM148.01,67.96c-.58-.11-1.2-.14-1.92.02-2.26.5-3.02,3.01-2.69,4.48.31,1.39,1.37,2.09,2.93,1.75.92-.2,1.78-.8,2.46-1.83-.23-1.44-.48-2.96-.77-4.42Z"/>
      <path class="cls-2" d="M155.06,60.72c.79-.31,1.93-.57,2.74-.71.73-.13.95.15,1.09.94.92-1.2,2.43-1.99,3.92-2.25,3.37-.59,6.44,1.22,7.27,6,.73,4.19-2.16,7.99-5.7,8.61-1.26.22-2.42.25-3.44.05.25,1.26.91,6.09,1.08,7.05s.02,1.27-.82,1.91c-.64.49-1.84,1.22-2.46,1.33-.51.09-.89-.13-1.09-.79-.91-3.03-1.86-9.34-2.47-12.83-.41-2.33-.78-4.79-1.1-7.31-.15-1.16.06-1.63.98-2ZM159.96,68.06l.21,1.18c.59.24,1.15.29,1.91.16,1.85-.32,3.37-2.07,3.07-3.81s-1.52-2.37-2.95-2.12c-.98.17-1.99.7-2.72,1.69.14.99.31,1.94.48,2.9Z"/>
      <path class="cls-2" d="M175.02,57.18c.84-.02,2.01.13,2.82.28.73.13.84.47.7,1.26,1.28-.81,2.97-1.03,4.46-.76,3.37.61,5.62,3.37,4.76,8.14-.76,4.18-4.79,6.75-8.33,6.11-1.26-.23-2.35-.6-3.24-1.14-.2,1.27-.41,3.08-.59,4.04s-.42,1.2-1.43,1.51c-.77.24-2.15.51-2.77.4-.51-.09-.79-.43-.75-1.12.2-3.15.65-6.46,1.28-9.94.42-2.33.92-4.76,1.49-7.24.26-1.14.62-1.51,1.61-1.53ZM177.08,65.76l-.21,1.18c.47.43.98.67,1.74.81,1.85.34,3.88-.77,4.2-2.51s-.6-2.75-2.03-3.01c-.98-.18-2.11-.04-3.13.65-.21.98-.38,1.93-.55,2.89Z"/>
      <path class="cls-2" d="M145.61,84.77l.18-.78c.17-.69.36-1.38.58-2.18.41-1.37.87-1.82,4.26-1.01.86.2,1.03.71.84,1.52-.08.33-.67,2.21-1.05,3.53.63.21,1.25.41,1.89.68.72.29.89.68.72,1.4-.09.36-.31,1.04-.52,1.55-.31.69-.7.86-1.52.72-.51-.06-1.22-.17-1.5-.24-.5,2.46-1.43,9.95-1.61,10.73-.16.67-.45.92-1.26.84-.72-.05-1.82-.46-2.53-.66s-.97-.49-.87-1.41c.26-2.69,1.19-8.01,1.64-10.78l-.7-.25c-.76-.27-1.02-.53-.9-1.39.06-.4.15-.87.22-1.15.3-1.25.65-1.37,2.12-1.14Z"/>
      <path class="cls-2" d="M162.48,100.44c-1.1,1.14-2.46,1.91-4.07,2.15-3.61.53-6.18-1.64-6.67-5.03-.7-4.8,2.77-9.14,6.8-9.72.82-.12,1.72-.08,2.56.15-.05-.71.15-.94.66-1.02.62-.09,1.86-.1,2.8.03.97.12,1.4.32,1.59,1.64.48,3.33.89,7.34.97,10.84.02,1.12-.23,1.56-1.21,1.82-.33.11-.75.17-1.18.23-.34.05-.68.1-.94.11-1.06.01-1.21-.37-1.33-1.19ZM161.67,91.91c-.57-.15-1.19-.23-1.92-.12-2.29.33-3.23,2.78-3.01,4.27.21,1.41,1.21,2.19,2.79,1.96.93-.14,1.83-.67,2.59-1.64-.12-1.45-.26-2.99-.45-4.46Z"/>
      <path class="cls-2" d="M170.76,89.33c.61-.18,1.49-.3,2.29-.38.34-.03.65-.06.94-.06.57-.03.64.13.71.9.31,3.41.51,6.2.52,9.42,0,.98,0,1.32-1.41,1.45-.51.05-1.05.07-1.57.07-1.17.01-1.41-.35-1.54-1.13-.19-1.14-.32-2.25-.42-3.37-.16-1.79-.24-3.58-.27-5.45-.04-.74,0-1.27.76-1.44Z"/>
      <path class="cls-2" d="M178.39,75.33c.86-.35,2.12-.6,2.92-.67.57-.05.85.2.94,1.27s.22,2.17.32,3.34c.55,6.34,1.03,14.08,1.1,18.14.02,1.25.05,1.87-1.16,2.12-.22.05-.45.07-.68.09-.31.03-.6.05-.88.04-1.17.03-1.45-.5-1.63-1.59-.32-2.02-.68-5.19-.99-8.7-.34-3.9-.6-8.18-.61-11.93-.02-1.56.12-1.89.67-2.11Z"/>
      <path class="cls-2" d="M194.48,87.78c-.39-.08-.91.04-1.2.05-1.12.04-1.94.32-1.92,1.06.05,1.44,7.48,1.28,7.65,6.24.1,2.88-2.88,4.84-6.91,4.98-1.79.06-3.18-.12-4.47-.58-.58-.2-.88-.48-.9-1.03,0-.19.02-.42.07-.68.14-.61.5-1.39.7-1.95.21-.46.36-.69.65-.69.19,0,.45.08.84.23.81.36,1.78.48,2.42.46.96-.03,1.63-.25,1.61-.82-.05-1.44-6.71-1.37-6.88-6.2-.11-3.07,3.41-5.21,7.06-5.34,1.54-.05,1.95.29,3.27.69.68.2,2.37.46,2.4,1.32"/>
      <g>
        <path class="cls-2" d="M186.11,78.53s-.02-.03-.03-.05c.02.01.04.03.05.05v.02c.02.06.01.05-.02-.02Z"/>
        <path class="cls-2" d="M201.97,60.45c-.51-.06-1.23-.02-1.7.04-1.16.16-1.55.51-1.63,1.25-.05.43-.03,4.16-.29,7-1.19.61-2.39.82-3.32.72-.71-.08-1.02-.69-.92-1.57.32-2.86,1.12-5.93,1.2-6.67.07-.65-.17-1.05-.77-1.32-.49-.26-1.16-.42-1.81-.49-1.22-.14-1.84.03-2.1,1.06-.81,3.18-1.39,6.62-1.61,8.57-.39,3.49,2.4,4.23,3.96,4.4,1.7.19,3.4-.11,4.93-.97-.04.02-.06.38-.07.44-.03.17-.06.34-.09.5-.06.32-.13.65-.2.97-.08.37-.17.74-.27,1.11-.11.43-.54.7-.97.62-.78-.14-1.58-.23-2.37-.32-1.07-.12-2.15-.2-3.23-.27-.95-.06-1.9-.09-2.85-.13-.73-.03.35-.04-.37-.03-.64.01-1.42-.01-1.98.35-.53.35-.84.94-.83,1.57.01.54.06,1.09.08,1.63.02.64.23,1.17.84,1.47.58.28,1.21.23,1.83.21,1.32-.04.85.04,2.17.11,1.9.1,3.8.24,5.7.31.77.02,1.56.08,2.34.02,2.17.01,3.77-1.16,4.12-2.67.48-2.01.85-4.58,1.14-7.14.41-3.68.61-7.34.61-9.4,0-1.06-.52-1.29-1.54-1.4ZM186.06,79.16s-.02-.03-.03-.05c.02.01.04.03.05.05v.02c.02.06.01.05-.02-.02Z"/>
        <path class="cls-2" d="M186.11,78.53s-.02-.03-.03-.05c.02.01.04.03.05.05v.02c.02.06.01.05-.02-.02Z"/>
      </g>
      <g>
        <path class="cls-2" d="M171.04,82.17c.65-.15,1.44.04,2.03.34s1.02.75,1.39,1.28c.45.64,1.05,1.66.63,2.43-.83,1.52-4.96,1.96-6.25.9-1.15-.94-.46-2.53.27-3.52.46-.63,1.15-1.26,1.94-1.43Z"/>
        <path class="cls-2" d="M168.75,78.3c1.7-.52,2.67,2.62,1.21,3.17s-2.81-2.47-1.21-3.17Z"/>
        <path class="cls-2" d="M175.75,79.69c.61-.12,1.19.49,1.2,1.1.02.69-.68,1.87-1.37,2.01-.35.07-.77.08-1.04-.17-1-.91.07-2.71,1.21-2.93Z"/>
        <path class="cls-2" d="M172.46,77.85c.41-.12.73-.04,1.02.26,1.08,1.09-.09,3.55-1.44,2.92-1.12-.53-.75-2.82.42-3.17Z"/>
        <path class="cls-2" d="M166.08,80.79c.88-.29,1.85.29,2.26,1.07.15.28.22.64.06.93-.14.26-.42.42-.69.53-.35.13-.74.17-1.1.07-.77-.23-1.3-1.22-1.09-2,.08-.28.28-.51.56-.6Z"/>
      </g>
      <path class="cls-2" d="M194.18,83.53c7.83,1.44,13.92-.48,14.26-6.83.2-3.63-1.27-6.5-2.57-8.01-.21-.24,0-.62.31-.57,1.59.24,3.09,1.18,4.04,3.23.11.23.42.26.56.06l.34-.47c.13-.18.41-.18.54,0,.88,1.24,1.2,3.61,1.11,6.37,0,.23.22.4.44.32l.65-.24c.23-.08.47.1.44.34-.21,2.02-1.63,4.24-2.89,5.4-.22.2-.07.56.22.57h.65c.27.02.42.33.25.54-1,1.21-3.08,2.4-4.87,2.78-.31.07-.36.49-.07.62l.27.12c.25.11.26.46.02.59-4.15,2.21-12.58-.29-14.61-.53l.9-4.3Z"/>
    </g>
  </g>
</svg>