<?xml version="1.0" encoding="UTF-8"?>
<svg id="Layer_2" data-name="Layer 2" xmlns="http://www.w3.org/2000/svg" viewBox="0 0 594.57 562.91">
  <defs>
    <style>
      .cls-1 {
        fill: #e2cebd;
      }
    </style>
  </defs>
  <g id="Layer_1-2" data-name="Layer 1">
    <path class="cls-1" d="M424.79,326.02c41.33,10.34,69.61-7.65,105.78-3.31,60.18,7.19,19.3,85.67-3.38,112.83-25.3,30.28-47.27,45.38-85.69,53.67-1.24-.26-2.43-.48-3.6-.6,1.14.29,2.33.5,3.6.6-8.12,1.74-15.63,3.22-23.82,4.76-37.86,7.08-50.15,4.72-77.45,35.69-17.32,19.63-41.41,64.37-39.38-1.26,1.74-56.68,9.08-114.69,4.96-171.51-.38-5.07-4.53-34.4-8.43-34.4-5.57,8.77-7.67,23.94-8.43,34.4-2.22,30.45-.71,69.16,0,100.25.57,25.85,7.84,66.16,4.91,90.48-.76,6.43-2.86,11.75-8.7,15.22-9.98,1.69-28.42-32.35-35.07-39.45-32.59-34.71-68.59-24.01-108.78-35.38-51.55-14.58-113.97-84.6-107.23-140.63,4.86-40.69,69.61-19.42,94.06-17.72,30.07,2.1,75.57-6.65,88.22-38.21,20.8-51.84-48-133.68-92.91-81.02-30.45,35.71-11.13,90.08-73.71,93.03-76.19,3.62-47.05-90.67-27.95-132.72C63.07,79.97,133.64,2.88,240.06.73c43.76-.88,117.62-2.5,158.57,6,82.67,17.22,139.65,89.17,173.56,162.38,20.96,45.34,49.98,144.18-33.95,133.98-43.19-5.22-39.36-34.28-51.44-65.3-49.51-127.29-185.06,57.49-62.01,88.22Z"/>
  </g>
</svg>