<?xml version="1.0" encoding="UTF-8"?>
<svg id="Layer_1" data-name="Layer 1" xmlns="http://www.w3.org/2000/svg" viewBox="0 0 442.05 344.56">
  <defs>
    <style>
      .cls-1 {
        fill: #e8d6c5;
      }
    </style>
  </defs>
  <path class="cls-1" d="M413.36,76.94c-26.57-43.94-73.45-62.59-126.16-69.18C228.05.35,168.85-2.03,109.25,1.83c-1.92.12-3.83.34-5.73.63-5.43.25-10.88.84-16.31,1.8-16.2,2.86-33.54,8.16-47.73,15.66C12.28,34.3,3.16,61.23,1.62,87.89c-2.39,41.28-2.55,84.77,2.35,125.88,5.74,48.18,29.74,90.22,79.45,112.54,45.92,20.62,96.39,20.31,146.25,15.68,46.52-4.32,94.69-10.51,135-33.61,44.08-25.27,73.37-64.27,76.88-111.76,2.92-39.49-7.1-84.8-28.19-119.68Z"/>
</svg>