<?xml version="1.0" encoding="UTF-8"?>
<svg id="Layer_2" data-name="Layer 2" xmlns="http://www.w3.org/2000/svg" viewBox="0 0 284 146.57">
  <defs>
    <style>
      .cls-1 {
        fill: #56a4da;
      }
    </style>
  </defs>
  <g id="Layer_1-2" data-name="Layer 1">
    <path class="cls-1" d="M283.95,107.17c-.58,39.06-50.04,51.8-69.07,17.54-3.99-6.45-8.74-11.29-16.77-11.72-30.19.62-60.55,1.86-90.81.46-7.89-.2-16.32-.49-23.67,2.54-13.42,5.58-18.94,22.7-33.17,27.76-20.49,8.97-45.27-4.52-49.49-26.68-3.23-13.72,2.08-27.16,11.11-37.35,7.8-9.18-4.28-16.18-7.79-24.28C-11.06,25.47,17.3-9.92,49.91,2.59c4.47,1.76,8.5,4.42,11.92,7.75,7.62,7.4,12.46,18.11,22.23,22.52,5.17,2.48,11.11,3.34,16.86,3.76,29.9,1.5,59.88,1.23,89.78-.14,29.16-.16,17.49-26.29,47.03-35.07,31.6-8.84,56.67,25.77,41.95,54.15-2.42,5.21-7.46,9.83-8.73,14.99-1.2,8.09,6.51,12.33,9.72,20.75,2.14,4.88,3.26,10.21,3.28,15.54v.34Z"/>
  </g>
</svg>