<?xml version="1.0" encoding="UTF-8"?>
<svg id="Layer_2" data-name="Layer 2" xmlns="http://www.w3.org/2000/svg" viewBox="0 0 930.25 480.08">
  <defs>
    <style>
      .cls-1 {
        fill: #56a4da;
      }

      .cls-2 {
        fill: #efe1cf;
        font-family: Snicker-Bold, Snicker;
        font-size: 153.24px;
        font-weight: 700;
      }
    </style>
  </defs>
  <g id="Layer_1-2" data-name="Layer 1">
    <path class="cls-1" d="M930.07,351.03c-1.9,127.94-163.9,169.66-226.23,57.45-13.08-21.12-28.62-36.98-54.93-38.38-98.89,2.03-198.33,6.09-297.45,1.52-25.84-.66-53.44-1.62-77.52,8.33-43.95,18.29-62.04,74.36-108.66,90.94-67.1,29.37-148.28-14.82-162.11-87.39-10.59-44.93,6.81-88.96,36.39-122.33,25.53-30.06-14.01-53-25.51-79.53C-36.24,83.43,56.67-32.48,163.47,8.47c14.64,5.76,27.84,14.46,39.04,25.37,24.95,24.23,40.81,59.31,72.83,73.76,16.92,8.13,36.39,10.94,55.22,12.32,97.94,4.91,196.14,4.03,294.07-.45,95.53-.53,57.28-86.1,154.05-114.87,103.49-28.96,185.62,84.42,137.4,177.37-7.94,17.05-24.45,32.2-28.61,49.1-3.92,26.51,21.33,40.38,31.84,67.96,7.02,15.98,10.67,33.43,10.75,50.9v1.1Z"/>
    <text class="cls-2" transform="translate(122.27 283.06)"><tspan x="0" y="0">view more</tspan></text>
  </g>
</svg>