<?xml version="1.0" encoding="UTF-8"?>
<svg id="Layer_2" data-name="Layer 2" xmlns="http://www.w3.org/2000/svg" viewBox="0 0 285.17 75.85">
  <defs>
    <style>
      .cls-1 {
        fill: #f15a28;
      }
    </style>
  </defs>
  <g id="Layer_1-2" data-name="Layer 1">
    <path class="cls-1" d="M18.22,49.67c41.3-1,82.61-1.99,123.91-2.99,38.98-.94,80.09-6.09,118.37,4.69-4.39-5.26-8.79-10.51-13.18-15.77-.25-.71,3.76-13,4.88-11.77-.02-.02-2.69.37-2.88.36-4.83-.38-10.05.68-14.9.99-10.55.67-21.11,1.28-31.66,1.82-20.49,1.06-41,1.89-61.5,2.49-19.89.58-39.77.94-59.67,1.08-15.69.11-34.38,3.16-48.44-6.92-20.89-14.98-50.75-3.35-19.05,38.99,11.38,15.21,31.31,12.93,48.09,13.13,18.27.22,36.56-.17,54.82-.53,37.91-.77,75.81-2.33,113.68-4.68,16.79-1.04,38.36,1.15,49.2-17.53,5.16-8.88,6.72-19.13,3.82-29.45-4.12-14.67-15.75-16.94-27-19.11-35.99-6.96-72.76-3.97-109.04-3.1C104.53,2.43,61.38,3.47,18.22,4.51c-24.26.58-24.34,45.75,0,45.16h0Z"/>
  </g>
</svg>